<svg width="101" height="100" viewBox="0 0 101 100" fill="none" xmlns="http://www.w3.org/2000/svg">
<rect x="0.5" width="100" height="100" rx="20" fill="#121355"/>
<path d="M29.3322 19.3978C29.3322 22.738 26.6244 25.4458 23.2842 25.4458C19.944 25.4458 17.2363 22.738 17.2363 19.3978C17.2363 16.0576 19.944 13.3499 23.2842 13.3499C26.6244 13.3499 29.3322 16.0576 29.3322 19.3978Z" fill="url(#paint0_linear_243_51)"/>
<path d="M44.4521 70.8054C44.4521 67.4651 47.1598 64.7575 50.5 64.7575C53.8403 64.7575 56.548 67.4651 56.548 70.8054V79.8773C56.548 83.2176 53.8403 85.9253 50.5 85.9253C47.1598 85.9253 44.4521 83.2173 44.4521 79.8773V70.8054Z" fill="url(#paint1_linear_243_51)"/>
<path d="M43.3268 13.3499C39.9866 13.3499 37.2789 16.0576 37.2789 19.3978C37.2789 22.738 39.9866 25.4458 43.3268 25.4458H61.4057C67.0732 25.4458 71.6679 30.0403 71.6679 35.708C71.6679 41.3756 67.0732 45.9701 61.4057 45.9701H17.2363V79.8773C17.2363 83.2176 19.944 85.9253 23.2842 85.9253C26.6244 85.9253 29.3322 83.2176 29.3322 79.8773V58.066H61.4057C73.7538 58.066 83.7638 48.056 83.7638 35.708C83.7638 23.3599 73.7538 13.3499 61.4057 13.3499H43.3268Z" fill="url(#paint2_linear_243_51)"/>
<g filter="url(#filter0_d_243_51)">
<path d="M29.3322 20.1227C29.3322 23.4629 26.6245 26.1706 23.2843 26.1706C19.9441 26.1706 17.2363 23.4629 17.2363 20.1227C17.2363 16.7825 19.9441 14.0747 23.2843 14.0747C26.6245 14.0747 29.3322 16.7825 29.3322 20.1227Z" fill="white"/>
<path d="M44.4521 71.5303C44.4521 68.19 47.1599 65.4823 50.5001 65.4823C53.8404 65.4823 56.548 68.19 56.548 71.5303V80.6022C56.548 83.9425 53.8404 86.6502 50.5001 86.6502C47.1599 86.6502 44.4521 83.9422 44.4521 80.6022V71.5303Z" fill="white"/>
<path d="M43.3269 14.0747C39.9867 14.0747 37.2789 16.7825 37.2789 20.1227C37.2789 23.4629 39.9867 26.1706 43.3269 26.1706H61.4057C67.0733 26.1706 71.6679 30.7652 71.6679 36.4328C71.6679 42.1005 67.0733 46.695 61.4057 46.695H17.2363V80.6022C17.2363 83.9425 19.9441 86.6502 23.2843 86.6502C26.6245 86.6502 29.3322 83.9425 29.3322 80.6022V58.7909H61.4057C73.7538 58.7909 83.7638 48.7809 83.7638 36.4328C83.7638 24.0848 73.7538 14.0747 61.4057 14.0747H43.3269Z" fill="white"/>
</g>
<mask id="mask0_243_51" style="mask-type:alpha" maskUnits="userSpaceOnUse" x="17" y="14" width="67" height="73">
<path d="M29.3322 20.1227C29.3322 23.4629 26.6245 26.1706 23.2843 26.1706C19.9441 26.1706 17.2363 23.4629 17.2363 20.1227C17.2363 16.7825 19.9441 14.0747 23.2843 14.0747C26.6245 14.0747 29.3322 16.7825 29.3322 20.1227Z" fill="#FF0000"/>
<path d="M44.4521 71.5303C44.4521 68.19 47.1599 65.4823 50.5001 65.4823C53.8404 65.4823 56.548 68.19 56.548 71.5303V80.6022C56.548 83.9425 53.8404 86.6502 50.5001 86.6502C47.1599 86.6502 44.4521 83.9422 44.4521 80.6022V71.5303Z" fill="#FF0000"/>
<path d="M43.3269 14.0747C39.9867 14.0747 37.2789 16.7825 37.2789 20.1227C37.2789 23.4629 39.9867 26.1706 43.3269 26.1706H61.4057C67.0733 26.1706 71.6679 30.7652 71.6679 36.4328C71.6679 42.1005 67.0733 46.695 61.4057 46.695H17.2363V80.6022C17.2363 83.9425 19.9441 86.6502 23.2843 86.6502C26.6245 86.6502 29.3322 83.9425 29.3322 80.6022V58.7909H61.4057C73.7538 58.7909 83.7638 48.7809 83.7638 36.4328C83.7638 24.0848 73.7538 14.0747 61.4057 14.0747H43.3269Z" fill="#FF0000"/>
</mask>
<g mask="url(#mask0_243_51)">
<path d="M30.0571 19.3978C30.0571 22.738 27.3494 25.4458 24.0092 25.4458C20.669 25.4458 17.9612 22.738 17.9612 19.3978C17.9612 16.0576 20.669 13.3499 24.0092 13.3499C27.3494 13.3499 30.0571 16.0576 30.0571 19.3978Z" fill="#EAEAEA"/>
<path d="M45.177 70.8054C45.177 67.4651 47.8848 64.7575 51.225 64.7575C54.5653 64.7575 57.2729 67.4651 57.2729 70.8054V79.8773C57.2729 83.2176 54.5653 85.9253 51.225 85.9253C47.8848 85.9253 45.177 83.2173 45.177 79.8773V70.8054Z" fill="#EAEAEA"/>
<path d="M44.0518 13.3499C40.7116 13.3499 38.0039 16.0576 38.0039 19.3978C38.0039 22.738 40.7116 25.4458 44.0518 25.4458H62.1307C67.7982 25.4458 72.3928 30.0403 72.3928 35.708C72.3928 41.3756 67.7982 45.9701 62.1307 45.9701H17.9612V79.8773C17.9612 83.2176 20.669 85.9253 24.0092 85.9253C27.3494 85.9253 30.0571 83.2176 30.0571 79.8773V58.066H62.1307C74.4788 58.066 84.4887 48.056 84.4887 35.708C84.4887 23.3599 74.4788 13.3499 62.1307 13.3499H44.0518Z" fill="#EAEAEA"/>
</g>
<mask id="mask1_243_51" style="mask-type:alpha" maskUnits="userSpaceOnUse" x="17" y="14" width="67" height="73">
<path d="M29.3322 20.1227C29.3322 23.4629 26.6245 26.1706 23.2843 26.1706C19.9441 26.1706 17.2363 23.4629 17.2363 20.1227C17.2363 16.7825 19.9441 14.0747 23.2843 14.0747C26.6245 14.0747 29.3322 16.7825 29.3322 20.1227Z" fill="white"/>
<path d="M44.4521 71.5303C44.4521 68.19 47.1599 65.4823 50.5001 65.4823C53.8404 65.4823 56.548 68.19 56.548 71.5303V80.6022C56.548 83.9425 53.8404 86.6502 50.5001 86.6502C47.1599 86.6502 44.4521 83.9422 44.4521 80.6022V71.5303Z" fill="white"/>
<path d="M43.3269 14.0747C39.9867 14.0747 37.2789 16.7825 37.2789 20.1227C37.2789 23.4629 39.9867 26.1706 43.3269 26.1706H61.4057C67.0733 26.1706 71.6679 30.7652 71.6679 36.4328C71.6679 42.1005 67.0733 46.695 61.4057 46.695H17.2363V80.6022C17.2363 83.9425 19.9441 86.6502 23.2843 86.6502C26.6245 86.6502 29.3322 83.9425 29.3322 80.6022V58.7909H61.4057C73.7538 58.7909 83.7638 48.7809 83.7638 36.4328C83.7638 24.0848 73.7538 14.0747 61.4057 14.0747H43.3269Z" fill="white"/>
</mask>
<g mask="url(#mask1_243_51)">
<g opacity="0.6" filter="url(#filter1_d_243_51)">
<path d="M51.0637 41.3891C52.5259 49.097 29.8316 58.493 16.683 57.3131L15.9395 58.0983L13.0629 37.676C26.2849 37.676 50.4706 38.2626 51.0637 41.3891Z" fill="url(#paint3_linear_243_51)"/>
</g>
</g>
<mask id="mask2_243_51" style="mask-type:alpha" maskUnits="userSpaceOnUse" x="17" y="14" width="67" height="73">
<path d="M29.3322 20.1227C29.3322 23.4629 26.6245 26.1706 23.2843 26.1706C19.9441 26.1706 17.2363 23.4629 17.2363 20.1227C17.2363 16.7825 19.9441 14.0747 23.2843 14.0747C26.6245 14.0747 29.3322 16.7825 29.3322 20.1227Z" fill="white"/>
<path d="M44.4521 71.5303C44.4521 68.19 47.1599 65.4823 50.5001 65.4823C53.8404 65.4823 56.548 68.19 56.548 71.5303V80.6022C56.548 83.9425 53.8404 86.6502 50.5001 86.6502C47.1599 86.6502 44.4521 83.9422 44.4521 80.6022V71.5303Z" fill="white"/>
<path d="M43.3269 14.0747C39.9867 14.0747 37.2789 16.7825 37.2789 20.1227C37.2789 23.4629 39.9867 26.1706 43.3269 26.1706H61.4057C67.0733 26.1706 71.6679 30.7652 71.6679 36.4328C71.6679 42.1005 67.0733 46.695 61.4057 46.695H17.2363V80.6022C17.2363 83.9425 19.9441 86.6502 23.2843 86.6502C26.6245 86.6502 29.3322 83.9425 29.3322 80.6022V58.7909H61.4057C73.7538 58.7909 83.7638 48.7809 83.7638 36.4328C83.7638 24.0848 73.7538 14.0747 61.4057 14.0747H43.3269Z" fill="white"/>
</mask>
<g mask="url(#mask2_243_51)">
<path d="M65.8124 82.8869V77.7907H68.395C68.6022 77.7907 68.8278 77.8506 69.0718 77.9703C69.3158 78.0854 69.5229 78.2649 69.6933 78.5089C69.8682 78.7483 69.9557 79.0521 69.9557 79.4204C69.9557 79.7933 69.8659 80.1109 69.6863 80.3733C69.5068 80.6311 69.2881 80.8268 69.0303 80.9603C68.7771 81.0938 68.5378 81.1606 68.3122 81.1606H66.4477V80.3319H67.9669C68.1188 80.3319 68.2823 80.2559 68.4572 80.104C68.6367 79.9521 68.7265 79.7242 68.7265 79.4204C68.7265 79.1074 68.6367 78.8956 68.4572 78.7851C68.2823 78.6746 68.128 78.6194 67.9945 78.6194H66.9311V82.8869H65.8124ZM68.8922 80.4838L70.1628 82.8869H68.9337L67.6907 80.4838H68.8922ZM67.7459 85.9253C66.9817 85.9253 66.2659 85.7826 65.5984 85.4971C64.9308 85.2117 64.3439 84.8158 63.8375 84.3094C63.3311 83.803 62.9352 83.2161 62.6498 82.5485C62.3643 81.881 62.2216 81.1652 62.2216 80.401C62.2216 79.6368 62.3643 78.9209 62.6498 78.2534C62.9352 77.5859 63.3311 76.9989 63.8375 76.4925C64.3439 75.9861 64.9308 75.5902 65.5984 75.3048C66.2659 75.0194 66.9817 74.8766 67.7459 74.8766C68.5101 74.8766 69.226 75.0194 69.8935 75.3048C70.561 75.5902 71.148 75.9861 71.6544 76.4925C72.1608 76.9989 72.5567 77.5859 72.8421 78.2534C73.1275 78.9209 73.2702 79.6368 73.2702 80.401C73.2702 81.1652 73.1275 81.881 72.8421 82.5485C72.5567 83.2161 72.1608 83.803 71.6544 84.3094C71.148 84.8158 70.561 85.2117 69.8935 85.4971C69.226 85.7826 68.5101 85.9253 67.7459 85.9253ZM67.7459 84.5994C68.5193 84.5994 69.2237 84.4107 69.859 84.0332C70.4943 83.6557 71.0007 83.1493 71.3782 82.514C71.7557 81.8787 71.9444 81.1744 71.9444 80.401C71.9444 79.6276 71.7557 78.9232 71.3782 78.2879C71.0007 77.6526 70.4943 77.1462 69.859 76.7687C69.2237 76.3912 68.5193 76.2025 67.7459 76.2025C66.9725 76.2025 66.2682 76.3912 65.6329 76.7687C64.9976 77.1462 64.4912 77.6526 64.1137 78.2879C63.7362 78.9232 63.5475 79.6276 63.5475 80.401C63.5475 81.1744 63.7362 81.8787 64.1137 82.514C64.4912 83.1493 64.9976 83.6557 65.6329 84.0332C66.2682 84.4107 66.9725 84.5994 67.7459 84.5994Z" fill="white"/>
</g>
<defs>
<filter id="filter0_d_243_51" x="12.2363" y="10.0747" width="80.5275" height="86.5754" filterUnits="userSpaceOnUse" color-interpolation-filters="sRGB">
<feFlood flood-opacity="0" result="BackgroundImageFix"/>
<feColorMatrix in="SourceAlpha" type="matrix" values="0 0 0 0 0 0 0 0 0 0 0 0 0 0 0 0 0 0 127 0" result="hardAlpha"/>
<feOffset dx="2" dy="3"/>
<feGaussianBlur stdDeviation="3.5"/>
<feComposite in2="hardAlpha" operator="out"/>
<feColorMatrix type="matrix" values="0 0 0 0 0 0 0 0 0 0 0 0 0 0 0 0 0 0 0.5 0"/>
<feBlend mode="normal" in2="BackgroundImageFix" result="effect1_dropShadow_243_51"/>
<feBlend mode="normal" in="SourceGraphic" in2="effect1_dropShadow_243_51" result="shape"/>
</filter>
<filter id="filter1_d_243_51" x="-20.9371" y="7.67603" width="106.068" height="88.4222" filterUnits="userSpaceOnUse" color-interpolation-filters="sRGB">
<feFlood flood-opacity="0" result="BackgroundImageFix"/>
<feColorMatrix in="SourceAlpha" type="matrix" values="0 0 0 0 0 0 0 0 0 0 0 0 0 0 0 0 0 0 127 0" result="hardAlpha"/>
<feOffset dy="4"/>
<feGaussianBlur stdDeviation="17"/>
<feComposite in2="hardAlpha" operator="out"/>
<feColorMatrix type="matrix" values="0 0 0 0 0 0 0 0 0 0 0 0 0 0 0 0 0 0 1 0"/>
<feBlend mode="normal" in2="BackgroundImageFix" result="effect1_dropShadow_243_51"/>
<feBlend mode="normal" in="SourceGraphic" in2="effect1_dropShadow_243_51" result="shape"/>
</filter>
<linearGradient id="paint0_linear_243_51" x1="66.3885" y1="14.3554" x2="17.2363" y2="49.6376" gradientUnits="userSpaceOnUse">
<stop/>
<stop offset="0.18339" stop-color="#E9E9E9"/>
<stop offset="0.425"/>
<stop offset="0.880303" stop-color="white"/>
</linearGradient>
<linearGradient id="paint1_linear_243_51" x1="66.3885" y1="14.3554" x2="17.2363" y2="49.6376" gradientUnits="userSpaceOnUse">
<stop/>
<stop offset="0.18339" stop-color="#E9E9E9"/>
<stop offset="0.425"/>
<stop offset="0.880303" stop-color="white"/>
</linearGradient>
<linearGradient id="paint2_linear_243_51" x1="66.3885" y1="14.3554" x2="17.2363" y2="49.6376" gradientUnits="userSpaceOnUse">
<stop/>
<stop offset="0.18339" stop-color="#E9E9E9"/>
<stop offset="0.425"/>
<stop offset="0.880303" stop-color="white"/>
</linearGradient>
<linearGradient id="paint3_linear_243_51" x1="17.7921" y1="48.9892" x2="46.7485" y2="48.9892" gradientUnits="userSpaceOnUse">
<stop stop-color="white"/>
<stop offset="1" stop-color="#B7B7B7"/>
</linearGradient>
</defs>
</svg>
