<svg width="101" height="100" viewBox="0 0 101 100" fill="none" xmlns="http://www.w3.org/2000/svg">
<rect x="0.5" width="100" height="100" rx="20" fill="#132239"/>
<path d="M67.6948 39.8723H35.7535C34.7519 39.8723 33.945 40.707 33.945 41.7364V57.7906C33.945 58.82 34.7519 59.6547 35.7535 59.6547H50.8617C60.7946 59.6547 68.8356 51.3355 68.8356 41.0687C68.8356 40.4009 68.3069 39.8723 67.667 39.8723H67.6948Z" fill="white"/>
<path d="M27.6569 39.8723H13.2444C12.2427 39.8723 11.4359 40.707 11.4359 41.7364V65.8872C11.4359 75.5419 19.0038 83.3603 28.3525 83.3603C28.9646 83.3603 29.4376 82.8595 29.4376 82.2195V41.7086C29.4376 40.6792 28.6307 39.8444 27.6291 39.8444L27.6569 39.8723Z" fill="white"/>
<path d="M88.4789 16.6119H48.3576C40.4 16.6119 33.945 23.2895 33.945 31.4974V33.3616C33.945 34.3911 34.7519 35.2258 35.7535 35.2258H72.6474C81.9961 35.2258 89.5641 27.4074 89.5641 17.7526C89.5641 17.1405 89.0632 16.6119 88.4789 16.6119Z" fill="white"/>
<path d="M52.4198 64.0787H35.7535C34.7519 64.0787 33.945 64.9134 33.945 65.9428V82.1639C33.945 82.8317 34.4737 83.3881 35.1414 83.3881H35.9761C45.6865 83.3881 53.5327 75.2637 53.5327 65.2472C53.5327 64.6073 53.0319 64.0787 52.3919 64.0787H52.4198Z" fill="white"/>
<path d="M11.4359 25.9049C11.4359 31.0522 15.4703 35.1979 20.4506 35.1979C25.431 35.1979 29.4654 31.0244 29.4654 25.9049C29.4654 20.7854 25.431 16.6119 20.4506 16.6119C15.4703 16.6119 11.4359 20.7854 11.4359 25.9049Z" fill="white"/>
</svg>
