<svg width="101" height="100" viewBox="0 0 101 100" fill="none" xmlns="http://www.w3.org/2000/svg">
<rect x="0.5" width="100" height="100" rx="20" fill="black"/>
<path d="M68.0324 73.2026C67.5507 52.2881 82.524 46.7484 82.524 46.7484C83.1663 76.0126 68.0324 79.9064 68.0324 79.9867M54.424 43.9786C53.8219 46.7484 52.4169 49.2774 50.3696 51.2043C48.3223 49.2373 46.9173 46.7484 46.3151 43.9786C45.0306 45.9054 43.3044 47.5112 41.2571 48.6352C39.2099 49.7592 36.9217 50.3211 34.6336 50.3211C26.886 50.3211 20.3828 43.7377 20.3828 35.5486C20.3828 33.9027 20.704 32.2569 21.2258 30.6913C21.7076 28.5637 24.6781 23.1043 24.6781 23.1043C26.5648 20.0936 27.7691 16.6814 28.1304 13.1087C31.0207 14.9553 33.63 17.2033 35.878 19.7724C36.0787 19.933 36.2393 20.1337 36.3597 20.3344C40.2536 19.4111 52.0556 17.2836 63.978 20.7359C64.4196 20.4549 64.7809 20.1337 65.1421 19.7724C67.3099 17.123 69.9593 14.875 72.8897 13.1087C73.251 16.6413 74.4553 20.0534 76.342 23.1043C76.342 23.1043 79.3929 28.644 79.7943 30.6913C80.3563 32.297 80.5169 33.983 80.276 35.6289C80.276 43.6976 73.9334 50.4014 66.0253 50.4014C63.7371 50.3212 61.449 49.6789 59.4419 48.595C57.4347 47.5111 55.7086 45.9054 54.3839 43.9786H54.424ZM63.8977 66.0571C63.2153 65.3747 62.6934 64.5719 62.3321 63.6887C61.9709 62.8056 61.8103 61.8421 61.8504 60.8787L63.8174 64.4916L65.945 60.8787C65.8647 62.8056 65.102 64.612 63.8977 66.0571ZM63.8977 81.472C63.2153 80.7896 62.6934 79.9867 62.3321 79.1036C61.9709 78.2204 61.8103 77.257 61.8504 76.2936L63.8174 79.8261L65.945 76.2936C65.945 76.2936 65.8647 79.1839 63.8977 81.472ZM58.5587 68.546L60.5257 72.1589L62.6533 68.546C62.4526 70.4327 61.7701 72.2392 60.606 73.7244C59.8834 73.0821 59.3616 72.2391 59.0003 71.356C58.639 70.4729 58.4784 69.5094 58.5587 68.546ZM57.3946 81.472C56.7121 80.7896 56.1903 79.9867 55.829 79.1036C55.4677 78.2204 55.3071 77.257 55.3473 76.2936L57.3143 79.8261L59.4419 76.2936C59.3214 78.1803 58.5989 80.0269 57.3946 81.472ZM55.3473 60.7984L57.3143 64.4113L59.4419 60.7984C59.2411 62.6852 58.5587 64.4916 57.3946 65.9769C56.672 65.3346 56.1501 64.4916 55.7888 63.6084C55.4276 62.7253 55.267 61.7619 55.3473 60.7984ZM52.2964 68.546L54.2634 72.1589L56.4311 68.546C56.2304 70.4327 55.548 72.2392 54.3839 73.7244C53.6613 73.0821 53.1394 72.2391 52.7781 71.356C52.4168 70.4729 52.2563 69.5094 52.3366 68.546M50.8513 81.472C50.1689 80.7896 49.647 79.9867 49.2857 79.1036C48.9244 78.2204 48.7639 77.257 48.804 76.2936L50.771 79.8261L52.8986 76.2936C52.738 78.1803 52.0154 79.9867 50.8513 81.472ZM48.7638 60.7984L50.7309 64.4113L52.8584 60.7984C52.6978 62.6852 51.9753 64.4916 50.8111 65.9769C50.0886 65.3346 49.5667 64.4916 49.2054 63.6084C48.8441 62.7253 48.6836 61.7619 48.7638 60.7984ZM45.6327 68.546L47.5997 72.1589L49.7273 68.546C49.5667 70.4327 48.8441 72.2392 47.68 73.7244C46.9574 73.0821 46.4356 72.2391 46.0743 71.356C45.713 70.4729 45.5524 69.5094 45.6327 68.546ZM44.308 81.472C43.6256 80.7896 43.1037 79.9867 42.7424 79.1036C42.3811 78.2204 42.2206 77.257 42.2607 76.2936L44.2277 79.8261L46.3553 76.2936C46.1947 78.1803 45.4721 79.9867 44.308 81.472ZM42.2607 60.7984L44.2277 64.4113L46.3553 60.7984C46.1947 62.6852 45.4721 64.4916 44.308 65.9769C43.5854 65.3346 43.0636 64.4916 42.7023 63.6084C42.341 62.7253 42.1804 61.7619 42.2607 60.7984ZM39.0493 68.546L41.0163 72.1589L43.1439 68.546C42.9431 70.4327 42.2607 72.2392 41.0966 73.7244C40.374 73.0821 39.8521 72.2391 39.4909 71.356C39.1296 70.4729 38.969 69.5094 39.0493 68.546ZM35.6773 60.7984L37.6443 64.4113L39.7718 60.7984C39.6113 62.6852 38.8887 64.4916 37.7246 65.9769C37.0421 65.2944 36.5203 64.4916 36.159 63.6084C35.7977 62.7253 35.6371 61.7619 35.6371 60.7984H35.6773ZM37.8048 81.472C37.1224 80.7896 36.6006 79.9867 36.2393 79.1036C35.878 78.2204 35.7174 77.257 35.7576 76.2936L37.7246 79.8261L39.8521 76.2936C39.6916 78.1803 38.969 79.9867 37.8048 81.472ZM32.9476 79.9867C32.9476 79.9867 17.8538 76.0126 18.456 46.7484C18.456 46.7484 33.4694 52.2881 32.9476 73.2026M80.1556 20.4147C74.8166 12.0249 78.1083 6.24429 78.1083 6.24429C72.2474 6.40486 66.8281 10.7804 63.1751 14.6341C59.0003 13.8714 54.7451 13.5101 50.49 13.47C46.2349 13.47 41.9797 13.8313 37.8048 14.6341C34.2321 10.8607 28.7727 6.32458 22.8316 6.24429C22.8316 6.24429 26.1233 12.1052 20.7843 20.4147C13.5987 31.735 6.0117 70.6334 30.1777 83.8404C31.8236 85.0046 34.3124 85.8877 37.283 86.6504C37.4436 89.34 38.5676 91.869 40.4944 93.7557C41.9396 92.0296 42.9431 89.9421 43.3847 87.7343C45.7531 88.0554 48.1617 88.1759 50.5703 88.1357C52.5373 88.1357 54.6247 87.9751 56.4311 87.8146C56.7924 90.0626 57.8763 92.15 59.482 93.7557C61.0476 91.7887 62.0913 89.4604 62.5329 87.0117C66.0654 86.249 68.9557 85.2053 70.7621 83.9609C95.0084 70.7539 87.4214 31.8554 80.1556 20.495" fill="white"/>
<path d="M34.0716 38.7199C34.6737 38.7199 35.2759 38.4389 35.7174 37.9973C36.159 37.5557 36.3998 36.9536 36.3998 36.3514C36.3998 35.669 36.0787 35.0267 35.5568 34.545L34.9146 34.1436C34.6336 34.0633 34.3526 33.983 34.0716 33.983C33.4694 33.983 32.8673 34.264 32.4658 34.7056C32.0243 35.1472 31.8236 35.7493 31.8236 36.3514C31.8236 36.9536 32.0644 37.5557 32.4658 37.9973C32.9074 38.4389 33.4694 38.7199 34.0716 38.7199Z" fill="white"/>
<path d="M34.1117 42.3729C32.5461 42.3729 31.0608 41.6904 29.977 40.5664C28.8931 39.4424 28.3311 37.917 28.3311 36.3514C28.3311 35.4281 28.5318 34.4647 28.9734 33.6217C29.3748 32.7787 29.977 32.0562 30.7397 31.454L25.5613 28.1623C23.9957 30.2497 23.1527 32.8189 23.1527 35.4683C23.1527 42.0517 28.3311 47.4309 34.6737 47.4309C36.8816 47.4309 39.0493 46.7484 40.8959 45.5441C42.7424 44.3399 44.2277 42.6539 45.151 40.6467L39.812 37.2747C39.6514 38.6797 38.969 39.9643 37.9253 40.8876C36.8816 41.8109 35.5167 42.3327 34.1117 42.3729Z" fill="white"/>
<path d="M67.35 38.7199C67.9521 38.7199 68.5543 38.4389 68.9557 37.9973C69.3973 37.5557 69.598 36.9536 69.598 36.3514C69.598 35.7493 69.3571 35.1472 68.9557 34.7056C68.5141 34.264 67.9521 33.983 67.35 33.983C67.069 33.983 66.788 34.0633 66.507 34.1436L65.8647 34.545C65.5034 34.8661 65.2626 35.2676 65.1421 35.7493C65.0217 36.231 65.0217 36.7127 65.1823 37.1543C65.3428 37.5959 65.6239 37.9973 66.0253 38.2783C66.4267 38.5593 66.8683 38.7199 67.35 38.76V38.7199Z" fill="white"/>
<path d="M75.9406 28.2827L70.7621 31.5744C71.5249 32.1364 72.127 32.859 72.5284 33.702C72.9299 34.545 73.1707 35.4683 73.1306 36.4317C73.2109 37.917 72.689 39.3621 71.7256 40.4861C70.7621 41.6101 69.3571 42.2926 67.8719 42.4532C66.3866 42.5736 64.9013 42.132 63.7371 41.2087C62.573 40.2854 61.8103 38.9206 61.6497 37.4353L56.3107 40.8073C57.234 42.8144 58.7193 44.5004 60.5658 45.6646C62.4124 46.8689 64.5801 47.5112 66.7479 47.5513C73.0904 47.5513 78.2689 42.2123 78.2689 35.5887C78.2689 32.9393 77.466 30.3701 75.9004 28.2426" fill="white"/>
</svg>
