<svg width="101" height="100" viewBox="0 0 101 100" fill="none" xmlns="http://www.w3.org/2000/svg">
<rect x="0.5" width="100" height="100" rx="20" fill="black"/>
<g clip-path="url(#clip0_244_271)">
<path d="M21.9661 61.1005C22.8202 60.2487 22.3931 59.7163 21.8059 59.0774L22.927 60.1955L21.9661 61.1005Z" fill="white"/>
<path d="M83.5715 51.7303C83.4114 52.2627 82.7708 52.7419 82.3437 53.1678C71.7736 63.7625 61.1501 74.3572 50.5266 84.9519C49.0853 86.3894 49.0853 86.3361 47.6439 84.8987C41.825 79.0955 36.0061 73.2924 30.1872 67.4893L28.6391 65.8921L22.927 60.1954L21.8059 59.0774C19.884 57.214 17.9622 55.3506 16.0938 53.4872C15.5599 52.9548 15.0795 52.4224 14.599 51.89C14.6524 51.7303 14.7058 51.6238 14.7592 51.4641C17.9088 51.4641 21.0585 51.3576 24.2082 51.4641C25.0089 51.5173 25.8097 52.5289 26.5037 53.1678C27.7849 54.4455 28.1586 54.765 29.0128 54.1261L28.0518 55.0312L33.7106 60.7278L35.152 59.2904C34.191 60.2487 34.0843 60.7811 35.0986 61.7926C39.3159 65.8388 43.4265 70.0448 47.5905 74.1975C48.6582 75.2623 49.7259 75.28 50.7936 74.2507C58.0005 67.0634 65.2607 59.876 72.4142 52.6886C73.3751 51.7303 74.336 51.3044 75.6707 51.3576C77.0053 51.4109 78.3399 51.3576 79.6211 51.4109C80.9023 51.4109 82.3971 51.0914 83.5715 51.6771V51.7303Z" fill="#0576F0"/>
<path d="M93.2341 23.1938C92.7537 26.3349 92.1664 29.4761 91.5792 32.564C91.3123 34.0547 90.6717 34.2677 89.5506 33.1496C88.6431 32.1381 88.0025 32.2978 87.1483 33.2029L79.1407 41.1888C78.3933 41.881 78.2331 42.4134 78.9271 43.1587L71.3466 35.5987C72.3075 36.557 72.4676 36.3973 73.7489 35.1195C76.2579 32.6705 78.767 30.115 81.3294 27.6659C82.237 26.7609 82.664 26.0155 81.4362 25.004C80.6354 24.3118 80.3151 23.7262 81.8633 23.46C85.0129 22.8744 88.1092 22.0758 91.2589 21.4369C93.2341 21.0642 93.501 21.2239 93.2341 23.1938Z" fill="white"/>
<path d="M69.8518 50.3994C63.3923 56.8414 56.9328 63.2834 50.5267 69.7254C49.459 70.7902 48.6582 70.524 47.7507 69.5657C44.3875 66.1583 40.9175 62.8042 37.5543 59.3436C36.7001 58.4918 36.1129 58.3853 35.152 59.3436L27.518 67.0102L26.9842 67.5426C24.5285 69.9384 22.1262 72.3341 19.7239 74.7832C18.8164 75.7415 17.8021 76.2206 16.4675 76.1674C13.905 76.1674 11.396 76.1674 8.83351 76.1674C8.45982 76.1674 8.03275 75.9012 7.65906 75.7947C7.81921 75.422 7.92598 74.9961 8.1929 74.7299C10.3283 72.5471 12.517 70.3643 14.7058 68.2347C16.2005 66.744 17.7487 65.2 19.2968 63.7093L21.9661 61.1538L29.0128 54.2326L30.0271 53.2743C31.682 51.5706 33.4437 49.9202 35.0452 48.1633C36.0595 46.992 36.7001 47.0985 37.7144 48.2165C40.9709 51.5706 44.3341 54.8183 47.6439 58.1191C48.676 59.1129 49.7437 59.0774 50.847 58.0126C55.1177 53.7535 59.4418 49.4943 63.7126 45.1819C64.6735 44.259 65.6344 44.2768 66.5953 45.2351C67.663 46.2999 68.7307 47.4712 69.8518 48.4827C70.6525 49.2281 70.5992 49.7072 69.8518 50.4526V50.3994Z" fill="white"/>
<path d="M93.2341 23.1938C92.7537 26.3349 92.1664 29.4761 91.5792 32.564C91.3123 34.0547 90.6717 34.2677 89.5506 33.1496C88.6431 32.1381 88.0025 32.2978 87.1483 33.2029L79.1407 41.1888C78.3933 41.881 78.2331 42.4134 78.9271 43.1587L71.3466 35.5987C72.3075 36.557 72.4676 36.3973 73.7489 35.1195C76.2579 32.6705 78.767 30.115 81.3294 27.6659C82.237 26.7609 82.664 26.0155 81.4362 25.004C80.6354 24.3118 80.3151 23.7262 81.8633 23.46C85.0129 22.8744 88.1092 22.0758 91.2589 21.4369C93.2341 21.0642 93.501 21.2239 93.2341 23.1938Z" fill="white"/>
<path d="M83.5715 47.897C83.5715 47.897 83.4114 48.2165 83.358 48.3762C80.3151 48.3762 77.2722 48.4827 74.2827 48.323C73.5887 48.2697 72.8947 47.5776 72.3608 47.0452C65.3675 40.0708 58.3741 33.0964 51.3808 26.122C49.192 23.9391 49.2454 23.9391 47.0033 26.1752C39.9566 33.1496 32.9098 40.1773 25.9165 47.2049C25.0623 48.0568 24.1548 48.4827 22.9804 48.4294C20.2578 48.3762 17.5352 48.4294 14.3321 48.4294C14.9193 47.6841 15.1862 47.2582 15.5599 46.9387C26.2902 36.1843 37.0738 25.4831 47.7507 14.7287C48.8717 13.6106 49.5124 13.8236 50.4733 14.7819C57.2531 21.5966 64.0863 28.3581 70.8661 35.1195L71.3465 35.5987L78.9271 43.1587L79.1406 43.4249C80.6354 44.8624 82.0768 46.4063 83.5715 47.897Z" fill="#0576F0"/>
</g>
<defs>
<clipPath id="clip0_244_271">
<rect width="85.6818" height="72.0334" fill="white" transform="translate(7.65906 13.9833)"/>
</clipPath>
</defs>
</svg>
