<svg width="101" height="100" viewBox="0 0 101 100" fill="none" xmlns="http://www.w3.org/2000/svg">
<rect x="0.5" width="100" height="100" rx="20" fill="black"/>
<path d="M77.526 54.3979C75.661 54.4047 73.7892 54.3162 71.9379 54.4251C70.5494 54.5 69.8823 53.9487 69.542 52.6555C68.6776 49.4428 67.0781 46.6386 64.8115 44.1814C57.8213 36.6127 44.7189 36.3268 37.3339 43.5008C34.5228 46.2302 32.6715 49.3884 31.6097 53.1183C31.4667 53.6288 30.7112 54.3026 30.2144 54.3299C27.5666 54.4456 24.9121 54.3707 22.2576 54.3911C20.8759 54.4047 20.767 53.5403 20.767 52.4717C20.7806 46.0872 20.7738 39.7028 20.7738 33.3184C20.7738 26.9339 20.767 20.7741 20.7806 14.4985C20.7806 12.4838 21.2775 12.1707 23.0812 13.0351C28.2813 15.5399 31.2149 19.474 30.9971 25.4569C30.9154 27.6554 30.9563 29.8607 31.0107 32.066C31.0584 34.0943 31.5552 34.3189 33.393 33.3932C35.9454 32.1 38.4297 30.5481 41.1251 29.6701C50.6065 26.6004 59.6386 27.7847 67.8948 33.4409C74.2589 37.8038 78.1454 43.95 79.9354 51.4303C80.5344 53.9487 80.1601 54.3911 77.526 54.3979Z" fill="#0FA4FA"/>
<path d="M80.4595 62.0007C78.9281 71.4072 74.0547 78.6221 65.8189 83.2164C55.0443 89.2197 44.2561 88.716 33.7741 82.175C33.2909 81.8823 32.8348 81.5556 32.3516 81.2562C32.2699 81.2017 32.1406 81.2221 31.5348 81.1268C31.5348 82.3656 31.5484 83.4614 31.5348 84.5641C31.5076 86.4359 30.9495 86.9123 29.3023 86.2181C25.4294 84.5913 22.5231 81.8892 21.2843 77.8121C20.7126 75.9131 20.6037 73.8303 20.5356 71.8224C20.4199 68.4328 20.5356 65.0432 20.4879 61.6536C20.4743 60.4829 20.8759 60.0609 22.067 60.1017C24.776 60.1902 27.485 60.197 30.1939 60.1766C31.1877 60.1698 31.6437 60.4829 31.9296 61.5243C34.3459 70.2161 40.8801 75.7565 49.3269 76.4032C58.4407 77.0906 66.8058 71.1826 69.1132 62.3206C69.542 60.6803 70.2567 60.0132 72.0127 60.1426C74.2589 60.3127 76.5254 60.2378 78.7852 60.1698C80.1464 60.1289 80.7114 60.4488 80.4595 62.0007Z" fill="white"/>
</svg>
