<svg width="101" height="100" viewBox="0 0 101 100" fill="none" xmlns="http://www.w3.org/2000/svg">
<rect x="0.5" width="100" height="100" rx="20" fill="white"/>
<path d="M26.1029 59.0533C25.6914 59.0439 25.3568 58.7187 25.3339 58.3086V43.587C25.3676 43.0217 24.9373 42.5373 24.372 42.5036C24.3639 42.5036 24.3558 42.5036 24.3477 42.5036H20.5432C20.1357 42.4577 19.8268 42.1178 19.82 41.7076C19.8268 41.3015 20.1398 40.9697 20.5432 40.9373H31.5628C31.9716 40.9346 32.3062 41.2638 32.3089 41.6725C32.3089 41.6833 32.3089 41.6955 32.3089 41.7063C32.3291 42.1245 32.008 42.4807 31.5898 42.5009C31.5817 42.5009 31.5723 42.5009 31.5642 42.5009H26.826V58.3099C26.8085 58.7039 26.4996 59.0236 26.1056 59.0547" fill="#0F2C52"/>
<path d="M18.2443 59.0627C17.9542 59.0506 17.6952 58.8752 17.5791 58.6081L12.0113 45.4204C11.8737 45.1533 11.6066 44.9779 11.3071 44.959C10.9374 44.9954 10.6204 45.2383 10.4882 45.585L5.03365 58.6202C4.85826 58.9926 4.4171 59.1572 4.04069 58.9899C3.66698 58.8401 3.4808 58.4179 3.62381 58.0401L10.6258 41.4284C10.7296 41.1396 11.0062 40.9481 11.3138 40.9535C11.6336 40.9697 11.9128 41.1734 12.0262 41.4729L18.9606 58.032C19.0402 58.2155 19.0402 58.4233 18.9606 58.6054C18.8851 58.7727 18.7529 58.9076 18.5856 58.9845C18.479 59.0317 18.363 59.0587 18.247 59.0627" fill="#0F2C52"/>
<path d="M4.19584 53.3384C3.73444 53.3168 3.37827 52.9256 3.39986 52.4642C3.42009 52.0338 3.76412 51.6898 4.19584 51.6682H14.6516L15.3558 53.3384H4.19584Z" fill="#F2672A"/>
<path d="M44.2338 43.5235H37.2156C37.0443 43.5235 36.9013 43.5802 36.7893 43.6922C36.6773 43.8042 36.6207 43.9485 36.6207 44.1185V56.4576C36.6207 56.6289 36.6773 56.7719 36.7893 56.8839C36.9013 56.9959 37.0511 57.0526 37.2359 57.0526C37.4072 57.0526 37.5502 56.9959 37.6622 56.8839C37.7742 56.7719 37.8308 56.6289 37.8308 56.4576V50.6523H43.3663C43.5376 50.6523 43.6806 50.5983 43.7926 50.4931C43.9046 50.3879 43.9613 50.2476 43.9613 50.0762C43.9613 49.9049 43.9046 49.7646 43.7926 49.658C43.6793 49.5528 43.5363 49.4988 43.3663 49.4988H37.8308V44.6959H44.2338C44.4051 44.6959 44.5481 44.6393 44.6601 44.5273C44.7721 44.4153 44.8288 44.2777 44.8288 44.1199C44.8288 43.9485 44.7721 43.8055 44.6601 43.6935C44.5481 43.5816 44.4038 43.5249 44.2338 43.5249V43.5235Z" fill="#F2672A"/>
<path d="M53.8557 47.2255C53.6844 47.2255 53.5414 47.2822 53.4294 47.3942C53.3174 47.5062 53.2608 47.6492 53.2608 47.8205V53.2575C53.2608 54.1735 53.0125 54.8805 52.5241 55.3567C52.0344 55.8329 51.3356 56.0744 50.4438 56.0744C49.552 56.0744 48.8761 55.8329 48.3931 55.3567C47.9101 54.8805 47.666 54.1749 47.666 53.2575V47.8205C47.666 47.6492 47.6093 47.5062 47.4973 47.3942C47.3853 47.2822 47.241 47.2255 47.071 47.2255C46.901 47.2255 46.7566 47.2822 46.6447 47.3942C46.5327 47.5062 46.476 47.6492 46.476 47.8205V53.2575C46.476 54.5162 46.8308 55.497 47.5324 56.1716C48.2326 56.8461 49.2134 57.1888 50.4465 57.1888C51.6796 57.1888 52.682 56.8461 53.3889 56.1716C54.0959 55.4957 54.4547 54.5162 54.4547 53.2575V47.8205C54.4547 47.6505 54.3981 47.5062 54.2861 47.3942C54.1741 47.2822 54.0298 47.2255 53.8598 47.2255H53.8557Z" fill="#F2672A"/>
<path d="M64.271 47.9945C63.7111 47.293 62.8207 46.9368 61.6253 46.9368C60.944 46.9368 60.2695 47.123 59.6205 47.4886C58.9918 47.8434 58.4981 48.2913 58.1513 48.8229V47.8205C58.1513 47.6492 58.0947 47.5062 57.9827 47.3942C57.8707 47.2822 57.7264 47.2255 57.5564 47.2255C57.3864 47.2255 57.242 47.2822 57.1301 47.3942C57.0181 47.5062 56.9614 47.6492 56.9614 47.8205V56.4576C56.9614 56.6289 57.0181 56.7733 57.1301 56.8839C57.242 56.9959 57.385 57.0526 57.5564 57.0526C57.7277 57.0526 57.8707 56.9959 57.9827 56.8839C58.0947 56.7719 58.1513 56.6289 58.1513 56.4576V50.8466C58.1513 50.3515 58.3065 49.8847 58.6114 49.4583C58.9176 49.032 59.321 48.6866 59.8108 48.4317C60.3005 48.1767 60.8267 48.0485 61.3744 48.0485C62.2392 48.0485 62.8868 48.3089 63.2983 48.8229C63.7111 49.3383 63.9215 50.0182 63.9215 50.8466V56.4576C63.9215 56.6289 63.9782 56.7719 64.0902 56.8839C64.2022 56.9959 64.3452 57.0526 64.5165 57.0526C64.6744 57.0526 64.8147 56.9959 64.9334 56.8839C65.0521 56.7719 65.1128 56.6289 65.1128 56.4562V50.7872C65.1128 49.6324 64.8295 48.6907 64.271 47.9905V47.9945Z" fill="#F2672A"/>
<path d="M76.0691 42.9218C75.9557 42.8099 75.8127 42.7532 75.6427 42.7532C75.4727 42.7532 75.3284 42.8099 75.2164 42.9218C75.1044 43.0338 75.0478 43.1782 75.0478 43.3482V48.9322C74.7145 48.3534 74.2302 47.8745 73.6083 47.5075C72.9647 47.1284 72.2551 46.9368 71.4982 46.9368C70.6631 46.9368 69.8914 47.1621 69.2047 47.6046C68.518 48.0472 67.9676 48.6691 67.5696 49.4529C67.1716 50.2354 66.9706 51.1205 66.9706 52.0824C66.9706 53.0443 67.1729 53.9496 67.5696 54.7321C67.9676 55.5159 68.518 56.1365 69.2047 56.5804C69.8914 57.0242 70.6699 57.2482 71.5185 57.2482C72.2888 57.2482 73.0025 57.0391 73.6393 56.6276C74.2545 56.2309 74.728 55.7426 75.0491 55.1759V56.4589C75.0491 56.6303 75.1058 56.7746 75.2178 56.8853C75.3297 56.9972 75.4727 57.0539 75.6441 57.0539C75.8154 57.0539 75.9584 56.9972 76.0704 56.8853C76.1824 56.7733 76.2391 56.6303 76.2391 56.4589V43.3482C76.2391 43.1782 76.1824 43.0338 76.0704 42.9218H76.0691ZM75.1233 52.0824C75.1233 52.8473 74.9722 53.5475 74.6727 54.1668C74.3732 54.7847 73.9536 55.2717 73.4248 55.6157C72.8959 55.9598 72.2929 56.1338 71.6318 56.1338C70.9707 56.1338 70.3663 55.9557 69.8388 55.6063C69.31 55.2569 68.8904 54.7685 68.5909 54.1573C68.2914 53.5462 68.1403 52.8487 68.1403 52.0824C68.1403 51.3161 68.2914 50.6388 68.5909 50.0277C68.8904 49.4165 69.31 48.9295 69.8388 48.5787C70.3663 48.2293 70.9694 48.0512 71.6318 48.0512C72.2942 48.0512 72.8973 48.2279 73.4248 48.5787C73.9536 48.9295 74.3732 49.4165 74.6727 50.0277C74.9722 50.6402 75.1233 51.3309 75.1233 52.0824Z" fill="#F2672A"/>
<path d="M84.7992 47.4792C84.1247 47.119 83.3908 46.9368 82.6217 46.9368C81.8528 46.9368 81.0891 47.1486 80.3957 47.5655C79.7009 47.9837 79.1383 48.5962 78.7214 49.3855C78.3032 50.1747 78.0927 51.1083 78.0927 52.1606C78.0927 53.2129 78.3073 54.0562 78.7309 54.8198C79.1545 55.5834 79.7535 56.1864 80.5117 56.61C81.2699 57.0337 82.155 57.2482 83.1425 57.2482C83.836 57.2482 84.5024 57.0849 85.1271 56.7638C85.749 56.4428 86.2725 56.0259 86.6826 55.5267C86.8135 55.3958 86.8809 55.2555 86.8809 55.1098C86.8809 54.9776 86.827 54.8575 86.7217 54.7509C86.6152 54.6457 86.4951 54.5918 86.3615 54.5918C86.228 54.5918 86.089 54.6511 85.9433 54.7725C85.6505 55.1665 85.2566 55.4957 84.7723 55.7507C84.2879 56.0056 83.7334 56.1338 83.1223 56.1338C82.3317 56.1338 81.6369 55.9557 81.0581 55.6063C80.4793 55.2569 80.0274 54.7725 79.7157 54.1668C79.4054 53.5664 79.2476 52.8784 79.2449 52.1188H86.5167C86.6745 52.1188 86.8148 52.0621 86.9322 51.9502C87.0523 51.8382 87.1116 51.7019 87.1116 51.5427C87.0981 50.593 86.8769 49.7592 86.4533 49.0657C86.0296 48.3723 85.4725 47.838 84.7979 47.4792H84.7992ZM85.8826 50.9059V51.0436H79.3461C79.5269 50.0978 79.9356 49.3626 80.5603 48.8566C81.1903 48.348 81.8838 48.089 82.6217 48.089C83.1304 48.089 83.6309 48.2023 84.1085 48.4249C84.5861 48.6475 84.9895 48.9767 85.3065 49.403C85.6236 49.8293 85.8178 50.3353 85.8812 50.9059H85.8826Z" fill="#F2672A"/>
<path d="M97.4324 42.9218C97.3191 42.8099 97.1761 42.7532 97.0061 42.7532C96.8361 42.7532 96.6904 42.8099 96.5784 42.9218C96.4665 43.0338 96.4098 43.1782 96.4098 43.3482V48.9322C96.0752 48.3534 95.5922 47.8745 94.9703 47.5075C94.3267 47.1284 93.6171 46.9368 92.8602 46.9368C92.0251 46.9368 91.2534 47.1621 90.5654 47.6046C89.8787 48.0472 89.3282 48.6691 88.9303 49.4529C88.5323 50.2354 88.3312 51.1205 88.3312 52.0824C88.3312 53.0443 88.5336 53.9496 88.9303 54.7321C89.3282 55.5159 89.8787 56.1365 90.5654 56.5804C91.2521 57.0242 92.0305 57.2482 92.8791 57.2482C93.6495 57.2482 94.3632 57.0391 95 56.6276C95.6138 56.2309 96.0887 55.7426 96.4098 55.1759V56.4589C96.4098 56.6303 96.4665 56.7746 96.5784 56.8853C96.6904 56.9972 96.8334 57.0539 97.0048 57.0539C97.1761 57.0539 97.3204 56.9972 97.4324 56.8853C97.5444 56.7733 97.6011 56.6303 97.6011 56.4589V43.3482C97.6011 43.1782 97.5444 43.0338 97.4324 42.9218ZM96.4867 52.0824C96.4867 52.8473 96.3356 53.5475 96.0361 54.1668C95.7366 54.7847 95.317 55.2717 94.7881 55.6157C94.2593 55.9598 93.6562 56.1338 92.9952 56.1338C92.3341 56.1338 91.7297 55.9557 91.2022 55.6063C90.6747 55.2569 90.2537 54.7685 89.9542 54.1573C89.6547 53.5462 89.5036 52.8487 89.5036 52.0824C89.5036 51.3161 89.6561 50.6388 89.9542 50.0277C90.2537 49.4165 90.6733 48.9295 91.2022 48.5787C91.7297 48.2293 92.3327 48.0512 92.9952 48.0512C93.6576 48.0512 94.2593 48.2279 94.7881 48.5787C95.317 48.9295 95.7366 49.4165 96.0361 50.0277C96.3356 50.6402 96.4867 51.3309 96.4867 52.0824Z" fill="#F2672A"/>
</svg>
