<svg width="101" height="100" viewBox="0 0 101 100" fill="none" xmlns="http://www.w3.org/2000/svg">
<rect x="0.5" width="100" height="100" rx="20" fill="black"/>
<path d="M88.9477 46.5512C88.7585 43.7678 88.3072 41.0333 87.5458 38.3524C85.4878 31.1115 81.7742 24.8729 76.2545 19.7251C74.1558 17.7686 71.8708 16.0723 69.4058 14.6087C69.0348 14.3881 68.8927 14.4518 68.7349 14.832C67.4798 17.8526 66.2071 20.8657 64.9419 23.8817C63.0712 28.342 61.2014 32.8031 59.3317 37.2643C59.0115 38.0294 58.6875 38.7926 58.3738 39.5604C58.1753 40.0449 58.2252 40.1086 58.7623 40.1178C58.9007 40.1197 59.0392 40.1178 59.1767 40.1178C63.9848 40.1178 68.793 40.1169 73.6012 40.1206C73.8753 40.1206 74.1605 40.1243 74.4216 40.1944C76.2028 40.6734 76.8396 42.6724 75.7349 44.2671C72.4734 48.9756 69.2111 53.6841 65.9533 58.3963C62.1022 63.9668 58.2556 69.5409 54.4063 75.1133C51.299 79.6113 48.1917 84.1094 45.0862 88.6085C45.0225 88.7017 44.9838 88.8115 44.8869 89.0071C45.6445 89.0957 46.3219 89.1816 47.0021 89.2517C47.6703 89.3209 48.3412 89.3726 49.0103 89.4326H52.053C52.9657 89.3449 53.8812 89.2692 54.7921 89.1668C59.4535 88.6389 63.8492 87.2611 67.9993 85.0702C72.4716 82.7085 76.3043 79.567 79.5657 75.7159C82.2467 72.5495 84.3702 69.038 85.952 65.2071C88.4216 59.2287 89.386 53.0039 88.9486 46.5512H88.9477Z" fill="#F7CE44"/>
<path d="M44.8444 52.8295C40.6961 52.8295 36.5478 52.8332 32.4004 52.8267C30.873 52.8249 29.8578 51.9362 29.713 50.4217C29.6733 50.012 29.796 49.5681 29.9197 49.1629C31.9094 42.641 33.9102 36.1218 35.9119 29.6035C37.765 23.5698 39.6228 17.5369 41.4759 11.5032C41.5627 11.2199 41.6273 10.9301 41.7214 10.5674C41.4667 10.6209 41.3033 10.6468 41.1446 10.6883C38.2062 11.4607 35.3951 12.5534 32.7178 13.9996C29.8643 15.5417 27.2387 17.4022 24.866 19.6051C21.9331 22.3276 19.4497 25.4174 17.4498 28.8929C14.4218 34.1551 12.6259 39.7976 12.1193 45.8489C12.0713 46.4266 12.0067 47.0043 11.9495 47.5811V51.2689C11.9771 51.4184 12.0168 51.5661 12.0307 51.7165C12.1359 52.8775 12.1848 54.0449 12.3481 55.1976C13.0477 60.1433 14.5769 64.8177 16.9884 69.2013C19.6527 74.0446 23.1532 78.168 27.5257 81.5494C30.8979 84.1565 34.618 86.1176 38.6473 87.501C39.1826 87.6847 39.2278 87.6597 39.3339 87.0866C39.524 86.0604 39.7077 85.0323 39.8941 84.0051C41.0616 77.5533 42.229 71.1024 43.3973 64.6506C44.0701 60.9342 44.7466 57.2178 45.4157 53.5004C45.5356 52.8351 45.5218 52.8304 44.8453 52.8304L44.8444 52.8295Z" fill="#F7CE44"/>
</svg>
