<svg width="101" height="100" viewBox="0 0 101 100" fill="none" xmlns="http://www.w3.org/2000/svg">
<rect x="0.5" width="100" height="100" rx="20" fill="#0217A8"/>
<path d="M59.6467 75.8913C61.3846 72.7578 62.8024 68.961 64.1744 66.5137C67.6273 66.5137 68.5648 66.5137 72.5894 66.5137C65.272 54.2085 58.3891 42.6352 50.6601 29.6895C46.4526 36.4597 42.8853 42.2006 38.7236 48.8793C36.5741 45.6772 34.9048 43.1841 32.8925 40.165C38.6321 30.5587 44.2573 21.1354 50.5457 10.5913C63.8542 32.823 76.4767 53.9111 89.6252 75.8913H59.6467ZM38.6778 89.3858C45.012 78.6588 50.5457 69.327 56.171 59.8121C54.1816 56.8616 52.4665 54.3228 50.3628 51.2122C46.2239 57.7765 42.6109 63.5174 38.472 70.1046C34.2188 63.1515 30.743 57.4563 26.5584 50.6404C21.1618 59.6978 16.497 67.4972 11.3748 76.0971H23.0598C24.3861 73.8785 25.0263 72.9636 26.8785 70.2418C30.9717 76.8748 34.5161 82.6385 38.6778 89.4087V89.3858Z" fill="white"/>
</svg>
