<svg width="101" height="100" viewBox="0 0 101 100" fill="none" xmlns="http://www.w3.org/2000/svg">
<rect x="0.5" width="100" height="100" rx="20" fill="black"/>
<path d="M68.8768 24.9188L64.0592 20.0469C56.2753 12.1742 43.6542 12.1742 35.8699 20.0469C28.0856 27.9196 28.0856 40.6838 35.8699 48.5565L43.8986 56.6762L40.6871 59.9244L32.6584 51.8042C23.1005 42.1379 23.1005 26.4655 32.6584 16.799C42.2164 7.13252 57.7128 7.13252 67.2709 16.799L75.2998 24.9188L63.8809 36.467L55.8525 28.3472C52.6008 25.0586 47.3287 25.0586 44.077 28.3472C40.8253 31.6358 40.8253 36.9677 44.077 40.2562L60.1342 56.4961C65.1597 61.5781 65.1597 69.8183 60.1342 74.9008C55.1092 79.9832 46.9613 79.9832 41.936 74.9008L37.1188 70.0289L32.1232 75.0813L36.9404 79.9532C44.7247 87.8259 57.3457 87.8259 65.1301 79.9532C72.9141 72.0805 72.9141 59.3163 65.1301 51.4436L57.1013 43.3237L60.3125 40.0758L68.3414 48.1956C77.8995 57.8623 77.8995 73.5346 68.3414 83.201C58.7832 92.8675 43.2869 92.8675 33.729 83.201L25.7003 75.0813L37.1188 63.5332L45.1475 71.653C48.3992 74.9412 53.6712 74.9412 56.9229 71.653C60.1746 68.3643 60.1746 63.0326 56.9229 59.7439L40.8655 43.5042C35.8402 38.4218 35.8402 30.1816 40.8655 25.0992C45.8909 20.0169 54.0387 20.0169 59.0638 25.0992L63.8809 29.9711L68.8768 24.9188Z" fill="#9FE870"/>
</svg>
