<svg width="101" height="100" viewBox="0 0 101 100" fill="none" xmlns="http://www.w3.org/2000/svg">
<rect x="0.5" width="100" height="100" rx="20" fill="black"/>
<path d="M89.2083 43.6301C89.2132 43.6358 89.2089 43.6446 89.2013 43.6441C87.7591 43.5445 86.3082 43.4911 84.875 43.545C82.657 43.6146 81.2528 42.849 80.4121 41.0238C79.5624 39.1677 78.355 37.4276 77.4785 35.5715C76.4321 33.3906 74.6881 32.0758 72.0497 31.4726C69.143 30.8152 66.3167 29.9568 63.4369 29.2298C61.8985 28.8431 60.5212 28.2786 59.7342 27.018C57.7792 23.8832 55.6791 20.8153 53.7031 17.6905C51.8144 14.7036 45.9912 12.6098 44.029 15.5488C40.3889 21.0398 35.3893 24.8525 27.966 25.9739C25.8553 26.2987 24.7105 27.5361 24.1113 29.3149C22.7965 33.2514 21.2493 37.126 19.9792 41.0625C19.4069 42.8258 18.271 43.5218 16.2587 43.5218C14.5236 43.5218 12.7796 43.6301 11.0534 43.7615C10.4721 43.8002 9.83706 44.0554 9.89967 44.6664C9.96228 45.2851 10.6241 45.4011 11.2054 45.4243C13.4235 45.4862 15.6505 45.5558 17.8685 45.5326C19.6752 45.5094 20.9631 46.2054 22.1079 47.35C26.3114 51.5494 29.4954 56.1123 29.558 61.8972C29.567 62.802 29.871 63.7146 30.0678 64.6117C30.3093 65.6712 30.9532 66.5374 32.2143 66.7694C36.3821 67.5351 37.8488 70.2342 38.7074 73.3973C39.5213 76.4057 40.3173 79.4141 41.167 82.4225C41.4084 83.2733 41.8288 84.704 43.1167 83.5749C45.3348 81.6492 45.9877 83.2191 46.9178 84.4797C47.5975 85.4 48.2057 86.3435 48.9033 87.2561C50.3611 89.1509 50.9067 89.1432 52.2751 87.1247C55.2623 82.7319 58.2137 78.3237 61.2009 73.9386C61.827 73.0183 62.3189 71.7886 63.7767 71.7654C65.5834 71.7422 65.9858 70.675 66.4867 69.5845C69.9389 62.1137 74.0531 54.9523 78.9632 48.1156C80.3763 46.1358 81.9862 45.2696 84.5977 45.4707C86.1271 45.5944 87.6923 45.5016 89.2306 45.463C89.9819 45.4398 91.0194 45.5635 91.0998 44.6741C91.1885 43.6005 90.0196 43.6751 89.2151 43.6161C89.2076 43.6156 89.2034 43.6244 89.2083 43.6301ZM60.9773 43.4677C56.3445 43.545 51.7116 43.4986 47.0609 43.5063H43.6127C43.5956 43.5063 43.5818 43.5202 43.5818 43.5373C43.5818 43.5543 43.5679 43.5682 43.5508 43.5682C38.0518 43.5679 32.5528 43.4988 27.0627 43.5991C24.6568 43.6378 23.8966 42.9959 24.5763 40.931C25.6585 37.6441 26.5976 34.3109 27.5546 30.9854C27.9123 29.7403 28.6636 28.7349 30.1841 28.6343C36.9097 28.1935 40.8539 24.489 44.1452 19.9571C44.4493 19.5317 44.8071 19.1373 45.1648 18.7429C45.5136 18.3562 45.7909 17.6911 46.4259 17.8458C47.2755 18.0468 46.9715 18.8279 46.9715 19.3693C47.0072 22.8727 46.9804 26.3838 46.9983 29.8872C46.9983 33.785 47.1146 33.8855 51.2913 34.9373C53.241 35.4246 55.1103 36.1593 57.0779 36.5537C59.913 37.1105 61.5408 38.6727 62.7035 40.8227C63.8036 42.8335 63.5352 43.4135 60.9773 43.4677Z" fill="#E9AC28"/>
</svg>
