<svg width="101" height="100" viewBox="0 0 101 100" fill="none" xmlns="http://www.w3.org/2000/svg">
<rect x="0.5" width="100" height="100" rx="20" fill="#0F0A4A"/>
<path d="M90.0056 16.3437C84.5948 16.3159 79.1841 16.295 73.7803 16.2603C62.9589 16.2185 52.1513 16.1698 41.3437 16.1003C40.0881 16.1003 38.6453 16.0586 37.3273 15.7804C35.5792 15.4048 33.8727 15.217 32.2495 15.217C27.6435 15.217 23.627 16.6984 20.3182 19.6266C15.6636 23.7441 11.55 28.5084 8.06774 32.6468C5.73697 35.4149 6.18786 38.9134 9.24007 41.7859C10.1627 42.6623 10.8078 43.5456 11.0853 44.3246C11.3835 45.1731 12.0079 46.9189 13.7768 46.9189C13.9849 46.9189 14.186 46.898 14.408 46.8493C15.393 50.9738 16.3226 54.8687 18.8823 58.1933C19.9644 59.6052 21.0327 61.0241 22.1009 62.4429C23.9808 64.9259 25.9162 67.5133 27.9348 69.9824C28.8782 71.1508 30.4113 71.8116 31.7778 72.3472C33.075 72.8618 34.4277 73.1539 35.7526 73.4461L36.4879 73.606C37.2302 73.766 37.9863 73.8564 38.7077 73.9468C39.0268 73.9747 39.3598 74.0164 39.6927 74.0651L41.1287 74.2668L40.8165 72.8479C40.6362 72.055 40.4627 71.3178 40.3032 70.5736C41.3437 71.5264 42.3981 72.4863 43.4456 73.4391C47.1221 76.7985 50.9235 80.2691 54.6277 83.705C55.1272 84.171 55.9041 84.7831 56.8683 84.7831C57.9019 84.7831 58.7135 84.1015 59.2962 83.4964C66.8643 75.7761 74.9526 67.6246 84.7544 57.8455C86.0099 56.5866 86.558 55.2095 86.5441 53.3803C86.4747 49.8818 86.4955 46.3277 86.5163 42.8918V41.1321C86.5233 40.993 86.5371 40.847 86.5441 40.7009C87.4944 41.6399 88.4101 42.5301 89.2911 43.4065L92.1213 46.1955L92.5861 46.6615L93.1896 46.4181L93.474 46.3068L93.7237 46.2094L94.3688 45.959V42.5997C94.3688 38.976 94.3758 35.3454 94.3896 31.7217C94.3966 28.098 94.4104 24.4744 94.4104 20.8438C94.4174 16.8515 93.9665 16.3855 90.0264 16.3646L90.0056 16.3437ZM93.3907 20.8229C93.3838 28.0772 93.363 35.3245 93.3491 42.5788V45.2566C93.1688 45.3261 92.9953 45.3957 92.815 45.4652C90.5952 43.2813 88.3823 41.0904 85.781 38.5309C85.6492 39.7272 85.5105 40.4227 85.5105 41.1182C85.4897 45.2009 85.4481 49.2906 85.5313 53.3733C85.5521 54.8896 85.129 56.0302 84.033 57.1152C75.5006 65.6284 67.003 74.1694 58.5748 82.773C57.9297 83.4268 57.4025 83.7607 56.8614 83.7607C56.3828 83.7607 55.8902 83.4964 55.3075 82.9539C50.2783 78.2869 45.1936 73.6686 40.1367 69.0365C39.8384 68.7652 39.5054 68.5357 38.68 67.8889C39.1239 69.8711 39.443 71.3108 39.8315 73.0496C38.7563 72.8966 37.7157 72.8201 36.7099 72.5975C35.1769 72.2567 33.6022 71.9646 32.1455 71.3873C30.9107 70.9074 29.5095 70.3023 28.7117 69.3216C25.5902 65.4893 22.6975 61.4761 19.68 57.5603C17.0301 54.1175 16.2046 49.9861 15.1225 45.4861C14.5814 45.7782 14.1375 45.8965 13.7768 45.8965C12.875 45.8965 12.431 45.0896 12.0287 43.9629C11.6402 42.864 10.787 41.8485 9.91988 41.0348C7.46424 38.7187 6.70119 35.8253 8.82386 33.2866C12.6252 28.7657 16.5584 24.2727 20.9772 20.3638C21.5876 19.8213 22.2189 19.3345 22.8709 18.9032C23.3149 18.6181 23.7519 18.3607 24.2028 18.1173C24.8757 17.7556 25.5763 17.4566 26.2769 17.1992C26.7486 17.0253 27.2273 16.8793 27.7198 16.7541C28.684 16.5037 29.6898 16.3437 30.7026 16.2603C31.2021 16.2185 31.7154 16.1977 32.2357 16.1977C33.8242 16.1977 35.4474 16.3854 37.1053 16.7402C38.4719 17.0323 39.9147 17.081 41.3229 17.081C57.5412 17.1783 73.7595 17.2409 89.9847 17.3244C93.3838 17.3453 93.3838 17.3522 93.3769 20.7951L93.3907 20.8229Z" fill="white"/>
<path d="M89.2009 18.6807C73.3225 18.632 57.4371 18.5903 41.5588 18.5207C40.4142 18.5138 39.2627 18.2912 38.125 18.0895C32.9848 17.2062 28.1499 17.4565 23.8837 19.6961C23.4328 19.9396 22.9819 20.19 22.5518 20.4821C21.3587 21.2471 20.2141 22.1861 19.132 23.3198C16.7457 25.8028 14.5676 28.4806 12.3061 31.0957C11.3419 32.2155 10.3777 33.3423 9.49673 34.5247C8.49089 35.8948 8.54639 37.3902 9.53835 38.7117C10.9327 40.5757 12.4796 42.3215 13.9849 44.1576C14.6092 43.8933 15.2682 43.6221 16.2324 43.2326C16.7943 47.9413 17.4671 52.3161 20.0546 55.9815C22.9542 60.0851 26.2284 63.9174 29.1141 68.028C31.4032 71.276 34.9757 70.2328 38.2083 71.8533C37.4938 68.9739 36.9666 66.8247 36.4324 64.6755C36.7238 64.4947 37.0151 64.3139 37.3134 64.133C37.9169 64.8981 38.4302 65.7397 39.1309 66.4004C44.5693 71.4638 50.0702 76.4438 55.4671 81.5419C56.6533 82.6478 57.3539 82.3696 58.3043 81.4028C66.4966 73.1122 74.7307 64.8703 82.8745 56.5379C83.5751 55.8146 84.0191 54.5487 84.0468 53.5194C84.1647 48.3447 84.0954 43.1839 84.1162 38.0231C84.1162 37.3207 84.1856 36.6112 84.2688 35.3454C86.9672 37.9884 89.3188 40.2836 91.6635 42.5718C91.8508 42.4536 92.038 42.3215 92.2253 42.1893C92.267 41.3964 92.3363 40.5896 92.3433 39.7967C92.3641 33.8013 92.3849 27.799 92.4057 21.7966C92.4126 18.6946 92.4057 18.6946 89.1939 18.6876L89.2009 18.6807ZM80.7033 29.3848V34.1352C80.7033 40.0541 80.7449 45.9799 80.6617 51.8988C80.6547 52.8725 80.3634 54.1106 79.7182 54.7783C73.1837 61.5109 66.5383 68.1601 59.9205 74.8232C59.6569 75.0875 59.3101 75.2544 58.5956 75.7274C58.5956 72.1941 58.5124 69.0643 58.658 65.9483C58.6997 65.2667 59.4419 64.5295 60.0038 63.9731C64.2075 59.8486 68.4736 55.7937 72.6565 51.6484C73.3156 51.0016 74.0508 50.0278 74.0717 49.1932C74.1827 42.544 74.1341 35.8879 74.1341 29.2874C69.9304 27.3677 69.1951 31.7704 66.3579 33.1614C66.3579 29.6212 66.3302 26.2758 66.3995 22.9512C66.4065 22.6521 67.0516 22.1026 67.4123 22.0957C74.4601 22.047 81.5149 22.0679 88.7361 22.0679V32.8415C86.0446 31.3809 84.8029 27.2147 80.7102 29.3917L80.7033 29.3848ZM29.7315 55.4042C30.4876 59.4869 33.4635 62.4777 32.6588 66.776C31.8958 65.8301 31.1119 64.8911 30.3696 63.9383C28.0527 60.9475 25.5416 58.082 23.4883 54.9243C20.7968 50.7651 18.8545 46.3207 20.3806 41.1113C20.7413 39.8732 20.6303 38.503 20.7899 36.5765C18.91 37.7867 16.7249 36.6877 15.8509 38.8091C14.8797 38.357 13.7906 38.037 12.9721 37.3902C12.6322 37.119 12.5836 36.02 12.8403 35.5401C13.2496 34.775 14.0681 34.2395 14.6647 33.5648C16.8428 31.1096 19.021 28.6614 21.1575 26.1923C26.9567 19.4597 38.2499 19.1188 43.3138 25.5872C45.6792 28.5988 46.3729 32.0486 45.4295 35.8392C43.7924 31.3114 41.2743 27.5277 36.3561 26.4983C33.4773 25.9071 30.3211 25.5107 27.4562 27.6668C28.136 27.8546 28.5869 27.9798 29.1002 28.1328C26.8735 32.5007 28.4967 36.6251 29.891 40.6939C30.4598 42.3562 31.6183 43.8447 32.6241 45.34C34.3791 47.9482 37.1331 48.8524 40.0396 49.3254C41.1356 49.5062 42.4605 49.8679 43.0432 48.3795C43.6259 46.9189 43.2721 45.5695 42.1692 44.4984C41.6073 43.9351 40.8859 43.5108 40.1714 42.9822C43.4109 42.1198 46.3452 44.0672 46.5741 47.1901C46.6643 48.2682 46.5116 49.3532 46.4908 50.4382C46.47 51.9197 46.6018 53.2759 47.5175 54.6531C48.2112 55.7172 48.4123 57.2961 48.3638 58.6384C48.2459 62.1021 47.8505 65.5519 47.573 69.0017C47.5452 69.4051 47.5105 69.8085 47.4551 70.5736C46.8654 70.038 46.4284 69.7389 46.1024 69.3564C43.6537 66.5674 41.0316 63.9035 38.8465 60.9267C36.5781 57.8386 33.075 57.2543 29.7315 55.4251V55.4042ZM48.2597 21.9288H55.6266C58.2071 21.9288 60.7876 21.9218 63.3543 21.9288C64.2907 21.9357 65.3035 21.887 65.3105 23.2363C65.3382 26.3662 65.3174 29.503 65.0468 32.8693C62.9519 29.496 60.3506 27.639 56.2232 29.2457V39.1082C58.8523 39.6507 61.4813 39.8037 64.2352 38.2944V46.7032C61.6478 46.4111 59.0465 46.119 56.0775 45.7852V77.6609C53.8092 75.9013 51.8738 74.6424 50.2853 73.0427C49.6055 72.3611 49.3835 70.97 49.3696 69.9059C49.3072 55.4181 49.3488 40.9374 49.2794 26.4427C49.2794 25.0934 48.6898 23.7441 48.2528 21.9218L48.2597 21.9288Z" fill="white"/>
</svg>
