<svg width="101" height="100" viewBox="0 0 101 100" fill="none" xmlns="http://www.w3.org/2000/svg">
<rect x="0.5" width="100" height="100" rx="20" fill="#052033"/>
<path d="M66.3581 36.2107V40.4654H57.3043V36.2107H51.7435V19.3873H57.6396V23.4327H71.4439L67.1965 19.5826L71.4439 15.7464H63.0188V11.701H49.8712V36.2107H43.7096V40.4654H34.6418V36.2107H26.4263V46.4219H26.4402L32.9232 52.9922V66.7048L50.5 77.209L68.0907 66.6909V52.9922L74.5597 46.4219H74.5736V36.2107H66.3581ZM47.5239 66.7606L48.6836 62.5478C47.3982 61.9061 46.5319 60.5669 46.5319 59.0325C46.5319 56.8563 48.3064 55.0847 50.5139 55.0847C52.7215 55.0847 54.4959 56.8563 54.4959 59.0325C54.4959 60.5669 53.6297 61.8922 52.3443 62.5478L53.5039 66.7606H47.5239Z" fill="white"/>
<path d="M50.5 82.0356L68.2723 71.1688V77.4322L50.5139 88.2991L32.7416 77.4322V71.1827L50.5139 82.0496L50.5 82.0356Z" fill="#338AE2"/>
</svg>
