<svg width="101" height="100" viewBox="0 0 101 100" fill="none" xmlns="http://www.w3.org/2000/svg">
<rect x="0.5" width="100" height="100" rx="20" fill="black"/>
<path d="M84.4587 12.388H16.5161C15.2607 12.388 14.2563 13.3672 14.2563 14.5473V25.394C14.2563 26.5992 15.2607 27.5533 16.5161 27.5533H84.4336C85.689 27.5533 86.6933 26.5741 86.6933 25.394V14.5473C86.6933 13.3421 85.689 12.388 84.4336 12.388H84.4587Z" fill="white"/>
<path d="M27.865 32.3992C26.6095 32.3992 25.6052 33.3784 25.6052 34.5585V45.4052C25.6052 46.6104 26.6095 47.5645 27.865 47.5645H84.4838C85.7392 47.5645 86.7435 46.5853 86.7435 45.4052V34.5585C86.7435 33.3533 85.7392 32.3992 84.4838 32.3992H27.865Z" fill="white"/>
<path d="M84.4587 52.4104H39.1636C37.9082 52.4104 36.9039 53.3896 36.9039 54.5697V65.4164C36.9039 66.6216 37.9082 67.5757 39.1636 67.5757H84.4587C85.7141 67.5757 86.7184 66.5965 86.7184 65.4164V54.5697C86.7184 53.3645 85.7141 52.4104 84.4587 52.4104Z" fill="white"/>
<path d="M84.4587 72.4467H50.5125C49.2571 72.4467 48.2528 73.4259 48.2528 74.606V85.4527C48.2528 86.6579 49.2571 87.612 50.5125 87.612H84.4587C85.7141 87.612 86.7184 86.6328 86.7184 85.4527V74.606C86.7184 73.4008 85.7141 72.4467 84.4587 72.4467Z" fill="white"/>
</svg>
