<svg width="101" height="100" viewBox="0 0 101 100" fill="none" xmlns="http://www.w3.org/2000/svg">
<rect x="0.5" width="100" height="100" rx="20" fill="black"/>
<path d="M43.2332 52.6342H16.8915V71.0765H8.98584V34.9471C8.98584 33.3043 9.57751 31.8881 10.7608 30.7048C11.9442 29.5151 13.3604 28.9235 15.0095 28.9235H43.2395V36.8291H16.8915V44.7348H43.2395V52.6405L43.2332 52.6342Z" fill="white"/>
<path d="M92.0142 28.9235V51.5389L68.2405 28.9235H92.0142Z" fill="#635BFF"/>
<path d="M55.1798 28.9612H52.8824C51.3718 29.0305 50.0689 29.6158 48.9611 30.7236C47.9414 31.7433 47.3623 32.9392 47.2238 34.3051V71.0702H55.1295V41.4177L86.45 71.0702H92.0142V64.0206L55.1798 28.9612Z" fill="white"/>
</svg>
