<svg width="101" height="100" viewBox="0 0 101 100" fill="none" xmlns="http://www.w3.org/2000/svg">
<rect x="0.5" width="100" height="100" rx="20" fill="#7F24FF"/>
<path d="M86.6008 59.7505C86.1336 58.0871 85.4224 56.542 84.4155 55.1477C83.0833 53.3024 81.3874 51.846 79.3321 50.8613C78.1759 50.3083 76.9753 49.8366 75.7643 49.4138C74.8875 49.1077 75.0383 49.2703 75.0162 48.3654C75.0117 48.1555 75.0753 48.0431 75.3001 47.9692C76.8526 47.4502 78.3489 46.8159 79.7417 45.9361C81.4273 44.873 82.8201 43.5275 83.8862 41.8508C84.9093 40.2421 85.52 38.4634 85.8423 36.6048C86.0538 35.3879 86.1543 34.1371 86.1558 32.901C86.1558 31.4313 86.107 29.9482 85.73 28.5096C85.4771 27.5382 85.2553 26.549 84.9005 25.613C84.2307 23.8506 83.2385 22.2774 81.9167 20.9126C80.8713 19.8303 79.6885 18.9432 78.3903 18.1994C76.7298 17.2472 74.9408 16.6041 73.0911 16.162C71.7722 15.847 70.4237 15.6356 69.0782 15.4656C68.0447 15.3354 66.9934 15.2955 65.951 15.2926C59.568 15.2778 53.1864 15.2852 46.8049 15.2852V15.2807H26.8455C26.2787 15.2807 25.9953 15.571 25.9953 16.1516V43.5024C25.9953 43.9637 25.7711 44.1944 25.3226 44.1944C21.6261 44.1944 17.9312 44.1944 14.2347 44.1958C14.075 44.1958 13.9124 44.1944 13.7556 44.221C13.6847 44.2343 13.5886 44.3023 13.5693 44.3659C13.5531 44.4162 13.6211 44.5182 13.6788 44.5611C15.4264 45.8607 17.1726 47.1604 18.9262 48.4527C21.0953 50.051 23.26 51.6538 25.4483 53.2255C25.8711 53.5286 26.0072 53.851 26.0057 54.3581C25.9924 64.2262 25.9953 74.0942 25.9953 83.9637C25.9953 84.6587 26.0471 84.7193 26.6311 84.7193C39.443 84.7193 52.2564 84.7193 65.0698 84.7163C65.7218 84.7163 66.3783 84.7311 67.0259 84.669C68.3699 84.5419 69.714 84.3955 71.0491 84.2018C72.0309 84.0613 73.0142 83.8883 73.9693 83.6311C74.9496 83.3664 75.9092 83.01 76.8585 82.6434C78.2764 82.0978 79.5998 81.3644 80.8255 80.4684C82.483 79.2545 83.8418 77.7611 84.899 75.9957C85.8941 74.3367 86.5905 72.5609 86.9217 70.658C87.1376 69.4145 87.349 68.1577 87.4081 66.8994C87.5205 64.482 87.2603 62.0941 86.6008 59.7505ZM32.6031 25.5805H32.989C42.449 25.5835 51.9089 25.5805 61.3689 25.5983C62.3743 25.5983 63.3901 25.6618 64.3822 25.8156C65.9554 26.0611 67.4798 26.4854 68.7603 27.513C69.7864 28.3366 70.4666 29.3908 70.8761 30.6402C71.5563 32.7191 71.5607 34.8616 71.3582 36.9892C71.1512 39.1613 70.3232 41.076 68.4232 42.3654C67.6026 42.9228 66.7051 43.2747 65.7558 43.563C64.4458 43.9637 63.1077 44.0406 61.7637 44.1204C60.8676 44.1751 59.9687 44.1899 59.0712 44.1914C52.8508 44.1973 46.6289 44.1944 40.4085 44.1944C39.8496 44.1944 39.8496 44.1929 39.8496 43.6236C39.8496 39.6196 39.8467 35.6171 39.8541 31.6131C39.8555 31.2701 39.7875 31.0143 39.4829 30.7984C38.4198 30.0444 37.376 29.2651 36.3276 28.4904C35.5366 27.9063 34.7485 27.3179 33.9604 26.7294C33.5006 26.3863 33.0408 26.0418 32.5809 25.6973C32.5883 25.6589 32.5957 25.619 32.6031 25.5805ZM72.7909 64.0665C72.748 65.0586 72.7643 66.064 72.5972 67.0355C72.3414 68.5303 71.8284 69.935 70.8303 71.1415C69.7435 72.4545 68.367 73.2706 66.7539 73.7009C65.8963 73.9286 65.0151 74.0957 64.1338 74.2066C63.2733 74.316 62.398 74.3589 61.53 74.3604C54.5201 74.3722 47.5101 74.3677 40.5002 74.3677C40.0665 74.3677 39.8496 74.1499 39.8496 73.7142C39.8496 69.07 39.8467 64.4258 39.8555 59.7801C39.8555 59.4208 39.7742 59.162 39.4622 58.9388C38.1049 57.9599 36.7668 56.9575 35.4213 55.9639C34.5312 55.3074 33.6425 54.6494 32.7539 53.99C32.6889 53.9412 32.6342 53.8791 32.575 53.8229C32.5839 53.7918 32.5942 53.7593 32.6046 53.7282H33.0393C42.5007 53.7282 51.9622 53.7164 61.4236 53.743C62.6094 53.746 63.81 53.8628 64.9766 54.0713C66.881 54.4128 68.6834 55.0457 70.1398 56.4104C71.1881 57.3922 71.8727 58.5883 72.2882 59.959C72.6948 61.303 72.8515 62.6707 72.7909 64.0665Z" fill="white"/>
</svg>
