<svg width="101" height="100" viewBox="0 0 101 100" fill="none" xmlns="http://www.w3.org/2000/svg">
<rect x="0.5" width="100" height="100" rx="20" fill="#19212C"/>
<path d="M14.046 69.5326L21.9664 75.7173L22.7395 46.3238L41.3096 35.106V26.0024L14.046 42.4583V69.5326Z" fill="white"/>
<path d="M51.1705 7.05359L13.6516 28.3375V38.5928L46.532 18.8552V88.5918C46.532 90.99 48.4884 92.9464 50.8866 92.9464C53.2847 92.9464 55.2411 91.0058 55.2411 88.5918V19.4389L87.3484 38.1984V27.3593L51.1705 7.05359Z" fill="white"/>
<path d="M58.9173 87.8976L68.0052 82.8803V63.9158L87.2537 63.2373V41.1804L57.9391 25.2293C57.9391 25.2293 58.8858 86.6827 58.9173 87.8976ZM66.0645 38.1826L79.8067 47.2863V56.5634L66.0645 55.9797V38.1826Z" fill="white"/>
</svg>
