<svg width="101" height="100" viewBox="0 0 101 100" fill="none" xmlns="http://www.w3.org/2000/svg">
<rect x="0.5" width="100" height="100" rx="20" fill="white"/>
<path d="M59.8625 50.0368C57.0715 50.0368 54.2804 50.0368 51.4893 50.0368C50.5998 50.0368 50.5508 50.0695 50.5263 50.9859C50.5018 51.7223 50.5263 52.4505 50.5182 53.1868C50.5182 56.5496 50.5018 59.9042 50.4937 63.267C50.4937 64.1506 50.5263 64.1833 51.3751 64.2079C53.35 64.2652 54.6721 65.3125 55.578 66.9897C55.9289 67.6279 55.9371 67.6034 56.4512 67.1125C57.4958 66.1225 58.4752 65.0343 59.9033 64.5597C62.2619 63.7743 65.9017 63.9461 67.6726 66.8016C68.2929 67.7998 68.4724 68.9289 68.4724 70.0743C68.4724 72.0707 67.8522 73.8217 66.2853 75.1635C65.4202 75.908 64.3756 76.309 63.3228 76.6772C61.8375 77.2008 60.3032 77.5935 58.8751 78.2808C57.1449 79.1236 56.084 80.3999 56.1248 82.4454C56.1574 83.8527 56.0595 85.26 56.3941 86.6509C56.6471 87.7146 57.0633 88.6882 57.9121 89.3755C59.9605 91.0364 62.4577 90.2673 63.3065 87.7637C63.535 87.0846 63.7798 86.4218 64.0736 85.7673C64.3756 85.1045 64.8734 84.7527 65.5834 84.6873C66.3506 84.6054 66.9381 84.9573 67.3544 85.5627C68.048 86.5527 67.9175 87.8046 67.1259 88.721C66.2608 89.7192 65.0856 90.1528 63.8778 90.4801C60.9235 91.2819 58.0508 91.0119 55.2679 89.711C53.2929 88.7864 52.2891 87.2318 52.2075 85.0636C52.183 84.3927 52.1504 83.7136 52.1422 83.0345C52.1422 82.6581 51.9871 82.5027 51.6117 82.5436C50.7467 82.6581 49.8816 82.5763 49.0165 82.4781C48.584 82.4291 48.4126 82.5763 48.4208 83.0018C48.4208 83.8118 48.3555 84.6218 48.3065 85.4318C48.1923 87.2564 47.3027 88.5737 45.7603 89.441C43.1488 90.8974 40.3495 91.2574 37.436 90.6601C36.1466 90.3983 34.9061 90.0055 33.8533 89.1546C32.7598 88.2628 32.466 86.9537 33.1025 85.7346C33.4861 85.0145 34.09 84.6873 34.8898 84.6954C35.6732 84.6954 36.2037 85.1046 36.4893 85.8082C36.7668 86.4873 36.9953 87.1828 37.2646 87.8619C37.787 89.1873 38.6439 90.161 40.1537 90.2592C41.8103 90.3573 42.9039 89.4492 43.6629 88.0664C44.0709 87.3137 44.226 86.4709 44.3566 85.6282C44.5443 84.4418 44.5198 83.2391 44.43 82.0445C44.2995 80.2608 43.2956 79.0663 41.7124 78.3135C40.2842 77.6344 38.7581 77.209 37.2646 76.7099C35.8854 76.2435 34.5633 75.6708 33.5922 74.5171C32.2619 72.9462 31.8947 71.1134 32.1314 69.1089C32.4986 65.9343 34.9877 64.2488 37.8604 64.1752C40.17 64.1179 42.0388 64.977 43.6139 66.6379C44.5361 67.6198 44.6014 67.6198 45.2788 66.507C46.2336 64.9361 47.621 64.2243 49.4083 64.2161C49.849 64.2161 50.0285 64.0524 50.0285 63.6024C50.0285 59.2987 50.0285 54.995 50.0448 50.6913C50.0448 50.2168 49.8571 50.0532 49.3919 50.045C46.5029 49.9877 43.6221 50.0204 40.7331 50.0041C38.3827 49.9959 36.0323 50.0041 33.6901 49.9713C33.4779 49.9713 33.2657 49.9713 33.0536 49.9713C32.183 49.9713 31.7179 50.405 31.658 51.2723C31.5356 53.0477 30.6134 54.2914 29.1036 55.1423C28.4018 55.5432 28.3773 55.666 28.9649 56.2223C30.1482 57.3514 31.2418 58.5624 31.5683 60.2315C32.0171 62.4733 31.9518 64.6579 30.442 66.5643C29.5198 67.7261 28.2549 68.2825 26.843 68.4298C23.4154 68.8061 20.8202 67.0307 19.7429 63.7333C19.1798 61.9988 18.7228 60.2151 17.923 58.5542C17.0906 56.8278 15.7767 55.8951 13.8343 55.8787C12.2348 55.8623 10.6434 55.8787 9.1091 56.4351C7.5177 57.016 6.51389 58.1287 6.32619 59.806C6.20377 60.8779 6.60366 61.8597 7.49321 62.5633C8.13793 63.0788 8.88875 63.3652 9.66405 63.6106C10.0884 63.7497 10.4965 63.897 10.88 64.1343C11.6064 64.5761 11.892 65.2143 11.7941 66.0406C11.7043 66.8097 11.231 67.3088 10.5781 67.6116C9.36209 68.1761 8.08081 67.767 7.30551 66.6052C6.29354 65.0834 5.86917 63.357 5.70595 61.5815C5.4856 59.1924 5.91813 56.8851 6.98723 54.725C7.90942 52.8677 9.41105 51.8859 11.5166 51.8941C12.1287 51.8941 12.7489 51.8368 13.361 51.8123C13.6956 51.7959 13.8425 51.665 13.7935 51.305C13.6711 50.4377 13.6956 49.5786 13.8343 48.7113C13.9323 48.0649 13.8343 47.9831 13.1733 47.9586C12.4062 47.934 11.6309 47.9259 10.8637 47.8849C9.09277 47.7786 7.80333 46.8704 7.01171 45.324C5.15916 41.7403 5.02858 38.0503 6.51389 34.3111C6.9301 33.2638 7.59931 32.3966 8.75817 32.0529C9.67221 31.7829 10.7984 32.2329 11.3126 33.0756C11.7451 33.7957 11.639 34.8429 11.0433 35.432C10.6679 35.8084 10.1782 35.9884 9.68037 36.1602C8.89691 36.4302 8.11345 36.7166 7.44425 37.2157C5.42031 38.7212 5.95078 41.8549 8.17058 43.0658C8.82346 43.4176 9.50899 43.6631 10.2353 43.7776C11.688 44.0067 13.157 44.0231 14.6096 43.8349C16.2908 43.6222 17.262 42.4767 17.9067 40.9958C18.5677 39.4739 18.9595 37.8539 19.4736 36.283C19.7429 35.4566 20.0612 34.6548 20.5264 33.9102C21.9709 31.6029 24.7783 30.8093 27.1368 31.2674C30.6134 31.9384 31.9029 35.1293 31.6172 38.1975C31.4214 40.3085 30.3604 41.9203 28.9078 43.3522C28.2875 43.9658 28.2957 44.0476 29.0628 44.4567C30.8174 45.3895 31.658 46.8704 31.6662 48.8259C31.6662 49.3495 31.8947 49.4968 32.3599 49.4886C34.1471 49.4886 35.9426 49.4886 37.7298 49.4886C41.4676 49.505 45.1972 49.5295 48.9349 49.5459C50.0285 49.5459 50.0448 49.5295 50.053 48.474C50.0775 44.694 50.1019 40.9139 50.1264 37.1257C50.1264 36.9539 50.1264 36.7821 50.1264 36.6021C50.1183 36.0621 49.9224 35.7757 49.294 35.7839C47.4333 35.8002 46.0704 34.9411 45.1727 33.2966C44.6749 32.3802 44.6259 32.3884 43.8914 33.1575C42.9692 34.1229 41.9899 35.0311 40.6923 35.4648C38.3419 36.2339 36.0895 36.1193 34.0737 34.5484C32.4088 33.2475 32.0253 31.4065 32.1477 29.4101C32.3762 25.671 34.7266 24.2064 37.2402 23.3637C38.9703 22.7828 40.7576 22.3491 42.349 21.4C43.5486 20.6882 44.3158 19.6409 44.4219 18.2418C44.5769 16.3109 44.6177 14.3799 43.9077 12.5226C43.3691 11.1072 42.4795 10.0435 40.88 9.83897C38.8805 9.57715 37.8114 10.8535 37.2973 12.2035C37.0606 12.8336 36.8729 13.4881 36.6036 14.1018C36.1792 15.0754 35.3794 15.5336 34.5062 15.37C33.6167 15.1981 32.923 14.3718 32.8169 13.3981C32.6537 11.9172 33.4943 11.0172 34.645 10.3872C36.6607 9.2826 38.8642 8.99623 41.133 9.17623C42.3735 9.27441 43.5486 9.60987 44.7075 10.0517C47.0579 10.9517 48.331 12.629 48.4045 15.1736C48.4208 15.7709 48.4371 16.3681 48.4371 16.9654C48.4371 17.3254 48.584 17.4891 48.9594 17.4809C49.8816 17.4482 50.8038 17.4318 51.726 17.5545C52.0443 17.5954 52.134 17.4154 52.1422 17.1454C52.1667 16.5645 52.2075 15.9918 52.2157 15.4109C52.2401 12.269 53.7254 10.8208 56.3778 9.85533C57.2592 9.53624 58.1732 9.32351 59.1199 9.18441C61.5274 8.83259 63.8125 9.26623 65.9507 10.3381C67.0932 10.9108 67.9256 11.8354 67.8195 13.2754C67.7053 14.8136 66.3097 15.7054 64.9387 15.1409C64.3674 14.9036 64.1308 14.3881 63.9186 13.8727C63.6819 13.2999 63.5024 12.7108 63.2902 12.1381C62.8495 10.9435 62.0823 10.0435 60.7766 9.83897C59.2913 9.60987 58.0998 10.1908 57.2347 11.4099C56.5981 12.3017 56.3696 13.349 56.239 14.3963C56.0758 15.7381 56.0595 17.0963 56.239 18.4382C56.4675 20.1564 57.6183 21.1464 59.0872 21.8091C60.5236 22.4637 62.0415 22.9055 63.5432 23.3882C65.8283 24.1246 67.591 25.401 68.2358 27.8147C68.7336 29.672 68.7173 31.5293 67.6645 33.2393C66.8076 34.6384 65.5426 35.3993 63.9349 35.6939C62.0987 36.0293 60.3767 35.8166 58.769 34.8429C57.8713 34.2948 57.1612 33.5257 56.4186 32.8056C56.0595 32.462 55.8963 32.5029 55.6678 32.9202C55.0639 34.0411 54.313 35.0311 53.0562 35.4975C52.5421 35.6857 52.0116 35.7511 51.473 35.7757C50.5998 35.8166 50.5998 35.8084 50.5998 36.7084C50.5998 40.2594 50.5998 43.8103 50.5998 47.3613C50.5998 47.7622 50.5671 48.1713 50.5834 48.5722C50.6243 49.5295 50.6324 49.5295 51.5709 49.5295C55.325 49.5295 59.0791 49.5295 62.8332 49.5377C64.6857 49.5377 66.5301 49.5459 68.3827 49.5459C69.1661 49.5459 69.2069 49.5131 69.1988 48.7359C69.1743 46.9277 69.9006 45.5449 71.443 44.5794C72.4469 43.9576 72.4387 43.9167 71.6063 43.0903C70.6514 42.133 69.7129 41.1512 69.3048 39.8094C68.6112 37.5266 68.6438 35.2848 70.023 33.2638C71.2309 31.4884 73.0671 30.9402 75.1318 31.0465C78.0861 31.202 79.8815 32.8547 80.8772 35.5466C81.5056 37.2484 81.9544 39.0076 82.7379 40.6521C83.2765 41.7812 84.0029 42.7303 85.2189 43.1803C85.9533 43.4585 86.745 43.4749 87.4958 43.4667C88.9321 43.4503 90.3685 43.3276 91.7477 42.8203C93.8043 42.0676 94.9142 39.8667 94.1633 37.9439C93.7226 36.8148 92.776 36.2912 91.7232 35.8984C91.258 35.7266 90.7765 35.5793 90.3113 35.3993C89.0546 34.9084 88.5078 33.7547 89.0137 32.6911C89.5687 31.5293 91.0458 31.0383 92.1639 31.6356C93.1514 32.1675 93.7308 33.0347 94.1225 34.0493C95.4446 37.4857 95.412 40.8976 93.9104 44.2849C93.0453 46.2322 91.6008 47.304 89.4381 47.3613C88.826 47.3777 88.2058 47.4349 87.5937 47.4759C87.1612 47.5086 86.9653 47.7131 87.0469 48.1631C87.1938 48.9486 87.1449 49.7341 87.0469 50.5277C86.9572 51.215 87.0469 51.3214 87.7325 51.305C88.6383 51.2886 89.5442 51.2886 90.4419 51.4195C92.4822 51.7059 93.6247 53.0477 94.3919 54.8314C95.665 57.7851 95.8364 60.8042 94.9305 63.8806C94.6449 64.8624 94.245 65.8116 93.4778 66.5397C92.6046 67.3579 91.5437 67.4807 90.499 66.9079C89.7727 66.507 89.4952 65.8525 89.5116 65.0752C89.5279 64.1997 90.0502 63.6597 90.8092 63.3242C91.4376 63.0461 92.0904 62.8088 92.727 62.5224C95.4201 61.3197 95.5262 58.1124 93.1759 56.4023C92.3108 55.7723 91.2743 55.5596 90.2461 55.4287C88.9811 55.265 87.7161 55.2732 86.4512 55.4696C84.5986 55.756 83.6356 56.9914 82.9909 58.5951C82.2482 60.436 81.8647 62.3997 81.171 64.257C79.9795 67.4398 76.9191 68.708 73.9158 68.2089C71.1329 67.7507 69.4599 65.247 69.4436 62.547C69.4354 61.426 69.4844 60.3215 69.8924 59.2496C70.3739 57.9814 71.2961 57.0487 72.1531 56.0669C72.6346 55.5187 72.6427 55.5269 72.047 55.1505C71.8511 55.0278 71.6634 54.8969 71.4594 54.7823C69.9659 53.9232 69.3293 52.565 69.2396 50.8959C69.1906 49.9959 69.1988 49.9877 68.2766 49.9877C66.8729 49.9877 65.4692 49.9877 64.0573 49.9877C62.6699 49.9877 61.2826 49.9877 59.8952 49.9877L59.8625 50.0368ZM81.7667 55.4041C80.0121 55.3878 78.2575 55.4614 76.5192 55.6741C74.5198 55.9114 72.6427 56.4678 71.2717 58.1369C69.9659 59.7242 70.2189 61.9906 71.8674 63.0379C72.708 63.5697 73.6384 63.8152 74.6014 63.8397C77.3271 63.897 79.4164 62.7106 80.8772 60.4115C81.8484 58.8815 82.7216 57.286 83.8968 55.8951C83.9865 55.7887 84.0926 55.6905 84.0273 55.5432C83.9621 55.3878 83.7988 55.4205 83.6683 55.4205C83.0317 55.4205 82.3951 55.4205 81.7586 55.4205L81.7667 55.4041ZM44.5851 75.7771C44.5361 73.5271 44.6422 71.2689 43.9404 69.0761C43.4834 67.6525 42.7652 66.4497 41.4105 65.7052C39.7619 64.797 37.9094 65.3861 37.1014 67.1043C35.763 69.9598 36.7342 73.7398 39.2723 75.6217C40.8637 76.8081 42.5775 77.7981 44.0709 79.1154C44.1526 79.189 44.2342 79.3036 44.3647 79.2463C44.5198 79.1808 44.479 79.0172 44.4953 78.8863C44.5851 77.8472 44.6014 76.8081 44.5851 75.769V75.7771ZM26.3207 63.8724C26.7696 63.9052 27.398 63.8397 28.01 63.6433C29.2016 63.267 30.2217 62.6533 30.5808 61.3851C30.9562 60.076 30.5644 58.9142 29.6422 57.9242C28.3854 56.5823 26.7369 56.1078 24.9986 55.8623C22.5258 55.5105 20.0449 55.6987 17.5639 55.7314C17.3844 55.7314 17.1477 55.6905 17.0579 55.9114C16.9845 56.0914 17.1314 56.2387 17.2456 56.3696C18.3229 57.5642 19.139 58.9387 20.0122 60.2806C21.4567 62.4979 23.3664 63.9215 26.3207 63.8724ZM55.9452 75.2535C55.8473 76.4481 56.0432 77.6426 56.0269 78.8372C56.0269 78.9845 55.9942 79.1726 56.1656 79.2463C56.337 79.3281 56.4512 79.1726 56.5655 79.0745C57.0633 78.649 57.5448 78.2154 58.0916 77.839C59.1852 77.0863 60.3032 76.3662 61.356 75.5562C63.788 73.6826 64.7428 70.1398 63.5432 67.3252C62.8413 65.6725 61.356 64.8952 59.8462 65.4106C58.1732 65.9834 57.2428 67.2352 56.7042 68.8552C56.0105 70.9334 56.0024 73.0935 55.9616 75.2535H55.9452ZM44.5443 24.2637C44.5443 23.2655 44.5443 22.2591 44.5443 21.2609C44.5443 21.1137 44.6341 20.9255 44.4708 20.8355C44.2831 20.7291 44.1444 20.9091 44.022 21.0073C43.1651 21.6537 42.3735 22.39 41.4513 22.9628C40.7004 23.421 39.9741 23.9364 39.2723 24.4764C36.8403 26.3337 35.8609 29.9583 37.0688 32.7566C37.9991 34.9084 40.1373 35.4402 41.998 34.0248C43.2385 33.0756 43.818 31.7584 44.177 30.3183C44.6749 28.3383 44.6177 26.301 44.5606 24.2801L44.5443 24.2637ZM56.0269 24.411C55.9779 25.6137 56.0187 27.0783 56.1574 28.5347C56.3207 30.1792 56.6961 31.7665 57.7325 33.1166C58.2711 33.8202 58.973 34.3357 59.8136 34.6057C61.813 35.252 63.3065 33.9838 63.8451 31.8647C64.6367 28.7556 63.4126 25.7365 60.7358 23.9692C59.3239 23.0364 57.9121 22.0955 56.6144 21.0073C56.492 20.9009 56.3696 20.7128 56.1738 20.8273C55.9942 20.9255 56.035 21.13 56.035 21.3019C56.035 22.251 56.035 23.1919 56.035 24.4028L56.0269 24.411ZM78.9267 43.8185C78.9267 43.7694 78.9267 43.7203 78.9267 43.6712C80.3712 43.6712 81.8075 43.6712 83.2521 43.6712C83.4316 43.6712 83.6764 43.7367 83.758 43.5076C83.8233 43.3276 83.6356 43.1967 83.5214 43.074C82.7134 42.1412 81.9708 41.1676 81.3179 40.1121C80.7058 39.1139 80.0448 38.1239 79.1552 37.3466C77.6454 36.013 75.85 35.5302 73.8587 35.6939C72.708 35.7839 71.6879 36.193 70.8473 36.9948C70.023 37.7803 69.7782 38.7703 70.0965 39.8585C70.5861 41.5276 71.7613 42.5421 73.3446 43.1231C75.1481 43.7858 77.0333 43.8022 78.9185 43.8267L78.9267 43.8185ZM20.7712 43.9167C21.7913 43.9167 22.8115 43.974 23.8316 43.9003C25.676 43.7776 27.4306 43.3522 28.9567 42.1985C29.9279 41.4703 30.8174 39.4985 30.4992 38.4348C30.0993 37.1012 29.2016 36.3811 28.0182 35.9966C25.3985 35.1539 22.4687 36.0621 20.7712 38.1566C19.4165 39.8339 18.5024 41.8221 17.0906 43.4749C16.7886 43.8267 17.0253 43.9167 17.3681 43.9413C18.5024 44.0067 19.6368 43.9576 20.7712 43.9085V43.9167ZM81.9136 47.6313C78.992 47.754 76.5518 47.844 74.1117 47.9668C73.2874 48.0077 72.4632 48.1631 71.7695 48.6704C70.8228 49.3659 70.8391 50.2659 71.8185 50.9123C72.2102 51.1659 72.6182 51.3377 73.0916 51.4032C73.9322 51.5177 74.7727 51.5914 75.6215 51.575C78.1351 51.5259 80.6568 51.485 83.1704 51.4441C83.7825 51.4359 84.4028 51.4441 85.0148 51.4277C85.7983 51.4032 85.8799 51.3295 85.9125 50.5686C85.9452 49.8404 85.9125 49.104 85.8554 48.3759C85.8146 47.8113 85.5453 47.6149 84.9985 47.6313C83.807 47.6559 82.6155 47.6313 81.9055 47.6313H81.9136ZM48.4126 74.0999C48.4126 76.8326 48.4208 78.6981 48.4126 80.5718C48.4126 81.0218 48.5758 81.2427 49.0247 81.3081C49.8326 81.4309 50.6243 81.4636 51.4322 81.2999C51.979 81.1936 52.1504 80.9563 52.1422 80.4081C52.1096 77.0535 52.1422 73.6989 52.0851 70.3443C52.0688 69.3543 52.0116 68.3398 51.6281 67.3907C51.3832 66.7934 51.0323 66.2452 50.3386 66.2125C49.6368 66.1797 49.245 66.687 48.9594 67.2679C48.6085 67.9961 48.5595 68.7898 48.5187 69.5834C48.4289 71.3753 48.4045 73.1671 48.4208 74.0999H48.4126ZM21.065 47.9668C19.2777 47.9668 17.4905 47.9668 15.7032 47.9586C15.2299 47.9586 15.0014 48.114 14.9524 48.605C14.8789 49.3741 14.8789 50.1432 14.9524 50.9123C15.034 51.7386 15.1156 51.8123 15.9562 51.7959C18.6493 51.755 21.3425 51.7223 24.0275 51.6732C24.966 51.6568 25.9127 51.6486 26.8512 51.575C27.6183 51.5177 28.3773 51.3541 29.0302 50.8959C30.0095 50.2004 29.9768 49.2922 28.9567 48.6459C28.0345 48.0568 26.9899 48.0077 25.9616 47.9749C24.3294 47.934 22.689 47.9668 21.0568 47.9668H21.065ZM48.4208 24.8119C48.4208 24.8119 48.4616 24.8119 48.4779 24.8119C48.4779 25.4665 48.4779 26.121 48.4779 26.7756C48.4779 27.4547 48.4861 28.1256 48.4779 28.8047C48.4779 29.8111 48.535 30.8093 48.6982 31.7993C48.8043 32.4129 48.9921 33.002 49.4491 33.452C49.9714 33.9675 50.6079 33.9757 51.1302 33.452C51.5546 33.0266 51.7831 32.5029 51.8729 31.9138C52.028 30.8829 52.1096 29.8438 52.1096 28.8047C52.1096 25.7201 52.1096 22.6273 52.134 19.5427C52.134 18.9782 51.9382 18.7245 51.3914 18.6918C50.6406 18.6509 49.8979 18.6182 49.1471 18.7164C48.6085 18.79 48.3963 19.0273 48.4126 19.5836C48.4453 21.3182 48.4208 23.0528 48.4208 24.7955V24.8119Z" fill="#CD833F"/>
</svg>
