<svg width="101" height="100" viewBox="0 0 101 100" fill="none" xmlns="http://www.w3.org/2000/svg">
<rect x="0.5" width="100" height="100" rx="20" fill="black"/>
<path d="M89.2006 12.4943C87.65 14.4509 73.1676 32.0195 48.9819 31.2831C26.6005 30.6072 13.5931 14.7861 11.7885 12.5057C11.7885 12.5057 16.8918 44.6274 50.4942 44.6224C84.0965 44.6175 89.2006 12.4943 89.2006 12.4943Z" fill="url(#paint0_linear_244_378)"/>
<path d="M11.7919 35.2114C11.7919 35.2114 24.262 50.9008 46.0456 53.6445L46.0506 87.5003C46.0506 87.5003 40.1614 87.5823 35.6503 85.2313L35.6471 63.2554C35.6471 63.2554 16.194 55.0275 11.7919 35.2114Z" fill="url(#paint1_linear_244_378)"/>
<path d="M11.7955 56.7919C11.7955 56.7919 20.5446 66.0148 27.2148 68.9534L27.2164 79.7487C27.2164 79.7487 15.6091 72.6853 11.7955 56.7919Z" fill="url(#paint2_linear_244_378)"/>
<path d="M89.204 35.1998C89.204 35.1998 76.7384 50.8929 54.9556 53.6431L54.9606 87.4989C54.9606 87.4989 60.8499 87.5791 65.3602 85.2268L65.357 63.2509C65.357 63.2509 84.8077 55.0071 89.204 35.1897L89.204 35.1998Z" fill="url(#paint3_linear_244_378)"/>
<path d="M89.207 56.7804C89.207 56.7804 80.4606 66.0059 73.7912 68.9464L73.7928 79.7417C73.7928 79.7417 85.398 72.6749 89.207 56.7804Z" fill="url(#paint4_linear_244_378)"/>
<defs>
<linearGradient id="paint0_linear_244_378" x1="50.4524" y1="36.2378" x2="51.9124" y2="195.031" gradientUnits="userSpaceOnUse">
<stop stop-color="#8DCB8B"/>
<stop offset="1" stop-color="#488995"/>
</linearGradient>
<linearGradient id="paint1_linear_244_378" x1="99.1637" y1="-5.49019" x2="99.4179" y2="92.058" gradientUnits="userSpaceOnUse">
<stop stop-color="#8DCB8B"/>
<stop offset="1" stop-color="#488995"/>
</linearGradient>
<linearGradient id="paint2_linear_244_378" x1="205.888" y1="-98.9798" x2="206.481" y2="123.207" gradientUnits="userSpaceOnUse">
<stop stop-color="#8DCB8B"/>
<stop offset="1" stop-color="#488995"/>
</linearGradient>
<linearGradient id="paint3_linear_244_378" x1="1.61386" y1="-5.45783" x2="1.86796" y2="92.0714" gradientUnits="userSpaceOnUse">
<stop stop-color="#8DCB8B"/>
<stop offset="1" stop-color="#488995"/>
</linearGradient>
<linearGradient id="paint4_linear_244_378" x1="50.4503" y1="22.6668" x2="50.7238" y2="90.6824" gradientUnits="userSpaceOnUse">
<stop stop-color="#8DCB8B"/>
<stop offset="1" stop-color="#488995"/>
</linearGradient>
</defs>
</svg>
