<svg width="101" height="100" viewBox="0 0 101 100" fill="none" xmlns="http://www.w3.org/2000/svg">
<rect x="0.5" width="100" height="100" rx="20" fill="black"/>
<path fill-rule="evenodd" clip-rule="evenodd" d="M87.3781 5.88385V94.1161H13.6221V5.88385H87.3781ZM16.9377 9.19333V90.8036H84.0686V9.19333H16.9377ZM57.9023 13.0074L66.6388 21.7471L38.2095 50.0186L58.0045 69.9095L62.2582 65.7177L46.5807 49.9659L70.9081 25.7593L79.657 34.4959L64.0817 49.9907L79.7592 65.7518L57.9364 87.395L20.724 50.0031L57.9023 13.0074ZM57.8961 17.6915L25.4111 50.0155L57.9487 82.7171L75.0689 65.7363L59.3945 49.9814L74.9605 34.4897L70.9019 30.4341L51.2648 49.9752L66.9546 65.7394L57.9797 74.5843L33.5223 50.0093L61.9455 21.744L57.893 17.6915H57.8961Z" fill="#00C992"/>
</svg>
