<svg width="101" height="100" viewBox="0 0 101 100" fill="none" xmlns="http://www.w3.org/2000/svg">
<rect x="0.5" width="100" height="100" rx="20" fill="#052033"/>
<path d="M91.1773 66.1298C90.8457 69.0193 87.3604 69.4237 85.0541 69.2178C83.6983 69.1002 80.4267 68.2179 81.5762 66.2621C82.1288 65.321 82.9688 65.7622 83.7425 66.1298C84.8404 66.6445 86.1078 66.9606 87.3015 66.6003C87.611 66.5048 87.9204 66.3577 88.1194 66.1004C88.3183 65.843 88.3625 65.4534 88.1636 65.196C88.0531 65.0563 87.8836 64.9754 87.7141 64.9019C86.7562 64.4681 85.7541 64.1299 84.7299 63.8799C82.9762 63.4535 81.3257 62.4021 81.333 60.3949C81.333 58.6817 82.8141 57.0862 84.6709 56.8216C85.172 56.7554 85.6878 56.748 86.1962 56.7186C87.5594 56.6671 88.8342 56.9245 89.9763 57.7186C90.6615 58.1891 90.9415 58.7111 90.4773 59.5126C90.0573 60.2331 89.6373 60.3507 88.8636 59.9169C87.8026 59.3214 86.5868 59.4684 85.4078 59.542C85.0099 59.564 84.5162 59.6008 84.4867 60.1375C84.4646 60.6007 84.8552 60.8654 85.2457 60.9978C86.2552 61.3433 87.2941 61.6007 88.311 61.9389C90.5878 62.7035 91.4205 63.9388 91.17 66.1445L91.1773 66.1298Z" fill="#F8AF16"/>
<path d="M80.4709 58.4832C80.353 59.2773 79.8004 59.4905 79.0709 59.6228C77.5603 59.9022 76.6024 61.0198 76.5361 62.6006C76.4698 64.2255 76.5214 65.8577 76.4772 67.4826C76.4551 68.3282 76.293 69.1075 75.1214 69.0928C73.9793 69.0928 73.6035 68.4899 73.6108 67.4679C73.6256 65.9386 73.6108 64.4167 73.6108 62.8947C73.6108 61.3066 73.2203 59.1817 73.795 57.6671C73.994 57.1524 74.4656 56.8068 75.0256 56.8436C75.4161 56.873 75.7772 57.0348 76.1309 57.1965C76.4846 57.3583 76.8604 57.5053 77.2435 57.4906C77.7298 57.4759 78.1646 57.2039 78.614 57.0201C79.7635 56.5495 80.6477 57.2701 80.4709 58.4906V58.4832Z" fill="#F8AF16"/>
<path d="M64.0097 63.9314C64.975 63.9167 65.9476 63.9314 66.9129 63.9314H68.9098C71.8498 63.9314 71.835 63.9314 71.1645 61.0419C70.1477 56.6745 65.395 55.7701 62.4402 57.4539C60.2076 58.7258 59.4486 60.7992 59.4707 63.3506C59.4854 65.8651 60.937 68.1076 63.3613 68.9678C64.8939 69.5046 71.6582 69.4972 70.0519 66.4459C69.654 65.696 69.0424 65.8357 68.3718 66.1004C67.436 66.468 66.6108 66.7842 65.5792 66.615C64.6507 66.4606 63.7813 65.9754 63.1623 65.2695C63.0002 65.0857 62.8528 64.8725 62.816 64.6299C62.7055 63.8652 63.5234 63.9535 64.0097 63.9461V63.9314ZM63.376 60.189C64.1129 59.2111 66.8466 59.2479 67.6571 60.211C68.0403 60.6669 68.3645 61.4242 67.6129 61.7477C67.3697 61.8506 67.0971 61.858 66.8318 61.858C65.7855 61.8727 64.7392 61.8801 63.6928 61.8948C63.5234 61.8948 63.3539 61.8948 63.1918 61.8359C62.396 61.5271 63.0739 60.5713 63.3686 60.1816L63.376 60.189Z" fill="#F8AF16"/>
<path d="M59.736 35.8596C59.736 39.455 57.1054 42.1754 53.598 42.1828C49.9654 42.1975 47.4306 39.4991 47.2759 35.8082C47.1432 32.5951 49.7443 29.338 53.5391 29.8232C57.4886 29.8232 59.7212 31.9996 59.7286 35.8523L59.736 35.8596Z" fill="#F8AF16"/>
<path d="M74.1561 31.6614C72.0856 34.8965 69.9782 38.1168 67.9224 41.3666C64.0539 47.4839 60.2149 53.6232 56.3538 59.7478C54.5707 62.5712 52.7654 65.3872 50.9822 68.2032C50.5917 68.8282 50.0538 69.1149 49.3317 69.1222H47.1801V69.1075C46.4653 69.1075 45.7432 69.159 45.0358 69.1075C43.9821 69.012 43.6727 68.4532 44.2253 67.5635C46.2222 64.3284 48.2632 61.1227 50.2822 57.895C52.8391 53.8144 55.3812 49.7264 57.9381 45.6531C60.3107 41.8813 62.6686 38.1021 65.0929 34.3671C65.5571 33.6465 66.0655 32.8966 66.3971 32.1687C67.2371 30.3232 68.5708 29.7644 70.4424 29.9041C71.4077 29.9703 72.3951 29.8747 73.353 29.9703C74.4509 30.0732 74.7382 30.7349 74.1487 31.6614H74.1561Z" fill="#F8AF16"/>
<path d="M27.2188 43.0871C27.0788 43.6312 27.0862 44.1165 27.4399 44.3738C27.7051 44.5723 28.0662 44.587 28.3978 44.587C31.8683 44.6238 35.5305 44.5723 38.5737 46.2413C47.799 51.2925 42.7369 62.7256 35.6263 66.8503C31.2715 69.3796 26.1062 70.2104 21.0661 70.2251C18.9588 70.2251 16.8145 70.0928 14.8398 69.3575C12.865 68.6223 11.0597 67.2253 10.2345 65.2916C8.9155 62.1889 10.6471 58.2773 13.6829 56.7921C17.8019 54.7849 22.9598 56.9245 24.6693 61.0639C25.0157 61.9021 24.8904 62.7697 24.9788 63.6299C25.0525 64.3946 25.4357 64.7622 26.2167 64.4314C29.7462 62.9609 31.9347 58.7111 31.662 55.9613C31.2715 51.9836 27.3957 50.2852 23.8146 50.0499C21.0514 49.8661 18.2661 50.2925 15.525 49.8955C15.2303 49.8514 14.8987 49.7705 14.7587 49.5132C14.6555 49.3073 14.6998 49.0647 14.7587 48.8441C15.7608 44.6973 17.6766 40.8005 18.863 36.6978C19.3567 34.9994 20.0419 33.3524 20.6609 31.6908C21.1177 30.4776 21.9209 29.86 23.3356 29.8894C26.8062 29.9629 30.2841 29.9115 33.762 29.9115C37.24 29.9115 40.7179 29.8894 44.1958 29.9115C46.038 29.9115 46.4211 30.3159 45.7801 31.9775C45.0948 33.7568 44.4316 35.5729 43.5179 37.2713C42.9579 38.3154 42.1916 38.6977 41.0495 38.683C37.5716 38.6462 34.101 38.6977 30.6231 38.6609C29.3483 38.6389 28.4715 38.8815 28.2504 40.374C28.162 40.9622 27.4694 42.1239 27.2262 43.0724L27.2188 43.0871Z" fill="#F8AF16"/>
</svg>
