<svg width="101" height="100" viewBox="0 0 101 100" fill="none" xmlns="http://www.w3.org/2000/svg">
<rect x="0.5" width="100" height="100" rx="20" fill="#7E00E5"/>
<path d="M12.064 43.0829H21.8763V45.0329H14.1799V48.7669H20.6731V50.7169H14.1799V56.6499H12.064V43.0829Z" fill="white"/>
<path d="M23.8674 46.402H25.8383V56.65H23.8674V46.402Z" fill="white"/>
<path d="M23.8674 43.0804H25.8383V45.0427H23.8674V43.0804Z" fill="white"/>
<path d="M86.9655 43.0804H88.9363V45.0427H86.9655V43.0804Z" fill="white"/>
<path d="M40.1625 52.7707V43.0845H42.1334V46.4019H47.7761V48.2067H42.1334V52.7706C42.1334 54.3887 42.984 55.0939 44.2702 55.0939C45.5564 55.0939 46.4276 54.4093 46.4276 52.7706V52.5423H48.3777V52.7706C48.3777 55.5504 46.7181 56.9193 44.2702 56.9193C41.8223 56.9193 40.1627 55.5502 40.1627 52.7706L40.1625 52.7707Z" fill="white"/>
<path d="M50.0361 51.5261C50.0361 48.4144 52.318 46.1324 55.5542 46.1324C58.7903 46.1324 61.0723 48.4144 61.0723 51.5261C61.0723 54.6379 58.7903 56.9196 55.5542 56.9196C52.318 56.9196 50.0361 54.6376 50.0361 51.5261ZM59.0809 51.5261C59.0809 49.4515 57.6703 47.9579 55.5543 47.9579C53.4383 47.9579 52.0278 49.4517 52.0278 51.5261C52.0278 53.6006 53.4383 55.0941 55.5543 55.0941C57.6703 55.0941 59.0809 53.6003 59.0809 51.5261Z" fill="white"/>
<path d="M63.281 43.0845H65.2519V50.9452L69.961 46.4019H72.5541L67.2018 51.4013L72.7408 56.6499H70.1062L65.2519 51.8786V56.6499H63.281V43.0845Z" fill="white"/>
<path d="M73.5488 51.5261C73.5488 48.4144 75.8308 46.1324 79.0669 46.1324C82.3031 46.1324 84.5437 48.4144 84.5437 51.5261V52.2522H75.6233C75.9138 54.0777 77.2829 55.0942 79.0669 55.0942C80.3946 55.0942 81.3281 54.6794 81.9296 53.7873H84.1079C83.3197 55.6958 81.4526 56.9197 79.0669 56.9197C75.8308 56.9197 73.5488 54.6376 73.5488 51.5261ZM82.4691 50.4888C82.075 48.8499 80.7264 47.9579 79.0669 47.9579C77.3658 47.9579 76.0797 48.8708 75.6856 50.4888H82.4691Z" fill="white"/>
<path d="M86.9655 46.402H88.9363V56.65H86.9655V46.402Z" fill="white"/>
<path d="M37.8058 56.6452H35.8928V52.5617C35.8928 50.2363 34.001 48.3446 31.6756 48.3446H27.9142V46.4314H31.6756C35.0558 46.4314 37.8058 49.1814 37.8058 52.5617V56.6452Z" fill="white"/>
</svg>
