<svg width="101" height="100" viewBox="0 0 101 100" fill="none" xmlns="http://www.w3.org/2000/svg">
<rect x="0.5" width="100" height="100" rx="20" fill="white"/>
<path d="M48.7497 69.802C48.6824 69.2316 48.4483 68.7671 47.7683 68.7385C47.6737 68.6426 47.5516 68.6276 47.4258 68.6289C46.2527 68.6364 45.0808 68.6451 43.9077 68.6538C43.6997 68.6538 43.493 68.6538 43.285 68.6538C42.4095 68.6538 41.534 68.6525 40.6585 68.6513C40.0794 68.6513 39.5003 68.6513 38.9212 68.6513C38.2998 68.6513 37.6771 68.6513 37.0557 68.6513C36.0668 68.6513 35.0793 68.6538 34.0905 68.655C33.3482 68.655 32.606 68.655 31.8625 68.6525C30.327 68.6525 28.7902 68.6538 27.2546 68.655C26.7216 68.6538 26.1886 68.6525 25.6543 68.6513C25.1935 68.6525 24.7328 68.6538 24.2707 68.655C23.1536 68.6364 22.0353 68.6189 20.9182 68.6002C20.9157 68.0672 20.9132 67.5354 20.9107 67.0024C20.9107 66.4233 20.9107 65.843 20.9107 65.2639C20.9107 64.8915 20.9107 64.5192 20.9107 64.1468C20.9107 63.5665 20.9107 62.9874 20.9107 62.407C20.9107 61.5789 20.9107 60.7519 20.9107 59.9238C20.9107 59.179 20.9107 58.4331 20.9107 57.6883V55.5774C20.9107 54.956 20.9107 54.3358 20.9107 53.7144C21.0153 53.4678 20.7264 53.0904 21.1635 52.9534C21.8248 52.9534 22.4861 52.9534 23.1474 52.9534C23.6456 52.9534 24.1449 52.9534 24.6431 52.9534C25.0142 52.9534 25.3866 52.9534 25.7577 52.9534C26.2969 52.9534 26.8374 52.9534 27.3767 52.9522C27.9981 52.9522 28.6195 52.9522 29.241 52.9522C29.5312 52.9522 29.8213 52.9522 30.1115 52.9522C30.5262 52.9522 30.9397 52.9522 31.3544 52.9522C31.7267 52.9522 32.1004 52.9522 32.4727 52.9522C33.0942 52.9522 33.7156 52.9522 34.337 52.9522C35.0394 52.9522 35.7431 52.9522 36.4454 52.9522C37.027 52.9522 37.6086 52.9522 38.189 52.9522C38.6435 52.9522 39.0981 52.9522 39.5514 52.9522C40.0495 52.9522 40.5489 52.9522 41.0471 52.9522C41.5925 52.931 42.148 53.0879 42.681 52.8563C43.0758 52.8227 43.3149 52.6097 43.4008 52.2249C43.5216 51.733 43.5764 51.2361 43.5142 50.7305C43.5142 50.2747 43.5142 49.8201 43.5142 49.3643C43.5204 49.1401 43.5303 48.9172 43.5316 48.693C43.5341 47.368 43.4158 47.216 42.148 46.9159C41.7569 46.9084 41.3646 46.8922 40.9736 46.8935C36.8078 46.8997 32.6421 46.9097 28.4776 46.9184C26.1761 46.9097 23.8747 46.886 21.5733 46.9072C21.0639 46.9122 20.8497 46.7702 20.9095 46.2633C20.9095 45.6419 20.9095 45.0217 20.9095 44.4003V42.5384C20.9095 42.0415 20.9095 41.5446 20.9095 41.0477C20.9095 40.4263 20.9095 39.8061 20.9095 39.1847C20.9095 38.5632 20.9095 37.9418 20.9095 37.3203C20.9095 36.4922 20.9095 35.6652 20.9095 34.8371V32.4771C20.9369 31.7266 21.3283 31.3513 22.0839 31.3513C29.7267 31.3525 37.3683 31.3538 45.0111 31.3538C45.2589 31.3538 45.5067 31.3376 45.7546 31.3276C46.0173 31.3363 46.2876 31.4123 46.5304 31.2417C46.8368 31.238 47.0958 31.1446 47.2527 30.8594C47.4097 30.7411 47.4856 30.5717 47.5068 30.3861C47.665 29.0063 47.6625 27.6251 47.5205 26.2428C47.4694 25.3922 47.0896 25.0211 46.2527 25.0074C46.0485 25.0036 45.8442 25.0124 45.64 25.0149C45.4208 24.8355 45.1618 24.9215 44.9227 24.9215C35.5475 24.9177 26.1736 24.9215 16.7985 24.919C16.2182 24.919 15.6416 24.919 15.0737 25.0522C14.5419 25.2253 14.2169 25.5591 14.2119 26.1469C14.2119 26.934 14.2119 27.7198 14.2106 28.5069C14.2106 29.2528 14.2106 29.9976 14.2106 30.7435C14.2106 31.4472 14.2106 32.1508 14.2106 32.8544C14.2106 33.4746 14.2106 34.0961 14.2106 34.7163C14.2106 35.2132 14.2106 35.7101 14.2106 36.207C14.2106 36.745 14.2106 37.2842 14.2106 37.8222C14.2106 38.4848 14.2106 39.146 14.2106 39.8086C14.2106 40.3466 14.2106 40.8858 14.2106 41.4238C14.2106 41.7962 14.2106 42.1686 14.2106 42.5409C14.2106 43.0378 14.2106 43.5347 14.2106 44.0329C14.2106 44.6954 14.2106 45.3567 14.2106 46.0192C14.2106 46.4327 14.2106 46.8474 14.2106 47.2609C14.2106 47.9234 14.2106 48.5859 14.2106 49.2472C14.2106 49.9098 14.2106 50.5723 14.2106 51.2336C14.2106 51.9796 14.2106 52.7243 14.2106 53.4703V55.9535C14.2106 56.575 14.2106 57.1952 14.2106 57.8166C14.2106 58.1479 14.2106 58.4779 14.2106 58.8092C14.2106 59.3895 14.2106 59.9686 14.2106 60.5489V62.7831C14.2106 63.3211 14.2106 63.8604 14.2106 64.3984C14.2106 64.8118 14.2106 65.2265 14.2106 65.64C14.2106 66.2614 14.2106 66.8816 14.2106 67.5031C14.2106 68.0822 14.2106 68.6625 14.2106 69.2416C14.2106 69.5729 14.2106 69.9041 14.2106 70.2354C14.2106 70.8556 14.2106 71.477 14.2106 72.0972C14.2057 72.5879 14.1957 73.0786 14.1969 73.5693C14.2007 74.5469 14.5917 74.9404 15.5681 74.9591C15.7661 75.1272 16.004 75.0562 16.2244 75.0562C19.9456 75.06 23.6667 75.06 27.3879 75.0562C27.5884 75.0562 27.7889 75.0288 27.9881 75.0126C28.0031 75.0126 28.018 75.0126 28.033 75.0126C29.5498 75.116 31.0679 75.0475 32.5848 75.0525C34.484 75.0587 36.3832 75.0301 38.2836 75.0164C39.0159 75.0749 39.7494 75.0774 40.4817 75.0351C40.5713 75.0388 40.6635 75.0351 40.7631 75.0201C40.7656 75.0201 40.7669 75.0201 40.7694 75.0201C42.9052 75.0313 45.0397 75.0425 47.1755 75.0488C47.249 75.0488 47.3225 74.989 47.3947 74.9566C47.5168 74.9516 47.6388 74.9466 47.7609 74.9417C48.3238 74.8495 48.655 74.5282 48.7372 73.9591C48.7422 73.3787 48.7459 72.7996 48.7509 72.2193C48.7509 71.8058 48.7509 71.3911 48.7509 70.9776C48.7534 70.5854 48.7945 70.1893 48.7509 69.8033L48.7497 69.802ZM46.9937 28.8257C47.1145 28.9415 47.2365 29.0586 47.3574 29.1744C47.3574 29.1794 47.3574 29.1831 47.3574 29.1881C47.2353 29.066 47.1145 28.9465 46.9937 28.8257ZM18.8571 74.9429C18.8733 74.9242 18.887 74.9055 18.8995 74.8881C18.9082 74.9068 18.9194 74.9242 18.9281 74.9429C18.9044 74.9429 18.8808 74.9429 18.8571 74.9429ZM28.5834 74.9454C28.5909 74.9329 28.5984 74.9205 28.6046 74.908C28.6096 74.9205 28.6158 74.9317 28.6208 74.9441C28.6083 74.9441 28.5959 74.9441 28.5834 74.9441V74.9454ZM86.762 62.1692C86.7633 62.1243 86.7645 62.0795 86.767 62.0347C86.7795 61.9537 86.7907 61.8728 86.8031 61.7918C86.7919 61.5415 86.7807 61.2912 86.7695 61.0409C86.7807 60.6261 86.7907 60.2102 86.8019 59.7955C86.7471 59.5078 86.8492 59.1977 86.6749 58.9275C86.6151 57.9822 86.4245 57.0681 86.0435 56.1976C86.0198 56.098 86.0061 55.9946 85.97 55.9012C84.8504 52.9746 82.8665 50.7853 80.2027 49.1825C79.7531 48.9122 79.2873 48.6669 78.778 48.3817C79.1304 48.1413 79.4144 47.9471 79.6983 47.754C80.2625 47.4639 80.7731 47.1002 81.2164 46.6457C81.529 46.4339 81.8416 46.221 82.0446 45.8885C82.2463 45.7951 82.3447 45.6095 82.4556 45.4339C82.7295 45.0877 83.0919 44.8112 83.2713 44.3915C83.615 43.942 83.9027 43.4637 84.0708 42.9195C84.3124 42.5808 84.4083 42.1835 84.5241 41.7937C84.61 41.4612 84.696 41.1287 84.7819 40.7974C84.8479 40.2158 85.1069 39.6616 85.0347 39.0601C85.0534 38.481 85.2452 37.9044 85.0609 37.3228C85.0472 36.8894 85.102 36.4498 84.9936 36.0252C84.9911 35.9591 84.9662 35.8894 84.9301 35.8234C84.8977 35.0463 84.7408 34.2978 84.4369 33.5805C84.4257 33.4995 84.4282 33.4124 84.4008 33.3376C82.9562 29.3774 80.1255 26.8418 76.2275 25.4034C75.3744 24.9626 74.4304 24.8455 73.5101 24.6487C73.063 24.4843 72.6022 24.4084 72.1265 24.4196C71.7354 24.2178 71.2609 24.4208 70.8811 24.163H70.5087C70.4427 24.2502 70.2995 24.2029 70.2385 24.3C70.1252 24.2925 70.0118 24.2863 69.8985 24.2788C69.911 24.2452 69.9072 24.2066 69.8873 24.1643H68.1475C68.1351 24.1643 68.1214 24.1767 68.1077 24.2004C68.1027 24.2103 68.1014 24.2191 68.1039 24.229C68.1002 24.229 68.0977 24.229 68.094 24.229C67.8648 24.1966 67.622 24.2988 67.4015 24.1643H67.0292C67.0267 24.2004 67.0242 24.2365 67.0217 24.2726C66.5684 24.3274 66.1163 24.381 65.663 24.4358C64.988 24.4856 64.3292 24.6226 63.6804 24.8119C63.2644 24.9327 62.8485 25.0522 62.4313 25.173C62.115 25.2228 61.8198 25.3299 61.5421 25.4893C61.1921 25.5753 60.8696 25.7235 60.5657 25.9128C59.9268 26.132 59.359 26.4794 58.821 26.8817C58.3129 27.1432 57.8608 27.4807 57.4548 27.8817C57.0936 28.1457 56.7213 28.396 56.4697 28.7796C56.05 29.0698 55.7711 29.4857 55.4759 29.8867C55.2667 30.0972 55.0662 30.3151 54.9665 30.6028C54.639 30.9752 54.3887 31.3936 54.2256 31.8631C53.9478 32.228 53.8034 32.6515 53.6975 33.0898C53.4883 33.4335 53.3974 33.8134 53.3526 34.2082C53.172 34.5618 53.0985 34.9392 53.1047 35.334C52.9241 35.6055 53.0001 35.9118 52.9839 36.2057C52.9715 36.2394 52.9603 36.273 52.9515 36.3054C52.7909 36.8459 52.8818 37.4 52.8818 37.9505C52.8818 38.2008 52.8818 38.4524 52.8831 38.7027C52.8831 38.7077 52.8831 38.7127 52.8831 38.7176C52.8781 38.7587 52.8743 38.7998 52.8743 38.8384C52.8619 39.1286 52.9055 39.4113 52.9951 39.689C52.9441 39.9941 53.0836 40.2706 53.1271 40.562C53.2417 41.389 53.497 42.1723 53.8719 42.9183C53.8843 42.9581 53.8918 42.9992 53.9092 43.0353C54.9466 45.2782 56.6553 46.8773 58.7562 48.1077C58.8957 48.1899 59.2942 48.1413 59.0825 48.5249C58.7325 48.5685 58.4685 48.7815 58.1921 48.9708C57.6466 49.18 57.1684 49.5013 56.7088 49.8562C56.1982 50.1252 55.7673 50.5001 55.3501 50.8911C55.0463 51.0742 54.8059 51.3233 54.6029 51.6097C54.3289 51.8027 54.0873 52.0244 53.9503 52.3395C53.6415 52.5798 53.436 52.9036 53.2392 53.2324C53.0375 53.4952 52.822 53.7505 52.7311 54.0805C52.497 54.3806 52.3264 54.7131 52.2292 55.0818C51.9528 55.4541 51.8619 55.8962 51.7485 56.3309C51.5941 56.6372 51.4857 56.9573 51.4895 57.306C51.3189 57.7083 51.2354 58.1279 51.2479 58.5651C51.0436 59.0445 51.142 59.5502 51.1196 60.0446C51.086 60.0869 51.076 60.133 51.091 60.1828C50.9116 61.1019 51.1059 62.0073 51.2367 62.9139C51.2255 63.2539 51.2591 63.5876 51.3836 63.9077C51.487 64.6823 51.6962 65.427 52.0088 66.1444C53.4746 69.888 56.2007 72.3799 59.8123 73.9952C60.6342 74.451 61.5321 74.7001 62.4313 74.9429C62.7862 75.111 63.1561 75.2144 63.5534 75.2069C64.1549 75.4149 64.7825 75.4784 65.409 75.5544C65.7876 75.5731 66.1487 75.7462 66.536 75.6789C66.8424 75.71 67.1487 75.7574 67.4563 75.7698C68.5211 75.8109 69.5872 75.9255 70.647 75.7088C70.8089 75.7038 70.9695 75.6976 71.1314 75.6926C71.7715 75.725 72.398 75.644 73.0119 75.461C73.261 75.446 73.5238 75.5145 73.7479 75.3414C74.1415 75.3501 74.5126 75.2592 74.8713 75.1035C75.3445 75.0463 75.809 74.9516 76.2349 74.7225C76.5998 74.6714 76.9485 74.5718 77.2537 74.3551C77.6061 74.3015 77.9199 74.1521 78.2176 73.9615C78.7668 73.6888 79.3783 73.5307 79.8465 73.1022C80.3945 72.8482 80.8901 72.5182 81.3285 72.1022C81.7121 71.8681 82.067 71.6003 82.3484 71.2454C82.6797 70.9951 82.9649 70.6987 83.2239 70.3786C83.3223 70.1644 83.6113 70.1121 83.6648 69.8606C83.9189 69.6015 84.2315 69.3873 84.3124 68.9988C84.5067 68.8194 84.6873 68.6289 84.7856 68.3761C85.0534 68.0373 85.2502 67.66 85.4021 67.2577C85.569 66.9838 85.7371 66.711 85.7882 66.386C85.9675 66.0746 86.0983 65.7459 86.1531 65.3909C86.3237 64.9077 86.4856 64.422 86.5267 63.9052C86.574 63.6972 86.6848 63.5017 86.6412 63.2775C86.6525 63.1194 86.6649 62.9612 86.6761 62.8043C86.8206 62.6125 86.7795 62.3921 86.7708 62.1779L86.762 62.1692ZM79.717 57.4405C79.717 57.4405 79.722 57.443 79.7245 57.4442C79.6946 57.4629 79.6634 57.4878 79.6323 57.5202C79.6672 58.1491 79.8104 58.7593 79.9648 59.3658C79.9885 59.4244 80.0196 59.4767 80.0557 59.5277C79.7407 60.2725 79.7942 61.0209 80.0694 61.7731C80.0669 61.7931 80.0694 61.8105 80.0682 61.8292C80.0346 61.8105 80.0009 61.7931 79.9636 61.7794C79.6921 62.2588 79.656 62.7968 79.5813 63.3261C79.5862 63.366 79.5949 63.4046 79.6061 63.4407C79.2836 63.6487 79.2014 63.9538 79.2799 64.3237C78.9635 64.5503 78.7332 64.8218 78.778 65.244C78.783 65.249 78.7892 65.2552 78.7942 65.2602C78.5688 65.2751 78.4779 65.3797 78.5725 65.6076C78.093 65.7708 77.8315 66.1182 77.7232 66.594C77.7157 66.5915 77.7082 66.5877 77.7007 66.5852C77.2636 66.7546 76.9074 67.0074 76.7406 67.4632C76.7244 67.4595 76.7082 67.4557 76.692 67.452C76.1129 67.6861 75.5712 67.9751 75.1726 68.4745C74.5674 68.4371 74.1041 68.797 73.6072 69.0585C73.5948 69.0822 73.5836 69.1046 73.5748 69.127C73.1489 69.0062 72.7803 69.142 72.4428 69.406C72.4391 69.4184 72.4366 69.4297 72.4328 69.4421C72.0916 69.2553 71.794 69.3387 71.5262 69.6102C71.4963 69.5803 71.4664 69.5505 71.4365 69.5206C71.0829 69.4234 70.7528 69.5816 70.4128 69.6202C70.3693 69.6364 70.3244 69.6488 70.2796 69.6588C70.1501 69.5642 69.9869 69.5505 69.8275 69.5467C69.0641 69.5268 68.2995 69.5243 67.536 69.548C67.3754 69.5529 67.2172 69.5766 67.089 69.6775C67.0603 69.6488 67.0317 69.6202 67.0018 69.5928C66.4028 69.3412 65.7639 69.3338 65.1312 69.2815C65.0752 69.2877 65.0279 69.3001 64.9905 69.3188C64.4463 68.8306 63.7775 68.6862 63.0764 68.6251C63.0789 68.6065 63.0826 68.5865 63.0876 68.5666C62.9905 68.3026 62.7277 68.2466 62.5197 68.1258C60.9418 67.2117 59.6093 66.0572 58.7948 64.3834C58.6977 64.1854 58.6254 63.9575 58.3876 63.8641C58.3677 63.8678 58.349 63.8691 58.3303 63.8703C58.3963 63.2726 58.2842 62.7283 57.8396 62.2862C57.8795 62.2601 57.9094 62.2115 57.9293 62.1355C57.8645 61.4842 57.9293 60.8254 57.8147 60.1766C57.7537 60.1579 57.6964 60.1317 57.6416 60.1043C57.6553 60.0882 57.6702 60.0695 57.6839 60.0483C57.9691 59.6759 57.9343 59.2401 57.9293 58.8104C57.8683 58.7942 57.8097 58.773 57.7537 58.7494C57.7699 58.7295 57.7873 58.7058 57.8035 58.6821C58.0065 58.5103 58.1086 58.3172 57.9368 58.0682C57.9604 58.0594 57.9841 58.0495 58.009 58.0358C58.1858 57.5588 58.5358 57.1416 58.5071 56.5949C58.4947 56.5837 58.4835 56.5712 58.471 56.5588C58.7662 56.4305 58.9306 56.2312 58.8596 55.9062C59.2058 55.7157 59.4349 55.4479 59.4586 55.0469C59.9293 54.7617 60.4113 54.4865 60.5371 53.89C60.547 53.89 60.5558 53.8937 60.5657 53.8937C61.1174 53.6583 61.6754 53.4342 61.9929 52.8737C62.3927 52.9136 62.7102 52.7965 62.8933 52.4229C62.912 52.4266 62.9307 52.4304 62.9506 52.4316C63.1237 52.3968 63.3167 52.393 63.4077 52.2286C63.4326 52.2324 63.4575 52.2349 63.4849 52.2361C63.8821 52.1751 64.2894 52.1415 64.5746 51.8002C64.5746 51.7803 64.5721 51.7629 64.5696 51.7442C64.7564 51.8787 64.9121 51.8164 65.0528 51.657C65.054 51.6421 65.0528 51.6284 65.054 51.6134C65.1848 51.6956 65.2994 51.718 65.3791 51.6147C65.4115 51.6221 65.4451 51.6271 65.4799 51.6309C65.7975 51.6433 66.1138 51.6545 66.3791 51.4316C66.3903 51.4005 66.3978 51.3718 66.404 51.3432C66.404 51.3432 66.4053 51.3444 66.4065 51.3457C66.754 51.5997 67.0678 51.5698 67.3505 51.2809C67.4215 51.3233 67.4987 51.3581 67.5871 51.3768C68.3841 51.4316 69.1824 51.464 69.9807 51.3531C70.0218 51.2809 70.0529 51.2224 70.0691 51.1738C70.0729 51.1738 70.0766 51.1738 70.0803 51.1738C70.094 51.1713 70.1115 51.1987 70.1277 51.2124C70.1712 51.2124 70.2161 51.2124 70.2597 51.2137C70.8786 51.2921 71.4976 51.3718 72.1165 51.4503C72.8264 51.6495 73.5362 51.85 74.2461 52.0493C74.2897 52.0954 74.3333 52.1402 74.3769 52.185C74.5051 52.3283 74.6757 52.4017 74.8439 52.4827C76.4404 53.2511 77.8004 54.2984 78.7655 55.8116C78.8764 55.9847 78.9635 56.1777 79.1504 56.291C79.164 56.296 79.1765 56.3022 79.1902 56.3085C79.1441 56.7792 79.367 57.1379 79.7195 57.443L79.717 57.4405ZM60.1896 34.6279C60.1896 34.6279 60.1971 34.6279 60.2021 34.6279C60.5757 34.253 60.963 33.8881 61.0913 33.3439C61.085 33.3377 61.0788 33.3314 61.0726 33.3252C61.4649 33.116 61.846 32.8943 62.0079 32.4509C62.0303 32.4509 62.0514 32.4509 62.0751 32.4497C62.5185 32.2156 62.9967 32.0263 63.2532 31.5568C63.2781 31.5618 63.3043 31.5655 63.3317 31.5667C63.8971 31.3563 64.4998 31.2243 64.9656 30.8021C64.9669 30.7896 64.9669 30.7784 64.9681 30.766C65.4513 30.878 65.8859 30.7485 66.2944 30.4795C66.3069 30.4472 66.3131 30.416 66.3168 30.3849C66.6556 30.5792 66.9719 30.6277 67.2309 30.2952C67.3106 30.3425 67.3978 30.3799 67.4974 30.3973C68.2721 30.4721 69.0504 30.4297 69.8275 30.4247C69.9882 30.4247 70.1538 30.4135 70.2858 30.3164C70.3319 30.3301 70.378 30.3438 70.4228 30.3587C70.7242 30.4135 71.0156 30.5742 71.3332 30.4297C71.3494 30.3973 71.3606 30.3674 71.368 30.3388C71.3705 30.3413 71.373 30.3438 71.3755 30.3475C71.8699 30.7087 72.4129 30.8681 73.0169 30.7884C73.0206 30.7959 73.0256 30.8033 73.0294 30.8108C73.1377 30.9752 73.3046 31.0561 73.4802 31.1221C74.5014 31.507 75.3594 32.1496 76.1814 32.8445C76.3283 32.969 76.4566 33.1222 76.6571 33.1621C76.6222 33.2716 76.6534 33.3775 76.7244 33.4572C77.357 34.1671 77.6796 35.055 78.1267 35.872C78.1466 35.8869 78.1653 35.9031 78.1839 35.9193C78.0345 36.39 78.1478 36.8085 78.4741 37.1846C78.4293 37.1995 78.3894 37.2444 78.3558 37.3104C78.1939 37.7973 78.4567 38.2693 78.4131 38.7525C78.4218 39.0016 78.4318 39.2507 78.3882 39.4972C78.3845 39.5595 78.3882 39.6193 78.4031 39.6803C78.4094 39.6953 78.4168 39.7102 78.4243 39.7251C78.0943 40.024 78.1117 40.4462 78.0656 40.8447C78.0669 40.8833 78.0719 40.9207 78.0781 40.9568C77.7904 41.1361 77.7456 41.4188 77.8228 41.7563C77.8178 41.7563 77.8128 41.7538 77.8078 41.7526C77.4467 41.9867 77.1603 42.2682 77.2001 42.7464C76.6073 43.0079 76.1889 43.4475 75.8875 44.0055C75.8676 43.9968 75.8476 43.988 75.8252 43.9818C75.3495 44.2197 74.8513 44.4252 74.5263 44.876C74.5001 44.8648 74.474 44.8536 74.4466 44.8449C74.0431 44.9532 73.6147 45.0155 73.3644 45.4152C73.3569 45.4252 73.3519 45.4339 73.3457 45.4439C73.3233 45.404 73.3009 45.3654 73.2797 45.3243C72.7106 45.4339 72.0966 45.4127 71.6495 45.8723C71.6134 45.8436 71.576 45.8162 71.5374 45.7901C71.2448 45.7328 70.9533 45.6768 70.7678 45.9918C70.7491 45.9719 70.7292 45.9532 70.7105 45.9333C70.5312 45.8586 70.3481 45.8673 70.1625 45.9084C70.0031 45.9557 69.84 45.9669 69.6768 45.9893C69.4303 46.023 69.1015 45.9096 68.8947 46.0279C68.3181 46.0217 67.7415 46.0167 67.1637 46.0105C67.0877 45.9719 67.0055 45.942 66.932 45.947C66.3554 45.815 65.7489 45.8436 65.1898 45.6244C64.3965 45.277 63.5546 45.0379 62.8061 44.5883C62.78 44.5485 62.7576 44.5061 62.7376 44.4613C62.2955 43.942 61.7102 43.5796 61.2382 43.0889C60.8957 42.734 60.7077 42.2483 60.2706 41.9805C60.2444 41.9718 60.2195 41.9618 60.1959 41.9506C60.161 41.4114 60.0389 40.9095 59.5831 40.5483C59.5732 40.5421 59.5632 40.5359 59.5532 40.5309C59.5831 40.511 59.613 40.4861 59.6466 40.4512C59.6442 39.8422 59.6006 39.2382 59.4349 38.6479C59.415 38.5894 59.3876 38.5358 59.354 38.486C59.5757 38.0439 59.5669 37.5619 59.5669 37.0825C59.5495 37.0077 59.5196 36.9417 59.481 36.8795C59.7836 36.4822 59.8384 36.004 59.8907 35.5258C59.8658 35.5009 59.8422 35.4759 59.8173 35.451C60.08 35.2343 60.3391 35.0177 60.1909 34.6266L60.1896 34.6279Z" fill="url(#paint0_linear_243_150)"/>
<defs>
<linearGradient id="paint0_linear_243_150" x1="15.5855" y1="75.8993" x2="77.5438" y2="23.909" gradientUnits="userSpaceOnUse">
<stop stop-color="#E990D0"/>
<stop offset="1" stop-color="#39D1EE"/>
</linearGradient>
</defs>
</svg>
