<svg width="101" height="100" viewBox="0 0 101 100" fill="none" xmlns="http://www.w3.org/2000/svg">
<rect x="0.5" width="100" height="100" rx="20" fill="#1B1D21"/>
<path d="M82.2075 36.2087C79.8375 23.1621 69.3553 12.8522 56.3387 10.4664L52.9774 10.0016L48.4257 10C48.4162 10 48.4067 10.0016 48.3972 10.0016C32.3814 10.8111 19.2019 24.6245 18.326 40.4775V86.5265C18.6881 88.2514 19.9403 89.5415 21.632 90H23.651L24.6976 89.6174L64.6454 71.1684C73.8407 66.7051 80.5253 57.8719 82.2628 47.7707L82.6739 44.6783V39.6364L82.2075 36.2087Z" fill="#F9B22F"/>
<path d="M46.8857 28.8253C46.8415 29.3091 46.6264 29.5652 46.1917 29.7565C45.5513 30.0395 44.8193 30.215 44.1553 30.5217C41.0423 31.9542 38.5095 34.5676 37.1766 37.7202C36.9743 38.1992 36.6407 39.4751 36.3672 39.7692C36.179 39.9731 35.8676 40.0917 35.5909 40.1138C33.2162 39.9573 30.5885 40.3146 28.2438 40.1138C27.7253 40.0696 27.2083 39.7407 27.1545 39.181C27.1245 38.8569 27.477 37.8134 27.5861 37.4356C29.4043 31.1589 33.0264 26.166 38.7735 22.9597C40.5142 21.9874 43.7885 20.5897 45.7506 20.4063C46.3782 20.3478 46.7766 20.7826 46.8826 21.3723C46.7213 23.7739 47.0976 26.4553 46.8857 28.8253Z" fill="#1B1D21"/>
<path d="M69.6525 56.8458C62.3624 67.3028 48.6454 70.1818 37.7506 63.3834C37.3506 63.1336 36.9474 62.7621 36.5142 62.6324V75.2648C36.5142 75.5352 36.1347 76.0285 35.8802 76.1439L28.5853 79.5541C27.8739 79.7834 27.1893 79.1099 27.2067 78.4047V48.1486C27.243 47.5858 27.681 47.1478 28.2438 47.1115C30.6296 47.2759 33.2921 46.9012 35.6462 47.1115C36.0193 47.1447 36.3245 47.3186 36.5253 47.6348C39.3506 57.1241 50.9458 60.9929 58.9284 54.9802C67.6541 48.4079 66.0842 34.6245 56.0019 30.3542C55.1909 30.0095 53.9798 29.9178 53.8865 28.8806C53.6747 26.5123 54.051 23.8292 53.8897 21.4277C53.934 20.9296 54.4162 20.4269 54.9237 20.4458C55.662 20.4727 57.4233 21.0751 58.179 21.3423C72.6502 26.4901 78.5348 44.1075 69.6525 56.8458Z" fill="#1B1D21"/>
</svg>
