<svg width="101" height="100" viewBox="0 0 101 100" fill="none" xmlns="http://www.w3.org/2000/svg">
<rect x="0.5" width="100" height="100" rx="20" fill="black"/>
<path d="M78.298 17.1949H22.7021C15.8624 17.1949 10.3177 22.7395 10.3177 29.5792V70.4208C10.3177 77.2605 15.8624 82.8051 22.7021 82.8051H78.298C85.1377 82.8051 90.6823 77.2605 90.6823 70.4208V29.5792C90.6823 22.7395 85.1377 17.1949 78.298 17.1949Z" fill="#DCD625"/>
<path fill-rule="evenodd" clip-rule="evenodd" d="M75.3764 46.2037H67.2926V62.0439C67.2926 63.6469 67.7407 64.8965 68.6284 65.7842C69.5161 66.6719 70.6795 67.12 72.1015 67.12C73.1271 67.12 74.2216 66.9649 75.3764 66.6547V73.937C74.0837 74.2473 72.6617 74.4024 71.1018 74.4024C67.3615 74.4024 64.371 73.4199 62.1475 71.4636C59.9671 69.4987 58.8726 66.6547 58.8726 62.9057V46.1951H52.9864V39.1799H58.8726V28.9501H67.2926V39.1799H75.3764V46.2037Z" fill="#08271F"/>
<path fill-rule="evenodd" clip-rule="evenodd" d="M23.8914 46.1692H29.7776V73.8422H38.1976V46.1692H46.3504V39.154H38.1976V36.8185C38.1976 35.2155 38.6457 33.9659 39.5334 33.0782C40.4728 32.1905 41.6018 31.7424 42.9462 31.7424C44.1527 31.7424 45.2817 31.8803 46.359 32.1474V24.9943C45.0663 24.6841 43.5753 24.529 41.8775 24.529C38.2665 24.529 35.3536 25.5114 33.1215 27.4678C30.8894 29.4327 29.7776 32.2767 29.7776 36.0256V39.1713H23.8914V46.1865V46.1692Z" fill="#08271F"/>
</svg>
