<svg width="101" height="100" viewBox="0 0 101 100" fill="none" xmlns="http://www.w3.org/2000/svg">
<rect x="0.5" width="100" height="100" rx="20" fill="black"/>
<path d="M90.5491 82.6508L83.5374 28.1216C85.2069 26.7158 86.2788 24.5367 86.2788 22.0237C86.2788 17.6481 82.9224 14.2037 78.6521 14.2037C74.3819 14.2037 71.0254 17.7886 71.0254 22.0237C71.0254 23.9041 71.781 25.7668 72.853 27.0145L50.4298 76.3772L28.1823 27.0321C29.2542 25.6262 30.0099 23.9041 30.0099 22.0413C30.0099 17.6656 26.6534 14.2213 22.3832 14.2213C18.1129 14.2213 14.7564 17.8062 14.7564 22.0413C14.7564 24.5367 15.8284 26.7333 17.656 28.1392L10.4686 82.6508C10.3105 84.2148 11.2243 85.4625 12.7531 85.7788C14.1238 85.937 15.4945 85.0056 15.8108 83.4416L22.6819 29.8613H23.4375L47.9871 83.9161C48.444 85.0056 49.516 85.6382 50.5879 85.6382C51.6599 85.6382 52.7143 85.0056 53.1887 83.9161L77.5801 29.7032H78.3358L85.1893 83.2834C85.3475 84.6893 86.56 85.6207 87.7901 85.6207H88.0888C89.6177 85.4625 90.6897 84.0567 90.5315 82.6508H90.5491ZM22.225 24.3785C21.0125 24.3785 19.9405 23.289 19.9405 22.0413C19.9405 20.7936 21.0125 19.7041 22.225 19.7041C23.4375 19.7041 24.5095 20.7936 24.5095 22.0413C24.5095 23.289 23.5957 24.3785 22.225 24.3785ZM78.6521 24.3785C77.4396 24.3785 76.3676 23.289 76.3676 22.0413C76.3676 20.7936 77.4396 19.7041 78.6521 19.7041C79.8646 19.7041 80.9366 20.7936 80.9366 22.0413C80.9366 23.289 80.0228 24.3785 78.6521 24.3785Z" fill="#22A6AE"/>
</svg>
