<svg width="101" height="100" viewBox="0 0 101 100" fill="none" xmlns="http://www.w3.org/2000/svg">
<rect x="0.5" width="100" height="100" rx="20" fill="white"/>
<path d="M18.968 79.706H42.7222C42.9494 79.706 42.8893 79.1066 42.9216 78.9541C46.9214 59.9634 50.9593 40.9726 54.987 22.0653C55.0413 21.8074 55.4722 20.4634 55.349 20.3417C54.5312 20.3578 53.7104 20.3227 52.8926 20.3388C50.7776 20.3784 48.4501 20.4663 46.3806 20.7814C40.3127 21.7048 35.0304 23.8608 31.3676 29.0097C27.7284 34.1235 26.997 40.7938 25.7673 46.7239C23.5702 57.3237 21.3395 67.9278 19.2289 78.5393C19.1908 78.7284 19.0765 78.8662 19.0442 79.0142C19.0003 79.2165 19.0706 79.4832 18.9666 79.706H18.968Z" fill="white"/>
<path d="M74.353 23.5178C71.3879 21.4659 66.9733 20.0222 63.3619 20.3388C63.2373 20.349 62.8313 20.3974 62.7742 20.4839L55.6466 54.3029C55.8826 54.3132 56.1083 54.4304 56.3208 54.5286C69.6057 60.6024 83.8096 49.9762 81.8514 35.5276C81.3384 31.7476 79.0065 27.5118 76.1558 24.9513L74.353 23.5178Z" fill="white"/>
<path d="M18.968 79.706C19.0721 79.4847 19.0017 79.218 19.0457 79.0142C19.0779 78.8662 19.1923 78.7284 19.2304 78.5393C21.3395 67.9264 23.5717 57.3237 25.7688 46.721C26.9985 40.7908 27.7298 34.1205 31.3691 29.0068C35.0304 23.8593 40.3127 21.7033 46.3806 20.7799C48.4501 20.4648 50.7776 20.3784 52.8926 20.3373C53.7104 20.3227 54.5312 20.3564 55.349 20.3402C55.4707 20.4634 55.0413 21.8059 54.987 22.0639C50.9593 40.9711 46.9214 59.9619 42.9216 78.9527C42.8893 79.1051 42.9494 79.7046 42.7222 79.7046H18.968V79.706Z" fill="#EE2785"/>
<path d="M74.353 23.5178L76.1558 24.9513C79.0065 27.5118 81.3384 31.7476 81.8514 35.5276C83.8096 49.9762 69.6057 60.6024 56.3208 54.5286C56.1068 54.4304 55.8826 54.3132 55.6466 54.3029L62.7742 20.4824C62.8313 20.3974 63.2373 20.349 63.3619 20.3373C66.9733 20.0222 71.3879 21.4644 74.353 23.5164V23.5178Z" fill="#EE2785"/>
</svg>
