<svg width="101" height="100" viewBox="0 0 101 100" fill="none" xmlns="http://www.w3.org/2000/svg">
<rect x="0.5" width="100" height="100" rx="20" fill="black"/>
<path fill-rule="evenodd" clip-rule="evenodd" d="M28.6666 9.35327C33.6951 9.35327 37.7698 13.4281 37.7698 18.4565C37.7698 23.485 33.6951 27.5598 28.6666 27.5598C23.6381 27.5598 19.5634 23.485 19.5634 18.4565C19.5634 13.4281 23.6381 9.35327 28.6666 9.35327ZM81.4076 72.4113V46.9511C81.4076 36.8942 73.258 28.7735 63.2011 28.7735H47.8846C42.9428 28.7735 38.9547 32.7905 38.9547 37.7034C38.9547 42.6162 42.9717 46.6332 47.8846 46.6332H63.5479V72.7581H37.452V57.1236C37.452 52.1819 33.435 48.1938 28.5221 48.1938C23.6092 48.1938 19.5923 52.2108 19.5923 57.1236V72.4402C19.5923 82.4971 27.7418 90.6467 37.7987 90.6467H63.23C73.2869 90.6467 81.4365 82.4971 81.4365 72.4402L81.4076 72.4113Z" fill="url(#paint0_linear_244_297)"/>
<defs>
<linearGradient id="paint0_linear_244_297" x1="17.7716" y1="90.56" x2="71.842" y2="18.4854" gradientUnits="userSpaceOnUse">
<stop stop-color="#0781FE"/>
<stop offset="1" stop-color="#00C7B4"/>
</linearGradient>
</defs>
</svg>
