<svg width="101" height="100" viewBox="0 0 101 100" fill="none" xmlns="http://www.w3.org/2000/svg">
<rect x="0.5" width="100" height="100" rx="20" fill="black"/>
<path d="M39.7683 56.7534V86.7138L31.3204 78.0695V59.8477L10.299 41.8714V31.508L31.3204 49.5334L39.7683 56.7534Z" fill="#FF592D"/>
<path d="M69.6796 31.3115L61.2317 38.5315L54.8467 44.0325L50.4755 47.7161L46.1533 44.0325L39.7683 38.5315L31.3204 31.3115L10.299 13.2861V23.6004L31.3204 41.6258L39.7683 48.8949L46.1533 54.3467V86.3209H54.8467V54.3467L61.2317 48.8949L69.6796 41.6258L90.7011 23.6004V13.2861L69.6796 31.3115Z" fill="#FF592D"/>
<path d="M61.2317 56.7534V86.7138L69.6796 78.0695V59.8477L90.7011 41.8714V31.508L69.6796 49.5334L61.2317 56.7534Z" fill="#FF592D"/>
</svg>
