<svg width="101" height="100" viewBox="0 0 101 100" fill="none" xmlns="http://www.w3.org/2000/svg">
<rect x="0.5" width="100" height="100" rx="20" fill="black"/>
<path d="M75.9764 34.6275H23.7002C28.9995 25.7159 38.7068 19.7324 49.8304 19.7324C60.954 19.7324 70.6772 25.7159 75.9764 34.6275Z" fill="#3272EC"/>
<path d="M42.4146 79.5516C31.9117 76.9258 23.5729 68.8258 20.6289 58.4342H32.6755C35.2853 58.4342 37.8633 59.2458 39.8525 60.9327C41.4916 62.3331 42.5101 64.561 42.526 67.4095C42.5579 73.8386 42.4624 77.8647 42.4146 79.5516Z" fill="#8EA2FD"/>
<path d="M46.584 58.4342L46.3294 80.2677C44.9926 80.1245 43.6877 79.8857 42.4146 79.5675C42.4624 77.8647 42.5579 73.8386 42.526 67.4095C42.526 64.561 41.4916 62.3331 39.8525 60.9327C37.8633 59.2458 35.2853 58.4342 32.6755 58.4342H17.6531C13.3723 58.4342 9.9509 54.7582 10.3646 50.3979C10.7307 46.5945 14.1362 43.8096 17.9554 43.8096H31.9435C40.0276 43.8096 46.584 50.3501 46.584 58.4342Z" fill="#3272EC"/>
<path d="M90.6328 50.3979C91.0625 54.7582 87.6411 58.4342 83.3603 58.4342H68.322C65.728 58.4342 63.1341 59.2458 61.1608 60.9327C59.5058 62.3331 58.5033 64.561 58.4874 67.4095C58.4555 73.4248 58.5351 77.3396 58.5828 79.1856C57.3098 79.5675 56.0048 79.8698 54.684 80.0926L54.4294 58.4342C54.4294 50.3501 60.9699 43.8096 69.054 43.8096H83.042C86.8613 43.8096 90.2827 46.5945 90.6328 50.3979Z" fill="#3272EC"/>
<path d="M79.0477 58.4342C76.231 68.3802 68.4652 76.2256 58.5828 79.1856C58.5351 77.3396 58.4555 73.4248 58.4874 67.4095C58.5033 64.561 59.5058 62.3331 61.1608 60.9327C63.1341 59.2458 65.728 58.4342 68.322 58.4342H79.0477Z" fill="#8EA2FD"/>
</svg>
