<svg width="101" height="100" viewBox="0 0 101 100" fill="none" xmlns="http://www.w3.org/2000/svg">
<rect x="0.5" width="100" height="100" rx="20" fill="black"/>
<path d="M86.0304 11.6634C86.3212 11.6189 86.378 11.7346 86.378 11.978C86.3722 29.9068 86.3727 47.8356 86.3727 65.7644C86.3727 65.8563 86.3727 65.9482 86.3727 66.0536C76.4683 66.0536 66.6002 66.0536 56.6906 66.0536C56.6906 65.9447 56.6906 65.8448 56.6906 65.745C56.6906 50.2482 56.6911 34.7514 56.6856 19.2546C56.6856 19.0239 56.75 18.9091 56.9801 18.8187C62.5703 16.6238 68.1569 14.4202 73.7442 12.2182C73.9781 12.126 74.2191 12.0478 74.4446 11.9391C74.9177 11.711 75.4113 11.6543 75.9373 11.6565C79.2926 11.6701 82.648 11.6634 86.0304 11.6634Z" fill="#FF7802"/>
<path d="M41.3922 24.9834C44.0291 23.9428 46.6453 22.9105 49.2957 21.8647C49.2957 36.6052 49.2957 51.3172 49.2957 66.0484C44.7608 66.0484 40.2245 66.0484 35.6401 66.0484C35.6401 65.9491 35.6401 65.8505 35.6401 65.7519C35.6401 53.0183 35.6405 40.2848 35.6363 27.5512C35.6363 27.3497 35.6756 27.2317 35.8914 27.1478C37.7213 26.4368 39.5455 25.7122 41.3922 24.9834Z" fill="#FF7802"/>
<path d="M16.6715 34.7361C20.5397 33.2078 24.3869 31.6865 28.2743 30.1492C28.2743 42.1311 28.2743 54.0743 28.2743 66.0426C23.7406 66.0426 19.1977 66.0426 14.6222 66.0426C14.6222 65.9384 14.6222 65.8375 14.6222 65.7366C14.6222 55.783 14.6233 45.8294 14.6155 35.8758C14.6153 35.6291 14.6839 35.5095 14.9225 35.4228C15.5042 35.2113 16.0751 34.9716 16.6715 34.7361Z" fill="#FF7802"/>
<path d="M32.8153 83.7608C32.8153 85.1825 32.8153 86.5758 32.8153 87.9916C31.9348 87.9916 31.0762 87.9916 30.1707 87.9916C30.1707 84.1278 30.1707 80.2643 30.1707 76.4008C30.1417 76.3936 30.1127 76.3865 30.0837 76.3793C30.0419 76.4544 29.9917 76.5263 29.9595 76.605C28.4711 80.2454 26.9841 83.8863 25.497 87.5271C25.4898 87.5446 25.4803 87.5613 25.4733 87.5788C25.3001 88.0142 25.3001 88.0142 24.8219 88.0142C24.1995 88.0142 23.5768 88.0036 22.9549 88.0199C22.7341 88.0257 22.6342 87.9543 22.5489 87.7604C21.2271 84.7558 19.8967 81.7547 18.5684 78.7528C18.2354 78.0002 17.9034 77.2473 17.5687 76.4954C17.533 76.4151 17.4827 76.3409 17.4392 76.2639C17.4095 76.2706 17.3798 76.2774 17.35 76.2841C17.35 80.1822 17.35 84.0803 17.35 87.9962C16.4467 87.9962 15.5968 87.9962 14.7299 87.9962C14.7299 82.3284 14.7299 76.6693 14.7299 70.9938C14.8155 70.9865 14.8903 70.9746 14.965 70.9744C15.85 70.9731 16.7351 70.9803 17.6199 70.9685C17.8213 70.9658 17.9104 71.039 17.9851 71.2079C19.2509 74.072 20.5225 76.9339 21.7923 79.7964C22.4674 81.3184 23.1414 82.841 23.8168 84.3629C23.8657 84.473 23.9222 84.5799 24.0057 84.7506C24.0877 84.6228 24.1523 84.5494 24.1868 84.4646C25.1808 82.0215 26.1719 79.5773 27.1634 77.1333C27.97 75.1448 28.7753 73.1558 29.588 71.1696C29.6202 71.0908 29.7217 70.9837 29.7922 70.9828C30.7831 70.9706 31.7742 70.9745 32.8153 70.9745C32.8153 75.2404 32.8153 79.4865 32.8153 83.7608Z" fill="#FF7802"/>
<path d="M36.8559 75.85C38.714 74.8202 40.6087 74.6255 42.5595 75.5145C43.2563 75.8321 43.8237 76.3192 44.2846 76.9196C44.3448 76.998 44.4127 77.0708 44.5507 77.1268C44.5606 77.0412 44.5785 76.9556 44.579 76.8699C44.5819 76.4269 44.5881 75.9837 44.5769 75.5409C44.5721 75.3496 44.6273 75.2733 44.8381 75.2764C45.5576 75.2867 46.2774 75.284 46.9971 75.2776C47.1678 75.2761 47.2384 75.3211 47.2383 75.4999C47.2337 79.6285 47.2341 83.7571 47.2329 87.8858C47.2329 87.9129 47.2233 87.9401 47.2137 87.9906C46.3671 87.9906 45.519 87.9906 44.63 87.9906C44.63 87.4089 44.63 86.831 44.63 86.1749C44.5133 86.271 44.4511 86.3071 44.4095 86.3588C43.1942 87.8721 41.5837 88.471 39.6387 88.3054C37.7476 88.1443 36.2224 87.3491 35.1238 85.8368C34.3284 84.7419 33.9744 83.496 33.9053 82.1742C33.8298 80.7298 34.0588 79.3367 34.7725 78.0454C35.2685 77.1479 35.9476 76.4097 36.8559 75.85ZM37.1116 79.408C36.4684 80.736 36.4172 82.1014 36.9069 83.4737C37.4071 84.8756 38.4348 85.7254 39.9544 85.9486C41.4449 86.1676 42.7421 85.7799 43.6922 84.5987C44.6598 83.3957 44.818 82.0033 44.5545 80.5477C44.2505 78.8687 43.0063 77.6313 41.4103 77.3835C39.5334 77.0922 38.0039 77.8018 37.1116 79.408Z" fill="#FF7802"/>
<path d="M63.0065 86.9732C61.4011 85.6629 60.6916 83.9677 60.6096 81.9927C60.5564 80.7095 60.7625 79.4693 61.3737 78.3203C62.4329 76.3293 64.1405 75.229 66.4285 75.0059C68.3502 74.8185 70.1034 75.2392 71.5544 76.5431C72.5903 77.474 73.1916 78.6499 73.416 79.9849C73.5509 80.7873 73.5591 81.6098 73.6276 82.4651C70.1282 82.4651 66.7111 82.4651 63.2661 82.4651C63.2764 83.1345 63.4278 83.7306 63.7401 84.2828C64.4597 85.5548 65.6241 86.1146 67.0721 86.167C68.2954 86.2113 69.4075 85.9085 70.2805 85.0227C70.479 84.8214 70.6139 84.5623 70.7923 84.3407C70.8548 84.263 70.9592 84.1674 71.0461 84.1658C71.7948 84.1526 72.5439 84.1586 73.2928 84.1606C73.3296 84.1607 73.3663 84.1768 73.4305 84.192C73.2932 84.7749 73.0358 85.2956 72.6979 85.7787C71.8948 86.9267 70.7813 87.6662 69.4136 88.034C67.6218 88.516 65.8542 88.472 64.1559 87.6731C63.7573 87.4857 63.3995 87.2168 63.0065 86.9732ZM70.6004 79.1414C69.7549 77.3309 67.5895 76.7939 65.9268 77.3079C64.4761 77.7564 63.1881 79.3254 63.3563 80.4645C65.8756 80.4645 68.3954 80.4645 71.0001 80.4645C70.8639 80.0046 70.7418 79.5925 70.6004 79.1414Z" fill="#FF7802"/>
<path d="M80.5614 75.0512C82.1947 74.8083 83.671 75.0691 84.8928 76.1828C85.898 77.099 86.3485 78.2787 86.3654 79.5829C86.4008 82.3252 86.3762 85.0683 86.3756 87.811C86.3756 87.8659 86.367 87.9208 86.3608 87.9944C85.4875 87.9944 84.6269 87.9944 83.7208 87.9944C83.7208 87.886 83.7208 87.7769 83.7208 87.6677C83.7208 85.2266 83.721 82.7855 83.7207 80.3443C83.7205 78.7509 82.6774 77.5378 81.1769 77.3847C79.5079 77.2144 78.0389 78.241 77.7208 79.8109C77.6688 80.0677 77.6438 80.3338 77.6432 80.5956C77.6374 82.9425 77.6398 85.2894 77.6398 87.6363C77.6398 87.7477 77.6398 87.8592 77.6398 87.9924C76.7574 87.9924 75.8975 87.9924 75.0131 87.9924C75.0131 83.7724 75.0131 79.5479 75.0131 75.2801C75.2059 75.2801 75.396 75.2801 75.5861 75.2801C76.1696 75.2802 76.7531 75.2847 77.3365 75.2777C77.5129 75.2755 77.5761 75.3335 77.5715 75.507C77.5611 75.9025 77.5672 76.2986 77.5692 76.6945C77.5697 76.7832 77.5812 76.8718 77.6284 76.992C78.3145 75.9244 79.2907 75.2956 80.5614 75.0512Z" fill="#FF7802"/>
<path d="M58.4485 82.2462C57.7272 84.0881 57.0084 85.9075 56.3054 87.7325C56.2181 87.9592 56.1019 88.0243 55.8632 88.0199C55.0856 88.0056 54.3074 88.0106 53.5296 88.0177C53.371 88.0191 53.2903 87.9776 53.2307 87.8253C51.6208 83.7066 50.0052 79.59 48.3912 75.4728C48.3746 75.4305 48.367 75.3849 48.3446 75.3012C48.4651 75.2933 48.5652 75.2814 48.6654 75.2811C49.3849 75.2795 50.1049 75.2922 50.8239 75.2737C51.0653 75.2674 51.1553 75.3523 51.2312 75.5606C52.3238 78.5599 53.4246 81.5563 54.5284 84.5517C54.5735 84.674 54.6669 84.7795 54.7378 84.8929C54.8075 84.7777 54.8986 84.6699 54.9437 84.5463C56.0329 81.5657 57.1199 78.5844 58.197 75.5997C58.2839 75.3589 58.3911 75.2635 58.6683 75.2725C59.3871 75.2957 60.1072 75.2803 60.8267 75.2803C60.9221 75.2803 61.0175 75.2803 61.1771 75.2803C60.258 77.6262 59.3569 79.9258 58.4485 82.2462Z" fill="#FF7802"/>
</svg>
