<svg width="101" height="100" viewBox="0 0 101 100" fill="none" xmlns="http://www.w3.org/2000/svg">
<rect x="0.5" width="100" height="100" rx="20" fill="black"/>
<path d="M50.6409 38.4192C48.8103 38.4192 46.7294 39.8797 45.9929 41.684L39.1424 58.3228C38.4059 60.1269 39.2855 61.5875 41.1088 61.5875H50.3691C52.1997 61.5875 54.2806 60.1269 55.0171 58.3228L61.8604 41.684C62.5969 39.8797 61.7174 38.4192 59.8939 38.4192H50.6409Z" fill="#FF7A00"/>
<path d="M88.2542 21H78.9296C77.099 21 75.011 22.4605 74.2745 24.2647L54.8959 71.124C53.0868 75.4698 49.4684 78.9923 49.4684 78.9923H64.2849C66.1155 78.9923 68.2035 77.5318 68.94 75.7276L90.2135 24.2647C90.9571 22.4605 90.0848 21 88.2471 21H88.2542Z" fill="#FF7A00"/>
<path d="M12.7419 78.9928H22.0665C23.8971 78.9928 25.9851 77.5323 26.7216 75.7281L46.1002 28.8688C47.9093 24.523 51.5276 21.0077 51.5276 21.0077H36.7112C34.8806 21.0077 32.7926 22.4682 32.0561 24.2724L10.7826 75.7352C10.046 77.5394 10.9184 79 12.749 79L12.7419 78.9928Z" fill="#FF7A00"/>
</svg>
