<svg width="101" height="100" viewBox="0 0 101 100" fill="none" xmlns="http://www.w3.org/2000/svg">
<rect x="0.5" width="100" height="100" rx="20" fill="black"/>
<path d="M11.8789 50.0805C24.6802 36.5141 37.562 22.835 50.4437 9.172C63.3737 22.8833 76.2554 36.5784 89.1211 50.2253C83.2511 56.4372 77.2525 62.7618 71.1574 69.199C69.9834 67.9277 68.7612 66.5597 67.5229 65.2401C61.9906 59.3823 56.4423 53.5244 50.9101 47.6504C50.7332 47.4734 50.5724 47.1837 50.5724 46.9423C50.5724 41.0523 50.5402 35.0496 50.5563 29.1595V28.9181C50.9262 29.2078 51.4247 29.8354 51.7303 30.1573C59.5783 38.4452 67.3942 46.4917 75.2423 54.7796C75.4674 55.021 75.7087 55.2463 75.9016 55.4395C77.5581 53.6692 79.1824 51.9151 80.7745 50.2253C70.7554 39.6361 60.6237 28.9181 50.5402 18.2807C40.505 28.886 30.3572 39.6039 20.2898 50.2575C25.0984 55.3429 30.0195 60.541 34.9728 65.8034C40.0225 53.7014 45.0723 41.5512 50.1382 29.4009C50.1864 29.4009 50.2186 29.4331 50.2668 29.4331C47.3881 46.8297 44.5094 64.2102 41.6307 81.5745C31.692 71.0497 21.7855 60.5731 11.8789 50.0966V50.0805Z" fill="url(#paint0_linear_244_261)"/>
<path d="M50.6206 50.6437C57.0052 57.4189 63.3255 64.1297 69.6136 70.8083C66.7509 73.8177 63.8401 76.9076 60.8488 80.0779C59.4818 78.6134 58.0345 77.0524 56.5871 75.5075C54.6572 73.4637 52.7113 71.4198 50.7975 69.3599C50.6689 69.2151 50.5563 68.9737 50.5563 68.7806C50.5563 62.8423 50.5563 56.9039 50.5563 50.9495C50.5563 50.869 50.5885 50.8047 50.6206 50.6437Z" fill="url(#paint1_linear_244_261)"/>
<path d="M50.6206 72.5946C53.5315 75.7006 56.3941 78.7583 59.2406 81.7999C56.4263 84.7449 53.4993 87.8347 50.6206 90.828V72.5946Z" fill="url(#paint2_linear_244_261)"/>
<defs>
<linearGradient id="paint0_linear_244_261" x1="50.508" y1="9.172" x2="50.508" y2="101.246" gradientUnits="userSpaceOnUse">
<stop stop-color="#69037C"/>
<stop offset="1" stop-color="#360147"/>
</linearGradient>
<linearGradient id="paint1_linear_244_261" x1="50.4674" y1="-105.879" x2="50.4674" y2="120.606" gradientUnits="userSpaceOnUse">
<stop stop-color="#69037C"/>
<stop offset="1" stop-color="#360147"/>
</linearGradient>
<linearGradient id="paint2_linear_244_261" x1="54.9307" y1="89.444" x2="54.9307" y2="90.8119" gradientUnits="userSpaceOnUse">
<stop stop-color="#69037C"/>
<stop offset="1" stop-color="#360147"/>
</linearGradient>
</defs>
</svg>
