<svg width="101" height="100" viewBox="0 0 101 100" fill="none" xmlns="http://www.w3.org/2000/svg">
<rect x="0.5" width="100" height="100" rx="20" fill="black"/>
<path d="M57.1984 54.5864V58.5547H52.4576V82.6733H48.0255V58.5547H43.6451V54.5864H57.1984Z" fill="#4AFF88"/>
<path d="M34.2139 58.5547V66.4396H40.5526V70.408H34.2139V78.705H42.0989V82.6733H29.7819V54.5864H42.0989V58.5547H34.2139Z" fill="#4AFF88"/>
<path d="M70.9583 54.5864V58.5547H63.6921V67.1087H69.31V71.0771H63.6921V82.6733H59.26V54.5864H70.9583Z" fill="#4AFF88"/>
<path d="M16.4871 11.1946V88.8053H84.5128V11.1946H16.4871ZM57.8525 19.6712C57.4499 18.3942 59.3824 18.5791 59.2369 17.3389C59.2396 16.308 62.8979 17.5551 63.8322 17.4327C65.6314 17.9046 67.708 18.3711 68.694 19.9296C69.0571 20.1526 69.7466 20.1118 69.2896 20.7809C72.7955 23.8068 76.6959 28.2334 77.4275 33.0639V33.0666C78.4842 37.7829 82.1724 42.7018 75.5753 45.3075C75.9805 44.8029 76.3015 44.4004 76.6782 43.9285C73.9053 45.8243 74.8654 44.1638 72.8418 44.8206C73.8713 43.4308 72.9247 43.9135 72.0231 44.4602C72.1169 43.122 75.6746 42.3156 74.4084 40.5939C71.849 38.2371 73.67 38.1719 74.6111 35.7498C73.5299 36.3101 72.5181 38.0889 70.9134 38.384C70.1899 42.2354 68.3934 45.6298 63.824 45.5903C63.9763 45.419 64.1327 45.2476 64.4305 44.9185C63.6037 45.1674 62.9604 45.3619 62.1173 45.6162C63.3412 44.3637 62.1798 44.8641 61.1843 45.2585C62.1132 44.074 61.3992 44.38 60.435 44.8601C61.1639 42.5903 65.9578 43.2227 64.3816 40.1084C63.3888 37.7693 65.3879 35.7987 65.1703 33.5997C63.9954 31.3762 64.3938 30.4025 65.4519 28.7624C62.8666 30.9601 60.0434 32.7035 56.6462 33.0979C56.8611 32.815 56.9753 32.6641 57.144 32.4438H55.6331C57.59 31.0743 53.5115 32.3119 56.0655 30.922C53.1661 30.6704 56.5456 30.8105 56.8352 29.6545C60.2718 28.4115 59.7972 24.2297 62.3308 21.979C60.9273 22.4291 60.11 24.3956 58.6453 23.0058C59.2655 22.897 60.6037 22.3108 59.5551 21.7369C58.4713 21.0393 57.6186 22.2891 56.9264 21.5914C55.7854 20.7673 57.9123 20.4953 57.8525 19.6712ZM59.3919 37.0676C59.8407 38.7974 64.2701 42.098 61.5855 43.2771C60.6322 43.6075 60.095 43.122 60.2174 42.0953C60.1467 39.2788 57.8076 41.0427 59.3919 37.0676ZM26.873 32.4805C27.1585 33.1414 27.6998 32.9361 28.1744 32.9809C27.9283 34.8114 25.6517 35.2126 25.105 33.3726C26.5302 34.383 26.3494 33.7738 25.1567 33.0122C26.858 33.2733 26.8648 33.548 25.2886 31.9229C22.3851 30.4215 22.2002 34.9909 24.2755 36.0762C27.9256 36.8078 29.5493 30.6541 32.8064 29.2805C36.9284 26.7551 42.19 27.3984 46.8315 26.2179C48.9639 25.9922 50.9644 24.3154 52.9825 25.7352L52.9648 25.7175C52.9648 25.7175 52.9798 25.7256 52.988 25.7284C53.2545 25.4836 53.5238 25.2374 53.8638 24.9274C52.6425 24.7628 51.9789 24.9246 53.6516 24.2365C51.9354 24.1699 52.531 23.8299 53.8746 23.4545C53.4857 23.3158 53.2681 23.2383 52.8914 23.1037C55.4304 22.3965 57.5465 23.1839 60.1726 23.9496C59.1172 24.9532 59.8353 27.0788 58.5909 27.5534C56.2994 28.0824 55.1108 25.1232 52.9934 25.7324C56.4572 27.3195 58.6372 30.7561 53.245 30.0122C53.5088 30.431 54.2731 30.7561 53.4381 31.0593C56.9264 35.4465 58.765 31.5748 58.8656 34.3232L58.8684 34.3259C59.5891 37.5313 56.5945 40.2281 58.0252 43.0799C59.6571 45.4979 57.8498 44.8125 56.7006 43.2254C55.9458 42.1646 55.9594 42.1578 54.7872 42.6705C52.1788 43.477 48.3642 43.3369 51.1643 39.9167C49.1053 40.6823 47.132 42.7045 44.9099 42.4298C44.2204 42.0695 43.5772 42.2299 42.9053 42.3333C40.9769 42.5781 43.1909 39.2788 44.3578 40.2226C45.9503 41.1202 47.0423 41.0318 48.4294 39.6678C43.8913 38.5037 42.4049 38.1311 44.627 33.4814C43.9253 34.9665 42.2349 36.1047 43.0849 38.0168C41.661 38.0236 40.4506 37.3001 39.0499 36.9969C39.3953 36.3155 40.0277 35.8096 39.8931 34.9624C38.2176 41.0114 22.4722 36.7643 28.6341 43.6823C29.3698 45.2558 26.6703 44.1719 26.0012 43.9462C25.1404 43.5368 25.2655 42.4244 25.8979 41.8233C25.0941 40.7449 25.2193 39.9507 26.3208 38.9525C30.2647 35.1433 30.485 36.3414 32.495 30.8078C29.7356 32.4179 27.6332 39.0504 23.8104 36.5766C19.7237 33.9791 23.9219 28.1477 26.873 32.4805ZM42.1492 43.0799C42.8482 44.1379 41.0313 43.8088 40.4846 43.7231C38.733 43.0962 39.3069 40.3056 35.733 39.6787C33.2701 39.3904 38.4039 36.9941 39.3763 37.6224C37.2017 39.6678 41.6719 40.7 42.1492 43.0799ZM81.8324 86.1248H19.1662V51.2885H81.8324V86.1248Z" fill="#4AFF88"/>
<path d="M51.318 39.4992C50.9548 38.2398 50.2232 37.5476 49.1298 37.0934C50.3007 36.1551 51.3873 35.2861 52.5365 34.3654C52.3393 35.7008 51.1316 36.1292 50.3143 37.054C51.7069 37.2648 52.3257 38.3813 51.318 39.4992Z" fill="#4AFF88"/>
<path d="M56.1879 39.2693C54.473 36.408 52.1217 37.0594 52.7105 40.5395C52.1788 39.9615 52.1761 39.6909 51.4131 40.1111C52.4766 39.0504 51.7096 37.0853 53.4952 36.9071C54.5356 36.3155 53.4952 34.2933 54.7328 33.3332C53.9127 35.6016 56.3769 37.4973 56.1879 39.2693Z" fill="#4AFF88"/>
<path d="M59.1322 19.9296C59.003 20.3416 58.2305 20.547 58.2305 20.547L58.1789 19.7487C58.3584 19.6195 59.1322 19.9296 59.1322 19.9296Z" fill="#4AFF88"/>
<path d="M53.9182 42.321C53.9182 42.321 53.4884 42.0287 53.4884 41.7376C53.4884 41.7376 53.1444 42.3387 53.9182 42.321Z" fill="#4AFF88"/>
<path d="M52.4753 40.9121C52.4753 40.9121 52.3719 40.6551 52.2522 40.6714C52.1326 40.6877 51.3927 41.3582 51.5655 41.4099C51.7382 41.4616 52.4753 40.9121 52.4753 40.9121Z" fill="#4AFF88"/>
</svg>
