<svg width="101" height="100" viewBox="0 0 101 100" fill="none" xmlns="http://www.w3.org/2000/svg">
<rect x="0.5" width="100" height="100" rx="20" fill="black"/>
<path d="M58.5023 86.0256L76.5213 65.9736H62.17L45.3216 84.7228C44.5838 85.5441 43.6119 85.9902 42.5762 85.9902C41.5404 85.9902 40.5686 85.537 39.8308 84.7228L11.419 53.1083C9.87253 51.3878 9.87253 48.5981 11.419 46.8775L41.0013 13.9673H50.9401L18.5486 49.9929L42.5691 76.7218L56.5728 61.1376C57.3318 60.295 58.9351 59.5799 60.0701 59.5799H88.0775C89.1132 59.5799 89.8297 59.856 90.0426 60.3375C90.2554 60.819 89.9858 61.5341 89.2906 62.3059L67.9658 86.0327H58.4953L58.5023 86.0256ZM33.737 51.4232C33.0276 50.6372 33.0276 49.3557 33.737 48.5697L63.6668 15.2631C64.4046 14.4417 65.3765 13.9957 66.4122 13.9957C67.448 13.9957 68.4199 14.4488 69.1576 15.2631L89.922 38.3667C90.6101 39.1385 90.8868 39.8536 90.6668 40.3351C90.454 40.8166 89.7375 41.0927 88.7018 41.0927H57.2325L62.9858 34.692H76.6773L66.4051 23.2711L42.3846 49.9929L50.9968 59.5728L46.031 65.1027L33.7299 51.4232H33.737Z" fill="#F3CB45"/>
</svg>
