<svg width="101" height="100" viewBox="0 0 101 100" fill="none" xmlns="http://www.w3.org/2000/svg">
<rect x="0.5" width="100" height="100" rx="20" fill="white"/>
<path d="M95.429 28.5292H80.2197C74.3407 28.5292 68.4617 28.5292 62.5827 28.5304C62.1565 28.5304 62.1466 28.5403 62.1443 28.9587V29.2071C62.1443 36.6881 62.1421 44.1691 62.1521 51.6501C62.1532 52.0056 62.0527 52.2076 61.7204 52.3456C61.2876 52.5234 60.8758 52.7519 60.4541 52.9572C58.8124 53.7522 57.1441 54.4731 55.3832 54.9666C54.033 55.3453 52.664 55.618 51.2707 55.756C50.3653 55.8465 49.4567 55.8984 48.5503 55.9691C48.3527 55.9845 48.2235 55.9172 48.1396 55.7251C47.7731 54.8816 47.3955 54.0436 47.0234 53.2034C46.2329 51.4116 45.4446 49.6175 44.6519 47.8268C43.9299 46.195 43.2012 44.5665 42.4781 42.9359C41.692 41.1617 40.9114 39.3853 40.1265 37.6111C39.4221 36.0213 38.7155 34.4337 38.0111 32.8438C37.4227 31.5157 36.8309 30.1886 36.2513 28.856C36.1453 28.6121 36.0029 28.5149 35.7302 28.5182C34.5522 28.5315 33.3742 28.5237 32.1973 28.5237C29.6017 28.5237 27.0072 28.5248 24.4127 28.5237C24.2184 28.5226 24.0616 28.537 23.9688 28.7556C23.6608 29.4743 23.3329 30.1842 23.0183 30.8996C21.9032 33.4323 20.7925 35.9683 19.6741 38.4998C18.2212 41.7888 16.7595 45.0744 15.3054 48.3633C14.0833 51.1301 12.8655 53.9001 11.6444 56.6679C10.7082 58.7877 9.76867 60.9063 8.83245 63.0261C7.77257 65.423 6.71379 67.8209 5.65502 70.2189C5.48279 70.6097 5.31608 71.0028 5.12177 71.4521H16.8036C17.519 71.4521 17.5279 71.4554 17.7995 70.7875C18.7059 68.5551 19.6057 66.3206 20.5066 64.086C21.2562 62.2257 22.0025 60.3654 22.7522 58.5062C22.8736 58.2036 22.8792 58.2036 23.153 58.3924C24.8708 59.576 26.6969 60.5619 28.6146 61.3778C30.1482 62.0303 31.7203 62.5712 33.3278 63.0117C35.2554 63.5395 37.2063 63.9391 39.1858 64.203C39.4033 64.2328 39.5292 64.3267 39.6109 64.5309C40.4886 66.7368 41.3751 68.9382 42.2506 71.1441C42.3379 71.3638 42.4494 71.4566 42.6934 71.4566C46.7143 71.4499 50.7352 71.4521 54.7561 71.451C54.85 71.451 54.9438 71.4312 55.084 71.4157C54.9427 71.0856 54.8235 70.7996 54.6976 70.5159C53.8431 68.5816 52.9874 66.6474 52.1285 64.7164C52.0446 64.5287 52.0722 64.4514 52.2864 64.4293C52.7799 64.3774 53.2734 64.3222 53.7636 64.2439C56.0202 63.8817 58.2316 63.3407 60.3713 62.5238C60.9365 62.3085 61.4963 62.0777 62.1201 61.8293C62.1311 62.0104 62.1432 62.1351 62.1443 62.2588C62.1455 65.1856 62.1443 68.1113 62.1443 71.037C62.1451 71.3329 62.2934 71.4812 62.5893 71.4819H73.8792C74.1927 71.4819 74.3499 71.3241 74.3506 71.0083V57.3712C74.3506 57.2796 74.355 57.1868 74.3506 57.0952C74.3396 56.9042 74.4191 56.8192 74.6167 56.7905C75.3443 56.6867 76.0652 56.5277 76.7961 56.4582C78.1485 56.329 79.5054 56.202 80.8633 56.1557C83.5406 56.064 86.2113 56.2583 88.8787 56.4802C89.2099 56.5078 89.2386 56.4813 89.2386 56.1369C89.2408 53.4596 89.2386 50.7823 89.2386 48.1039C89.2386 47.7638 89.1989 47.7197 88.8643 47.6998C87.333 47.606 85.8017 47.4779 84.2682 47.4359C82.8352 47.3973 81.3999 47.4492 79.9658 47.4635C78.1971 47.4823 76.4439 47.6799 74.6929 47.914C74.3606 47.9582 74.3506 47.9482 74.3506 47.6104V38.3066C74.3506 37.9522 74.3705 37.9357 74.7271 37.9335C74.8099 37.9324 74.8927 37.9335 74.9755 37.9335C81.793 37.9335 88.6104 37.9335 95.4279 37.9324C95.7274 37.9324 95.8776 37.7874 95.8783 37.4974V28.9653C95.8776 28.6754 95.7278 28.53 95.429 28.5292ZM35.3327 54.5504C33.0131 53.8868 30.7863 53.0025 28.7538 51.6887C27.9456 51.1665 27.2026 50.5449 26.4264 49.9719C26.2652 49.8538 26.2796 49.7213 26.3447 49.5601C26.7212 48.6217 27.0933 47.681 27.4698 46.7426C28.226 44.8569 28.9845 42.9712 29.7441 41.0866C29.8081 40.9276 29.8788 40.772 29.9461 40.6152C29.9737 40.613 30.0013 40.6119 30.03 40.6108C31.887 45.2488 33.7451 49.8869 35.6275 54.589C35.4685 54.5691 35.3979 54.5691 35.3327 54.5504Z" fill="#007AFF"/>
</svg>
