<svg width="101" height="101" viewBox="0 0 101 101" fill="none" xmlns="http://www.w3.org/2000/svg">
<rect x="0.0441284" y="0.0389709" width="100" height="100" rx="20" fill="black"/>
<path d="M42.7694 40.257H16.4277V58.6994H8.52203V22.57C8.52203 20.9272 9.1137 19.511 10.297 18.3276C11.4804 17.138 12.8966 16.5464 14.5457 16.5464H42.7757V24.452H16.4277V32.3577H42.7757V40.2633L42.7694 40.257Z" fill="white"/>
<path d="M91.5504 16.5464V39.1618L67.7767 16.5464H91.5504Z" fill="#635BFF"/>
<path d="M54.716 16.5841H52.4186C50.908 16.6534 49.605 17.2387 48.4972 18.3465C47.4776 19.3662 46.8985 20.5621 46.76 21.928V58.6931H54.6657V29.0406L85.9862 58.6931H91.5504V51.6435L54.716 16.5841Z" fill="white"/>
<path d="M15.7473 66.5359H25.694V67.9789H17.3099V72.9213H24.8066V74.345H17.3099V80.3755H15.7473V66.5359Z" fill="white"/>
<path d="M26.7241 70.1588H28.2481V76.1314C28.2481 78.0296 29.2552 79.218 31.0763 79.218C32.8974 79.218 34.1397 77.9332 34.1397 76.0156V70.1626H35.6445V80.387H34.1397V78.6084C33.4491 79.7157 32.3996 80.607 30.6403 80.607C28.1864 80.607 26.7241 78.9479 26.7241 76.5133V70.1588Z" fill="white"/>
<path d="M39.5992 71.5015H38.1755V70.1549H39.5992V67.0683H41.1232V70.1549H44.368V71.5015H41.1232V77.4741C41.1232 78.7396 41.8138 79.1756 42.844 79.1756C43.3764 79.1756 43.7931 79.0753 44.3255 78.8206V80.1247C43.7931 80.4218 43.2182 80.5607 42.4851 80.5607C40.8261 80.5607 39.5992 79.7505 39.5992 77.6747V71.5015Z" fill="white"/>
<path d="M46.8952 70.1588H48.4192V76.1314C48.4192 78.0296 49.4262 79.218 51.2473 79.218C53.0684 79.218 54.3108 77.9332 54.3108 76.0156V70.1626H55.8155V80.387H54.3108V78.6084C53.6202 79.7157 52.5707 80.607 50.8113 80.607C48.3575 80.607 46.8952 78.9479 46.8952 76.5133V70.1588Z" fill="white"/>
<path d="M60.3682 70.1549V72.8249C61.1206 71.1234 62.6022 69.9196 64.539 69.9775V71.6172H64.4194C62.1855 71.6172 60.3644 73.2184 60.3644 76.305V80.3794H58.8404V70.1549H60.3682Z" fill="white"/>
<path d="M65.3879 75.298V75.2594C65.3879 72.3117 67.4443 69.9389 70.2917 69.9389C73.3166 69.9389 75.0567 72.3503 75.0567 75.3366C75.0567 75.5526 75.0567 75.653 75.0374 75.8304H66.9312C67.1472 78.0451 68.7098 79.2913 70.5309 79.2913C71.9546 79.2913 72.9038 78.7164 73.7526 77.8483L74.7017 78.6971C73.6716 79.8623 72.4485 80.6147 70.4885 80.6147C67.699 80.6147 65.3879 78.4579 65.3879 75.2941V75.298ZM73.5172 74.7038C73.359 72.8634 72.3096 71.2237 70.2531 71.2237C68.4552 71.2237 67.1472 72.7284 66.9312 74.7038H73.5172Z" fill="white"/>
<path d="M76.4842 79.0752L77.2559 77.9872C78.3632 78.836 79.5902 79.2913 80.7939 79.2913C81.9977 79.2913 82.9083 78.6778 82.9083 77.6708V77.6323C82.9083 76.6252 81.7006 76.2085 80.3579 75.8343C78.7761 75.3597 76.9781 74.8466 76.9781 72.9483V72.9097C76.9781 71.1504 78.4404 69.9813 80.4583 69.9813C81.7238 69.9813 83.0896 70.4173 84.1352 71.1079L83.4446 72.2538C82.4954 71.6404 81.4267 71.2661 80.4197 71.2661C79.212 71.2661 78.4442 71.8989 78.4442 72.7477V72.7863C78.4442 73.7547 79.7098 74.1328 81.0756 74.5456C82.6575 75.0202 84.359 75.6337 84.359 77.4741V77.5126C84.359 79.4495 82.7578 80.5761 80.7206 80.5761C79.239 80.5761 77.6572 80.0012 76.4881 79.0714L76.4842 79.0752Z" fill="white"/>
<path d="M87.7079 63.6229H12.3945C10.2636 63.6229 8.53619 65.3503 8.53619 67.4812V79.6733C8.53619 81.8042 10.2636 83.5316 12.3945 83.5316H87.7079C89.8388 83.5316 91.5662 81.8042 91.5662 79.6733V67.4812C91.5662 65.3503 89.8388 63.6229 87.7079 63.6229Z" stroke="white" stroke-width="0.7" stroke-miterlimit="10"/>
</svg>
