<svg width="100" height="101" viewBox="0 0 100 101" fill="none" xmlns="http://www.w3.org/2000/svg">
<rect x="6.10352e-05" y="0.117493" width="100" height="100" rx="20" fill="black"/>
<path d="M95.5482 28.3508H80.1293C74.1693 28.3508 68.2092 28.3508 62.2492 28.3519C61.8172 28.3519 61.8071 28.362 61.8049 28.7862V29.038C61.8049 36.6221 61.8026 44.2062 61.8127 51.7903C61.8138 52.1507 61.712 52.3555 61.3751 52.4954C60.9363 52.6756 60.5188 52.9073 60.0913 53.1154C58.4269 53.9213 56.7358 54.6522 54.9505 55.1525C53.5817 55.5364 52.1938 55.8129 50.7813 55.9528C49.8635 56.0445 48.9424 56.0971 48.0235 56.1688C47.8231 56.1844 47.6922 56.1162 47.6071 55.9214C47.2355 55.0663 46.8527 54.2168 46.4755 53.365C45.6742 51.5485 44.875 49.7297 44.0714 47.9143C43.3394 46.26 42.6007 44.6091 41.8676 42.956C41.0707 41.1573 40.2793 39.3564 39.4836 37.5578C38.7695 35.9461 38.0532 34.3366 37.3391 32.7249C36.7425 31.3784 36.1426 30.0331 35.555 28.6821C35.4475 28.4348 35.3031 28.3363 35.0267 28.3396C33.8324 28.3531 32.6382 28.3452 31.4451 28.3452C28.8137 28.3452 26.1835 28.3463 23.5532 28.3452C23.3562 28.3441 23.1973 28.3586 23.1033 28.5803C22.791 29.3089 22.4586 30.0286 22.1396 30.7539C21.0091 33.3214 19.8832 35.8924 18.7494 38.4588C17.2764 41.7931 15.7945 45.124 14.3205 48.4582C13.0815 51.2631 11.8469 54.0713 10.609 56.8773C9.65989 59.0262 8.7074 61.1741 7.75828 63.3231C6.68379 65.753 5.61043 68.184 4.53706 70.615C4.36246 71.0112 4.19345 71.4097 3.99646 71.8652H15.8393C16.5646 71.8652 16.5735 71.8686 16.8489 71.1914C17.7678 68.9283 18.68 66.6629 19.5933 64.3975C20.3533 62.5116 21.1099 60.6256 21.8698 58.7408C21.993 58.4341 21.9986 58.4341 22.2761 58.6255C24.0177 59.8254 25.8689 60.8249 27.8131 61.652C29.3677 62.3135 30.9615 62.8619 32.5912 63.3085C34.5454 63.8435 36.5231 64.2487 38.53 64.5162C38.7504 64.5464 38.878 64.6415 38.9609 64.8486C39.8507 67.0849 40.7494 69.3167 41.637 71.5529C41.7254 71.7757 41.8385 71.8697 42.0858 71.8697C46.1622 71.863 50.2385 71.8652 54.3148 71.8641C54.4099 71.8641 54.5051 71.8439 54.6472 71.8283C54.504 71.4936 54.3831 71.2037 54.2555 70.9161C53.3892 68.9551 52.5218 66.9942 51.651 65.0366C51.5659 64.8464 51.5939 64.768 51.811 64.7456C52.3113 64.693 52.8116 64.6371 53.3086 64.5576C55.5964 64.1905 57.8382 63.642 60.0073 62.8138C60.5804 62.5955 61.1479 62.3616 61.7802 62.1098C61.7914 62.2933 61.8037 62.4198 61.8049 62.5452C61.806 65.5123 61.8049 68.4783 61.8049 71.4444C61.8056 71.7443 61.956 71.8947 62.2559 71.8954H73.7014C74.0193 71.8954 74.1786 71.7354 74.1793 71.4153V57.5902C74.1793 57.4973 74.1838 57.4033 74.1793 57.3104C74.1682 57.1168 74.2487 57.0306 74.4491 57.0015C75.1867 56.8963 75.9175 56.7351 76.6585 56.6646C78.0296 56.5337 79.4051 56.4049 80.7818 56.3579C83.496 56.265 86.2035 56.462 88.9076 56.687C89.2434 56.715 89.2725 56.6881 89.2725 56.3389C89.2747 53.6247 89.2725 50.9105 89.2725 48.1952C89.2725 47.8505 89.2322 47.8057 88.8931 47.7856C87.3407 47.6904 85.7883 47.5606 84.2336 47.5181C82.7808 47.4789 81.3258 47.5315 79.8719 47.546C78.0788 47.5651 76.3015 47.7654 74.5263 48.0027C74.1894 48.0475 74.1793 48.0374 74.1793 47.6949V38.2629C74.1793 37.9037 74.1995 37.8869 74.561 37.8846C74.645 37.8835 74.7289 37.8846 74.8128 37.8846C81.7242 37.8846 88.6356 37.8846 95.547 37.8835C95.8507 37.8835 96.0029 37.7365 96.0037 37.4425V28.7929C96.0029 28.4989 95.8511 28.3516 95.5482 28.3508ZM34.6238 54.7305C32.2722 54.0579 30.0147 53.1613 27.9541 51.8294C27.1348 51.3 26.3816 50.6699 25.5947 50.089C25.4313 49.9692 25.4459 49.8349 25.5119 49.6715C25.8936 48.7201 26.2708 47.7665 26.6524 46.8152C27.4191 44.9035 28.188 42.9918 28.9581 41.0812C29.023 40.92 29.0946 40.7622 29.1629 40.6033C29.1909 40.6011 29.2189 40.5999 29.248 40.5988C31.1306 45.3008 33.0143 50.0028 34.9226 54.7697C34.7614 54.7496 34.6898 54.7496 34.6238 54.7305Z" fill="white"/>
</svg>
