<svg width="101" height="101" viewBox="0 0 101 101" fill="none" xmlns="http://www.w3.org/2000/svg">
<rect x="0.026123" y="0.160034" width="100" height="100" rx="20" fill="black"/>
<path d="M86.8148 17.3971C86.8148 13.124 83.3508 9.66003 79.0777 9.66003C74.8046 9.66003 71.3406 13.124 71.3406 17.3971V82.923C71.3406 87.196 74.8046 90.66 79.0777 90.66C83.3508 90.66 86.8148 87.196 86.8148 82.923V17.3971Z" fill="#48C3C8"/>
<path d="M67.4481 38.4724C67.4481 34.1994 63.9841 30.7354 59.7111 30.7354C55.438 30.7354 51.974 34.1994 51.974 38.4724V82.923C51.974 87.196 55.438 90.66 59.7111 90.66C63.9841 90.66 67.4481 87.196 67.4481 82.923V38.4724Z" fill="#48C3C8"/>
<path d="M48.0781 59.5477C48.0781 55.2746 44.6141 51.8106 40.3411 51.8106C36.068 51.8106 32.604 55.2746 32.604 59.5477V82.9229C32.604 87.196 36.068 90.66 40.3411 90.66C44.6141 90.66 48.0781 87.196 48.0781 82.9229V59.5477Z" fill="#48C3C8"/>
<path d="M28.7116 80.6231C28.7116 76.35 25.2476 72.886 20.9745 72.886C16.7014 72.886 13.2374 76.35 13.2374 80.6231V82.923C13.2374 87.1961 16.7014 90.6601 20.9745 90.6601C25.2476 90.6601 28.7116 87.1961 28.7116 82.923V80.6231Z" fill="#48C3C8"/>
</svg>
