<svg width="101" height="101" viewBox="0 0 101 101" fill="none" xmlns="http://www.w3.org/2000/svg">
<rect x="0.985352" y="0.143677" width="100" height="100" rx="20" fill="black"/>
<path d="M91.099 37.5674L76.6396 66.3753C75.6173 68.4109 73.8068 69.7433 71.7916 70.2324L70.3078 58.9325L81.2847 39.4368L53.752 49.0942L43.6258 52.6468L24.7465 59.2684C24.1467 59.4788 23.7924 58.6114 24.3682 58.342L40.8779 50.6094L49.8728 46.3961L84.0917 30.3681C88.6593 28.2274 93.3616 33.0588 91.099 37.5674Z" fill="white"/>
<path d="M49.8728 46.3961L40.8779 50.6094L27.201 40.4629L11.376 60.6783C10.9257 61.2541 10.0288 60.6894 10.3554 60.0343L20.6477 39.2873C23.2166 34.1089 29.7847 32.424 34.5294 35.7237L49.8728 46.3961Z" fill="#0026FF"/>
<path d="M71.7916 70.2324C69.7542 70.727 67.5082 70.3616 65.659 68.9904L43.6258 52.6468L53.752 49.0942L69.6287 60.1376L70.3078 58.9325L71.7916 70.2324Z" fill="url(#paint0_linear_243_142)"/>
<defs>
<linearGradient id="paint0_linear_243_142" x1="67.5193" y1="59.8552" x2="49.0571" y2="59.5747" gradientUnits="userSpaceOnUse">
<stop offset="0.13" stop-color="white"/>
<stop offset="0.42" stop-color="#A7A7FF"/>
<stop offset="0.82" stop-color="#3030FF"/>
<stop offset="1" stop-color="#0000FF"/>
</linearGradient>
</defs>
</svg>
