<svg width="101" height="101" viewBox="0 0 101 101" fill="none" xmlns="http://www.w3.org/2000/svg">
<rect x="0.987305" y="0.18457" width="100" height="100" rx="20" fill="black"/>
<path d="M42.9873 10.1846C38.569 10.1846 34.9873 13.7663 34.9873 18.1845C34.9873 22.6028 38.569 26.1845 42.9873 26.1845H82.9873C87.4056 26.1845 90.9873 22.6028 90.9873 18.1845C90.9873 13.7663 87.4056 10.1846 82.9873 10.1846H42.9873Z" fill="white"/>
<path d="M10.9873 42.1847V82.1846C10.9873 86.603 14.569 90.1846 18.9873 90.1846C23.4056 90.1846 26.9873 86.603 26.9873 82.1846V58.1847H82.9873C87.4056 58.1847 90.9873 54.603 90.9873 50.1847C90.9873 45.7663 87.4056 42.1847 82.9873 42.1847H10.9873Z" fill="white"/>
<path d="M50.7385 64.6836C55.2947 64.6836 58.9884 68.3772 58.9884 72.9335V81.9336C58.9884 86.49 55.2947 90.1835 50.7385 90.1835C46.1821 90.1835 42.4884 86.49 42.4884 81.9336V72.9335C42.4884 68.3772 46.1821 64.6836 50.7385 64.6836Z" fill="white"/>
<path d="M18.9873 26.1845C23.4056 26.1845 26.9873 22.6028 26.9873 18.1845C26.9873 13.7663 23.4056 10.1846 18.9873 10.1846C14.569 10.1846 10.9873 13.7663 10.9873 18.1845C10.9873 22.6028 14.569 26.1845 18.9873 26.1845Z" fill="white"/>
</svg>
