<svg width="100" height="101" viewBox="0 0 100 101" fill="none" xmlns="http://www.w3.org/2000/svg">
<rect x="0.0020752" y="0.158386" width="100" height="100" rx="20" fill="black"/>
<path d="M31.9536 17.5149V7.82947H37.9697V11.9075H46.994V7.82947H53.0102V11.9075H62.0344V7.82947H68.0505V17.5149H31.9536Z" fill="#3A82F7"/>
<path fill-rule="evenodd" clip-rule="evenodd" d="M15.0893 22.8958C15.0893 22.8958 14.9112 31.3969 15.0893 42.4991C15.1049 43.4746 15.117 44.4661 15.1292 45.4701C15.383 66.3011 15.7021 92.4874 49.2873 92.4874C84.4911 92.4874 84.994 74.3543 84.994 40.0487V22.8958H15.0893ZM80.4872 27.3938H19.5376C19.5345 27.7635 19.5316 28.1535 19.5291 28.5625C19.507 32.0504 19.507 36.9169 19.5954 42.4271C19.6107 43.3817 19.6232 44.3393 19.6358 45.298C19.7685 55.4102 19.9027 65.6362 23.275 73.7209C25.0426 77.9587 27.643 81.4093 31.5378 83.8519C35.4682 86.3167 41.0919 87.9895 49.2873 87.9895C57.7623 87.9895 63.6848 86.8882 67.8746 85.0137C71.9213 83.2031 74.5274 80.5971 76.3308 77.0824C78.2098 73.4203 79.301 68.6016 79.8774 62.3057C80.4524 56.0226 80.4872 48.6682 80.4872 40.0487V27.3938Z" fill="url(#paint0_linear_244_244)"/>
<path d="M37.4786 56.9739H26.4286C26.4286 56.9739 26.4976 64.1273 28.6386 69.5292C30.7795 74.9311 37.4786 79.932 37.4786 79.932V56.9739Z" fill="#F2CB80"/>
<path d="M57.0004 47.2888H43.0036V81.3671H57.0004V47.2888Z" fill="url(#paint1_radial_244_244)"/>
<path d="M73.9439 37.9622H62.5255V79.9324C62.5255 79.9324 73.9439 77.2246 73.9439 63.0089V37.9622Z" fill="#D8AE5E"/>
<defs>
<linearGradient id="paint0_linear_244_244" x1="84.994" y1="6.16955" x2="3.32739" y2="74.3422" gradientUnits="userSpaceOnUse">
<stop stop-color="#DEB25F"/>
<stop offset="1" stop-color="#F3CC81"/>
</linearGradient>
<radialGradient id="paint1_radial_244_244" cx="0" cy="0" r="1" gradientUnits="userSpaceOnUse" gradientTransform="translate(84.9946 7.82946) rotate(129.579) scale(109.84 62.5697)">
<stop stop-color="#D8AE5E"/>
<stop offset="1" stop-color="#F4CD83"/>
</radialGradient>
</defs>
</svg>
