<svg width="101" height="101" viewBox="0 0 101 101" fill="none" xmlns="http://www.w3.org/2000/svg">
<rect x="0.0408936" y="0.13385" width="100" height="100" rx="20" fill="black"/>
<path d="M10.9777 34.6782C11.9144 33.9288 13.4133 33.7414 14.5374 35.0528C15.2868 35.9895 15.6615 38.6123 15.8489 39.3617C16.2236 41.9845 16.7856 45.7313 16.7856 48.5414C16.7856 48.7288 16.7856 48.9161 16.7856 49.1035C16.7856 50.2275 17.1603 51.3516 17.535 52.4756C20.5327 58.2832 25.7786 65.5895 25.7786 65.5895L26.1533 65.9642C26.3407 66.3389 26.9027 66.3389 27.0901 66.1516C27.4648 65.9642 27.6521 65.4022 27.4648 65.0275L20.3453 53.4123C19.5959 52.1009 19.9706 50.2275 21.4695 49.4782C22.9683 48.7288 24.6545 49.1035 25.5912 50.4149L33.0854 59.9693C33.6474 60.7187 34.5842 61.468 35.1463 62.0301C41.891 66.9009 42.8278 71.7718 43.3898 74.2073C43.3898 74.2073 43.3898 74.7693 43.3898 75.706C43.3898 76.4554 43.3898 77.2047 43.2025 77.9541L42.8278 86.0098C42.8278 86.5718 42.2657 87.1339 41.7037 87.1339H29.151C28.5889 87.1339 28.0268 86.5718 28.0268 86.0098L27.8395 79.4528L15.6615 64.8402C13.9753 62.9668 12.6638 60.906 12.2891 58.2832L12.1018 57.5339L10.0409 37.3009C10.0409 36.3642 10.2282 35.2402 10.9777 34.6782ZM19.0339 47.0427C19.0339 47.2301 19.0339 47.4174 19.0339 47.7921C19.2212 47.6047 19.5959 47.4174 19.7833 47.2301C20.158 47.0427 20.5327 46.8554 20.9074 46.668C20.7201 44.6073 19.9706 40.6731 19.4086 38.6123C19.2212 37.6756 18.4718 36.9263 17.535 36.5516C17.7224 37.3009 17.9097 38.0503 18.0971 38.6123C18.4718 40.8604 19.0339 44.7946 19.0339 47.0427ZM23.1556 46.2933C23.7177 46.2933 24.4671 46.4807 25.0292 46.668C24.8418 45.3566 23.9051 42.5465 23.5304 41.4225C23.343 40.4858 22.7809 39.7364 21.6568 39.3617C22.0315 40.8604 22.7809 43.6706 23.1556 45.1693V46.106C23.1556 46.106 23.1556 46.106 23.1556 46.2933ZM85.9191 34.8655C85.1697 35.8022 84.795 38.425 84.6076 39.1744C84.2329 41.7971 83.6709 45.544 83.6709 48.3541C83.6709 48.5414 83.6709 48.7288 83.6709 48.9161C83.6709 50.0402 83.2962 51.1642 82.9215 52.2883C80.1112 58.0959 74.6779 65.5895 74.6779 65.5895L74.3032 65.9642C74.1158 66.3389 73.5538 66.3389 73.3664 66.1516C72.9917 65.9642 72.8044 65.4022 72.9917 65.0275L80.1112 53.4123C80.8606 52.1009 80.4859 50.2275 78.987 49.4782C77.4882 48.7288 75.802 49.1035 74.8652 50.4149L67.3711 59.9693C66.809 60.7187 65.8723 61.468 65.3102 62.0301C58.5655 66.9009 57.6287 71.7718 57.0667 74.2073C57.0667 74.2073 57.0667 74.7693 57.0667 75.706C57.0667 76.4554 57.0667 77.2047 57.254 77.9541L57.6287 86.0098C57.6287 86.5718 58.1908 87.1339 58.7528 87.1339H71.3055C71.8676 87.1339 72.4296 86.5718 72.4296 86.0098L72.617 79.4528L84.6076 65.0275C86.2938 63.1541 87.6053 61.0933 87.98 58.4706V57.7212L90.0409 37.4883C90.0409 36.5516 89.8535 35.4275 89.1041 34.8655C88.5421 33.9288 87.0432 33.7414 85.9191 34.8655ZM79.3617 46.4807C79.7364 46.668 80.1111 46.8554 80.4859 47.0427C80.8606 47.2301 81.0479 47.4174 81.2353 47.6047C81.2353 47.4174 81.2353 47.2301 81.2353 46.8554C81.2353 44.6073 81.7973 40.4857 82.172 38.2376C82.172 37.4883 82.3594 36.7389 82.7341 36.1769C81.61 36.5516 81.0479 37.3009 80.8606 38.2376C80.4859 40.4857 79.7364 44.4199 79.3617 46.4807ZM75.6147 46.668C76.1767 46.4807 76.7388 46.2933 77.4882 46.2933V46.106L77.6756 45.1693C77.8629 43.6706 78.7997 40.8604 79.1744 39.3617C78.2376 39.7364 77.6756 40.4858 77.3008 41.4225C76.5514 42.5465 75.802 45.3566 75.6147 46.668ZM41.1416 30.9313H31.0245V51.5389H41.1416V30.9313ZM45.2634 13.1339H55.3805V51.5389H45.2634V13.1339ZM52.5702 45.544L49.1978 48.9161H52.5702V45.544ZM47.8863 19.1288L51.0713 15.944H47.8863V19.1288ZM47.8863 26.0604L52.5702 21.3769V18.0047L47.8863 22.6883V26.0604ZM47.8863 32.9921L52.5702 28.1212V24.9364L47.8863 29.6199V32.9921ZM47.8863 39.9237L52.5702 35.2402V31.868L47.8863 36.5516V39.9237ZM47.8863 46.668L52.5702 41.9845V38.6123L47.8863 43.2959V46.668ZM59.5023 22.5009H69.6193V51.5389H59.5023V22.5009ZM62.1252 48.9161H66.809V25.3111H62.1252V48.9161Z" fill="white"/>
</svg>
