<svg width="101" height="101" viewBox="0 0 101 101" fill="none" xmlns="http://www.w3.org/2000/svg">
<rect x="0.0462036" y="0.079895" width="100" height="100" rx="20" fill="black"/>
<path d="M83.2515 28.2195L53.8409 11.1007C51.5002 9.73961 48.5922 9.73961 46.2515 11.1007L16.8409 28.2195C14.4922 29.5887 13.0462 32.1136 13.0462 34.848V69.0815C13.0462 71.8037 14.5002 74.3448 16.8409 75.7059L40.7792 89.6434C42.9082 90.8837 45.5725 89.3333 45.5725 86.8526V45.6846L20.2361 60.4315V51.6849L50.0462 34.3365L79.8563 51.6849V60.4315L54.5199 45.6846V86.8526C54.5199 89.3333 57.1842 90.8837 59.3132 89.6434L83.2515 75.7059C85.5922 74.3448 87.0462 71.8037 87.0462 69.0815V34.848C87.0462 32.1217 85.5922 29.5847 83.2515 28.2235V28.2195ZM79.8563 69.0815C79.8563 69.2265 79.7804 69.3594 79.6566 69.4318L61.7098 79.8819V58.2448L79.8563 68.8077V69.0855V69.0815ZM38.3826 58.2408V79.8779L20.4358 69.4278C20.312 69.3553 20.2361 69.2224 20.2361 69.0775V68.7996L38.3826 58.2368V58.2408ZM50.0462 25.9684L20.2361 43.3208V34.848C20.2361 34.703 20.312 34.5701 20.4358 34.4976L49.8465 17.3788C49.9703 17.3063 50.1221 17.3063 50.2459 17.3788L79.6566 34.5016C79.7804 34.5741 79.8563 34.707 79.8563 34.852V43.3248L50.0462 25.9765V25.9684Z" fill="url(#paint0_linear_270_20)"/>
<defs>
<linearGradient id="paint0_linear_270_20" x1="50.0462" y1="10.0779" x2="50.0462" y2="90.0823" gradientUnits="userSpaceOnUse">
<stop offset="0.09" stop-color="#1B5E30"/>
<stop offset="0.5" stop-color="#3D9F49"/>
<stop offset="0.92" stop-color="#D0DCC9"/>
</linearGradient>
</defs>
</svg>
