<svg width="101" height="101" viewBox="0 0 101 101" fill="none" xmlns="http://www.w3.org/2000/svg">
<g clip-path="url(#clip0_305_20)">
<rect x="0.0314941" y="0.106018" width="100" height="100" rx="20" fill="black"/>
<path d="M100.031 0.106018H0.0314941V100.106H100.031V0.106018Z" fill="black"/>
<path d="M13.3648 53.4394V63.4394H30.0315V80.106H40.0315V53.4394H13.3648Z" fill="white"/>
<path d="M30.0315 36.7727V46.7727H46.6982V63.4394H56.6982V36.7727H30.0315Z" fill="#3AE7A7"/>
<path d="M73.3648 20.106H50.0315V30.106H73.3648C75.2015 30.106 76.6982 31.6027 76.6982 33.4394C76.6982 35.276 75.2015 36.7727 73.3648 36.7727H63.3648V46.7727H73.3648C80.7182 46.7727 86.6982 40.7927 86.6982 33.4394C86.6982 26.086 80.7182 20.106 73.3648 20.106Z" fill="#A761FF"/>
</g>
<defs>
<clipPath id="clip0_305_20">
<rect x="0.0314941" y="0.106018" width="100" height="100" rx="20" fill="white"/>
</clipPath>
</defs>
</svg>
