<svg width="101" height="101" viewBox="0 0 101 101" fill="none" xmlns="http://www.w3.org/2000/svg">
<rect x="0.970581" y="0.16983" width="100" height="100" rx="20" fill="#19B085"/>
<path fill-rule="evenodd" clip-rule="evenodd" d="M51.0936 18.0364C51.3724 18.4712 51.6184 18.9222 51.8318 19.3897C55.9463 26.5948 60.0883 33.7716 64.2577 40.9198C64.2577 40.9608 64.2577 41.0019 64.2577 41.0429C66.1888 44.414 68.1162 47.7768 70.0401 51.1313C72.0788 54.8106 74.1703 58.4605 76.3146 62.0809C76.3056 62.2687 76.3877 62.3918 76.5607 62.45C76.6212 62.7353 76.7442 62.9813 76.9298 63.1881C73.3 63.3518 69.6502 63.3518 65.9801 63.1881C64.4051 60.4046 62.8057 57.657 61.182 54.9452C57.8261 48.9847 54.4428 43.0383 51.0321 37.1059C49.9194 38.9221 48.8737 40.7675 47.8948 42.6423C47.1564 43.813 46.4388 45.0023 45.7418 46.2101C45.6598 46.3331 45.6598 46.4562 45.7418 46.5792C48.6692 51.6516 51.6013 56.6958 54.5384 61.7118C54.7534 62.183 54.9994 62.6341 55.2766 63.0651C55.3176 63.1472 55.3587 63.2291 55.3996 63.3112C51.7497 63.3112 48.0999 63.3112 44.45 63.3112C44.3285 63.1519 44.2054 62.9879 44.0809 62.8191C42.7921 60.5702 41.5003 58.3147 40.2055 56.0524C37.249 61.0638 34.3578 66.108 31.5319 71.1851C31.5319 71.226 31.5319 71.2671 31.5319 71.3081C29.4639 74.7042 27.4544 78.149 25.5035 81.6425C25.4128 81.8646 25.2898 82.0696 25.1344 82.2577C21.4855 82.3807 17.8356 82.4217 14.1848 82.3807C14.2599 82.2711 14.3008 82.1481 14.3078 82.0116C14.4808 81.9534 14.5629 81.8304 14.5539 81.6425C15.2194 80.6818 15.7935 79.6566 16.2763 78.5668C20.5112 71.3691 24.6533 64.1104 28.7023 56.7906C32.8225 49.7814 36.8825 42.7278 40.8822 35.6296C40.8822 35.5886 40.8822 35.5475 40.8822 35.5066C43.9476 30.2373 46.9823 24.9471 49.9863 19.6358C50.3669 19.1625 50.6539 18.6294 50.8475 18.0364C50.9578 17.9126 51.0397 17.9126 51.0936 18.0364Z" fill="white"/>
<path fill-rule="evenodd" clip-rule="evenodd" d="M81.974 72.7844C82.2802 72.7526 82.4853 72.8756 82.5891 73.1535C84.0987 75.8922 85.6571 78.5988 87.2642 81.2735C87.3581 81.5033 87.4811 81.7084 87.6333 81.8886C87.6403 82.025 87.6813 82.1481 87.7563 82.2577C70.5529 82.3807 53.3288 82.4217 36.084 82.3807C36.1591 82.2711 36.2 82.1481 36.2071 82.0116C36.3592 81.8314 36.4823 81.6263 36.5761 81.3965C38.2064 78.6694 39.8058 75.9217 41.3743 73.1535C41.4153 73.0715 41.4564 72.9895 41.4973 72.9075C54.9894 72.8788 68.4817 72.8378 81.974 72.7844Z" fill="white"/>
</svg>
