<svg width="101" height="101" viewBox="0 0 101 101" fill="none" xmlns="http://www.w3.org/2000/svg">
<rect x="0.055603" y="0.107666" width="100" height="100" rx="20" fill="black"/>
<path d="M91.7212 54.6557C90.5849 58.8415 89.2474 62.98 87.9809 67.0949C87.318 66.9293 87.0576 66.953 86.9629 66.8347C84.3234 63.7604 84.3707 63.855 80.8553 65.9006C70.806 71.7773 60.6857 77.5476 50.6247 83.4125C48.8965 84.4175 47.7839 84.2402 46.4227 82.6439C42.7415 78.328 38.7644 74.2604 35.0951 69.9327C33.4143 67.9462 31.8401 67.8634 29.745 69.0459C24.0398 72.2857 18.299 75.4547 12.5701 78.6472C11.28 79.3685 10.0016 80.279 8.82978 78.3753C7.69347 76.507 8.93631 75.7621 10.2502 74.9344C17.3639 70.4411 24.5014 65.9715 31.5678 61.4074C33.3078 60.284 34.5033 60.5205 35.9118 61.9513C39.5457 65.6523 43.3215 69.2114 47.0145 72.8651C48.6125 74.4614 49.9973 74.7216 52.1042 73.3263C60.1058 68.0526 68.1783 62.8736 76.4284 57.9901C79.7189 56.0391 78.8904 53.958 77.0912 50.86C82.0507 51.6877 86.0989 52.2908 90.0996 53.083C90.7506 53.2013 91.8159 54.2891 91.7212 54.6557Z" fill="white"/>
<path d="M47.5945 16.1793V65.8651C43.2979 61.7739 39.4036 58.1675 35.6396 54.431C35.1306 53.9225 35.1188 52.7874 35.1069 51.9479C35.0714 43.1506 35.1188 34.3533 35.0359 25.556C35.0123 23.6404 35.6751 22.4698 37.3677 21.6185C40.6583 19.9512 43.8897 18.1657 47.5945 16.1793Z" fill="#274472"/>
<path d="M68.9595 53.6979C68.9832 55.7198 68.2967 56.9378 66.5685 57.9192C63.1951 59.8229 59.9164 61.8803 56.1287 64.1624C55.9511 62.6962 55.7499 61.7857 55.7499 60.8634C55.7144 52.1489 55.7854 43.4225 55.6907 34.708C55.667 32.6742 56.3654 31.4681 58.1882 30.5695C61.5735 28.8904 64.8759 27.0458 68.7109 25.0002C68.8056 26.561 68.9122 27.4952 68.9122 28.4293C68.924 36.8482 68.853 45.279 68.9595 53.6979Z" fill="#274472"/>
<path d="M27.2593 56.2401C27.2475 56.9496 26.9397 57.9546 26.4307 58.3094C22.7614 60.8043 18.9974 63.1692 14.4403 66.1134V55.6489C14.4403 54.2773 14.5705 52.8938 14.4166 51.5459C14.1444 49.0391 15.115 47.5847 17.4586 46.5915C19.968 45.5273 22.288 44.0256 24.6908 42.7131C26.3952 41.779 27.3067 42.2401 27.3067 44.2148C27.3067 48.2232 27.3422 52.2317 27.2593 56.2401Z" fill="#274472"/>
</svg>
